<svg width="142" height="22" viewBox="0 0 142 22" fill="none" xmlns="http://www.w3.org/2000/svg">
<mask id="mask0_238_6530" style="mask-type:luminance" maskUnits="userSpaceOnUse" x="0" y="0" width="142" height="22">
<path d="M141.187 0H0V21.236H141.187V0Z" fill="white"/>
</mask>
<g mask="url(#mask0_238_6530)">
<path d="M22.749 0L24.91 5.986C20.9748 7.67263 16.7374 8.54026 12.456 8.536C8.17371 8.54068 3.93542 7.67234 0 5.984L2.161 0C5.40142 1.44815 8.91172 2.19384 12.461 2.188C16.0063 2.19266 19.5124 1.44699 22.749 0ZM12.456 14.888C8.9084 14.8931 5.39988 14.1475 2.161 12.7L0 18.684C3.93542 20.3723 8.17371 21.2407 12.456 21.236C16.7373 21.2401 20.9746 20.3729 24.91 18.687L22.749 12.7C19.5109 14.1477 16.003 14.8934 12.456 14.888ZM119.807 10.222C119.831 11.6981 119.554 13.1636 118.991 14.5287C118.429 15.8938 117.594 17.1297 116.538 18.1609C115.481 19.192 114.226 19.9966 112.847 20.5254C111.469 21.0541 109.997 21.2959 108.522 21.236H101.454V0H108.977C116.137 0 119.807 5 119.807 10.222ZM114.907 10.222C114.907 7.188 113.107 4.502 109.075 4.502H106.3V16.734H108.473C112.823 16.734 114.907 13.509 114.907 10.222ZM77.342 21.236L72.642 12.336C73.6802 11.8097 74.5462 10.9973 75.1377 9.99472C75.7292 8.99216 76.0214 7.84129 75.98 6.678C75.98 3.352 73.65 0 68.02 0H59.537V21.236H64.381V13.328H67.859L71.922 21.236H77.342ZM64.381 9.191V4.5H67C69.488 4.5 70.876 4.972 70.876 6.8C70.876 8.843 69.276 9.183 67 9.183L64.381 9.191ZM49.847 0H43.876L36.309 21.236H41.284L42.709 17.029H51.014L52.439 21.236H57.414L49.847 0ZM44.175 12.7L46.862 4.766L49.548 12.7H44.175ZM91.611 0H85.64L78.073 21.236H83.048L84.473 17.029H92.778L94.2 21.236H99.175L91.611 0ZM85.939 12.7L88.625 4.766L91.312 12.7H85.939ZM133.62 0H127.649L120.082 21.236H125.057L126.482 17.029H134.787L136.212 21.236H141.187L133.62 0ZM127.948 12.7L130.635 4.766L133.321 12.7H127.948Z" fill="black"/>
</g>
</svg>
