<svg width="137" height="30" viewBox="0 0 137 30" fill="none" xmlns="http://www.w3.org/2000/svg">
<mask id="mask0_238_6503" style="mask-type:luminance" maskUnits="userSpaceOnUse" x="0" y="0" width="138" height="30">
<path d="M0.987793 0.0960693H137.003V29.9038H0.987793V0.0960693Z" fill="white"/>
</mask>
<g mask="url(#mask0_238_6503)">
<mask id="mask1_238_6503" style="mask-type:luminance" maskUnits="userSpaceOnUse" x="0" y="0" width="138" height="30">
<path d="M137.003 0.0959473H0.989014V29.9036H137.003V0.0959473Z" fill="white"/>
</mask>
<g mask="url(#mask1_238_6503)">
<path d="M95.9368 29.8941H83.4903V28.4001C83.836 28.3679 84.3416 28.3202 85.0081 28.2713C85.6758 28.2237 86.1408 28.1271 86.4055 28.0222C86.8395 27.8302 87.1519 27.5893 87.345 27.2674C87.5382 26.9538 87.6347 26.5127 87.6347 25.9511V4.42161C87.6347 3.92442 87.562 3.52261 87.4177 3.19354C87.2806 2.85611 86.9432 2.58308 86.4055 2.35892C85.9298 2.15922 85.438 2.00047 84.9353 1.88438C84.4616 1.75882 83.9783 1.67307 83.4903 1.62804V0.110229H95.938V1.61969C95.5362 1.63519 95.0533 1.68408 94.4917 1.77231C93.9967 1.85204 93.5082 1.9676 93.0299 2.11808C92.5411 2.285 92.2037 2.56758 92.0427 2.936C91.8651 3.33242 91.7771 3.76315 91.7852 4.19746V25.7258C91.7852 26.1908 91.8817 26.6009 92.0749 26.9622C92.2597 27.308 92.5804 27.606 93.0299 27.8135C93.3042 27.9268 93.7525 28.046 94.3629 28.1831C94.9817 28.3119 95.504 28.3918 95.9296 28.4085V29.9012L95.9368 29.8941ZM58.075 29.8953H46.5836V28.4252C47.5959 28.3536 48.4388 28.2248 49.1053 28.0162C49.7718 27.8063 50.1092 27.5583 50.1092 27.2531C50.1092 27.1243 50.1009 26.9717 50.0687 26.7953C50.0483 26.6339 50.0107 26.4753 49.9566 26.3219L47.6602 19.7285H37.9513C37.5817 20.6918 37.2848 21.5432 37.0594 22.2657C36.8353 22.9811 36.635 23.6476 36.4502 24.2497C36.3065 24.7276 36.1883 25.2127 36.096 25.7031C36.0317 26.0727 36.0007 26.3696 36.0007 26.6105C36.0007 27.1565 36.4096 27.5822 37.2287 27.8958C38.0479 28.201 38.9635 28.3775 39.9913 28.4323V29.9036H29.5753V28.4347C29.9127 28.4108 30.3384 28.3298 30.8451 28.1938C31.3507 28.0567 31.768 27.8886 32.0899 27.6716C32.5544 27.3453 32.9638 26.9468 33.3025 26.4912C33.5827 26.0894 33.8629 25.5195 34.1371 24.8053C35.6929 20.6755 37.2267 16.5373 38.7382 12.391C40.417 7.79584 41.9181 3.70861 43.2189 0.119768H44.7844L54.0033 25.4456C54.1965 25.9917 54.4206 26.4256 54.6615 26.7631C54.9119 27.0921 55.2564 27.4212 55.6988 27.7348C55.9945 27.928 56.3808 28.0961 56.8625 28.2165C57.3442 28.3524 57.7531 28.4252 58.075 28.4335V29.9024V29.8953ZM46.9532 17.8887L42.761 6.49504L38.6416 17.8899L46.9532 17.8887Z" fill="#2C2A29"/>
<path d="M81.1824 20.5631L80.2524 29.8929H57.6797V29.1632L75.3699 1.78783H68.8897C68.135 1.78783 67.5079 1.80452 67.0023 1.82837C66.535 1.84593 66.0702 1.90498 65.6133 2.00483C64.7381 2.17414 63.758 2.94437 62.6742 4.30122C61.6247 5.58109 60.7917 7.0242 60.2085 8.57326H58.8279L59.6708 0.110255H80.7174V0.864986L63.0439 28.2463H69.7089C70.8332 28.2463 72.0219 28.1498 73.2894 27.9971C74.5592 27.8207 75.3783 27.5393 75.7634 27.122C76.6219 26.2468 77.4171 25.1785 78.1647 23.9266C78.9039 22.6651 79.4488 21.542 79.8029 20.5691H81.192L81.1824 20.5631ZM137.005 29.8941H124.55V28.4001C124.895 28.3679 125.409 28.3203 126.068 28.2714C126.726 28.2237 127.2 28.1271 127.473 28.0222C127.898 27.8302 128.212 27.5894 128.404 27.2674C128.597 26.9539 128.694 26.5127 128.694 25.9511V4.42164C128.694 3.92445 128.621 3.52264 128.477 3.19356C128.332 2.85614 127.995 2.5831 127.464 2.35895C126.988 2.16161 126.497 2.00291 125.995 1.88441C125.402 1.74014 124.919 1.65191 124.542 1.62806V0.110255H136.997V1.61972C136.587 1.63522 136.113 1.6841 135.552 1.77233C134.997 1.86772 134.507 1.98099 134.09 2.1181C133.6 2.28502 133.271 2.5676 133.094 2.93602C132.93 3.33593 132.848 3.76505 132.853 4.19749V25.7258C132.853 26.1908 132.942 26.6009 133.134 26.9622C133.327 27.308 133.64 27.6061 134.097 27.8135C134.37 27.9268 134.821 28.046 135.438 28.1831C136.057 28.3119 136.587 28.3918 137.012 28.4085V29.9013L137.005 29.8941ZM122.267 20.5631L121.351 29.8929H99.1398V29.1632L116.534 1.78783H110.167C109.42 1.78783 108.801 1.80452 108.304 1.82837C107.805 1.85222 107.348 1.90826 106.939 2.00483C106.072 2.17414 105.107 2.94437 104.04 4.30122C102.972 5.65091 102.161 7.07929 101.615 8.57326H100.257L101.084 0.110255H121.802V0.864986L104.4 28.2463H110.969C112.068 28.2463 113.25 28.1498 114.493 27.9971C115.746 27.8207 116.557 27.5393 116.935 27.122C117.786 26.2468 118.565 25.1785 119.287 23.9266C120.018 22.6651 120.556 21.542 120.902 20.5691H122.267V20.5631ZM26.6045 0.0959473H0.989014V3.59656H26.6045V0.0959473ZM26.6045 6.67272H0.989014V10.1733H26.6045V6.67272ZM26.6045 13.2483H0.989014V16.7501H26.6045V13.2483ZM26.6045 19.8251H0.989014V23.3257H26.6045V19.8251ZM26.6045 26.4018H0.989014V29.9024H26.6045V26.4018Z" fill="#2C2A29"/>
</g>
</g>
</svg>
