<!-- delete later -->

<svg width="752" height="333" viewBox="0 0 752 333" fill="none" xmlns="http://www.w3.org/2000/svg">
<g clip-path="url(#clip0_961_9470)">
<path d="M72.8815 0H71.9456V293.542H72.8815V0Z" fill="#D5D5D5"/>
<path d="M744.636 71.5254H72.8902V72.4613H744.636V71.5254Z" fill="#D5D5D5"/>
<path d="M744.636 126.754H72.8902V127.69H744.636V126.754Z" fill="#D5D5D5"/>
<path d="M744.636 182.061H72.8902V182.996H744.636V182.061Z" fill="#D5D5D5"/>
<path d="M744.636 237.299H72.8902V238.235H744.636V237.299Z" fill="#D5D5D5"/>
<path d="M744.636 292.537H72.8902V293.552H744.636V292.537Z" fill="#D5D5D5"/>
<path d="M207.248 0H206.312V293.542H207.248V0Z" fill="#D5D5D5"/>
<path d="M341.615 0H340.679V293.542H341.615V0Z" fill="#D5D5D5"/>
<path d="M475.973 0H474.967V293.542H475.973V0Z" fill="#D5D5D5"/>
<path d="M610.269 0H609.333V293.542H610.269V0Z" fill="#D5D5D5"/>
<path d="M72.8902 292.467L207.248 236.224L319.548 130.577L475.002 159.319L609.333 71.5254L744.627 181.922" stroke="#A4CD3C" stroke-width="1.42" stroke-miterlimit="10"/>
<path fill-rule="evenodd" clip-rule="evenodd" d="M205.088 229.891C209.12 229.891 212.365 233.197 212.365 237.229C212.365 241.262 209.12 244.507 205.088 244.507C201.056 244.507 197.811 241.271 197.811 237.229C197.811 233.188 201.047 229.891 205.088 229.891Z" fill="#A4CD3C" stroke="#FEFEFE" stroke-width="0.23" stroke-miterlimit="10"/>
<path fill-rule="evenodd" clip-rule="evenodd" d="M75.1904 284.252C79.2224 284.252 82.4672 287.497 82.4672 291.53C82.4672 295.562 79.2311 298.807 75.1904 298.807C71.1497 298.807 67.9136 295.571 67.9136 291.53C67.9136 287.488 71.1497 284.252 75.1904 284.252Z" fill="#A4CD3C" stroke="#FEFEFE" stroke-width="0.23" stroke-miterlimit="10"/>
<path fill-rule="evenodd" clip-rule="evenodd" d="M319.636 123.299C323.598 123.299 326.904 126.535 326.904 130.576C326.904 134.617 323.589 137.845 319.636 137.845C315.682 137.845 312.289 134.609 312.289 130.576C312.289 126.544 315.604 123.299 319.636 123.299Z" fill="#A4CD3C" stroke="#FEFEFE" stroke-width="0.23" stroke-miterlimit="10"/>
<path fill-rule="evenodd" clip-rule="evenodd" d="M475.938 151C479.97 151 483.284 154.236 483.284 158.269C483.284 162.301 479.97 165.546 475.938 165.546C471.906 165.546 468.661 162.31 468.661 158.269C468.661 154.228 471.897 151 475.938 151Z" fill="#A4CD3C" stroke="#FEFEFE" stroke-width="0.23" stroke-miterlimit="10"/>
<path fill-rule="evenodd" clip-rule="evenodd" d="M610.269 68.209C614.31 68.209 617.546 71.4454 617.546 75.4865C617.546 79.5277 614.31 82.7641 610.269 82.7641C606.229 82.7641 602.992 79.5277 602.992 75.4865C602.992 71.4454 606.237 68.209 610.269 68.209Z" fill="#A4CD3C" stroke="#FEFEFE" stroke-width="0.23" stroke-miterlimit="10"/>
<path fill-rule="evenodd" clip-rule="evenodd" d="M744.627 173.717C748.659 173.717 751.904 176.953 751.904 180.986C751.904 185.018 748.668 188.263 744.627 188.263C740.586 188.263 737.359 185.027 737.359 180.986C737.359 176.944 740.595 173.717 744.627 173.717Z" fill="#A4CD3C" stroke="#FEFEFE" stroke-width="0.23" stroke-miterlimit="10"/>
<path d="M27.4 238.16V237.64L31.11 233H31.91L28.23 237.64L27.84 237.52H33.47V238.16H27.4ZM31.35 240V238.16L31.37 237.52V235.9H32.07V240H31.35ZM36.9213 240.06C36.3813 240.06 35.9013 239.92 35.4813 239.64C35.0613 239.353 34.7313 238.947 34.4913 238.42C34.2513 237.887 34.1313 237.247 34.1313 236.5C34.1313 235.753 34.2513 235.117 34.4913 234.59C34.7313 234.057 35.0613 233.65 35.4813 233.37C35.9013 233.083 36.3813 232.94 36.9213 232.94C37.4613 232.94 37.9413 233.083 38.3613 233.37C38.7813 233.65 39.1113 234.057 39.3513 234.59C39.598 235.117 39.7213 235.753 39.7213 236.5C39.7213 237.247 39.598 237.887 39.3513 238.42C39.1113 238.947 38.7813 239.353 38.3613 239.64C37.9413 239.92 37.4613 240.06 36.9213 240.06ZM36.9213 239.4C37.3347 239.4 37.6947 239.29 38.0013 239.07C38.308 238.843 38.548 238.517 38.7213 238.09C38.8947 237.657 38.9813 237.127 38.9813 236.5C38.9813 235.873 38.8947 235.347 38.7213 234.92C38.548 234.487 38.308 234.16 38.0013 233.94C37.6947 233.713 37.3347 233.6 36.9213 233.6C36.5213 233.6 36.1647 233.713 35.8513 233.94C35.538 234.16 35.2947 234.487 35.1213 234.92C34.948 235.347 34.8613 235.873 34.8613 236.5C34.8613 237.127 34.948 237.657 35.1213 238.09C35.2947 238.517 35.538 238.843 35.8513 239.07C36.1647 239.29 36.5213 239.4 36.9213 239.4ZM43.5424 240.06C43.0024 240.06 42.5224 239.92 42.1024 239.64C41.6824 239.353 41.3524 238.947 41.1124 238.42C40.8724 237.887 40.7524 237.247 40.7524 236.5C40.7524 235.753 40.8724 235.117 41.1124 234.59C41.3524 234.057 41.6824 233.65 42.1024 233.37C42.5224 233.083 43.0024 232.94 43.5424 232.94C44.0824 232.94 44.5624 233.083 44.9824 233.37C45.4024 233.65 45.7324 234.057 45.9724 234.59C46.2191 235.117 46.3424 235.753 46.3424 236.5C46.3424 237.247 46.2191 237.887 45.9724 238.42C45.7324 238.947 45.4024 239.353 44.9824 239.64C44.5624 239.92 44.0824 240.06 43.5424 240.06ZM43.5424 239.4C43.9558 239.4 44.3158 239.29 44.6224 239.07C44.9291 238.843 45.1691 238.517 45.3424 238.09C45.5158 237.657 45.6024 237.127 45.6024 236.5C45.6024 235.873 45.5158 235.347 45.3424 234.92C45.1691 234.487 44.9291 234.16 44.6224 233.94C44.3158 233.713 43.9558 233.6 43.5424 233.6C43.1424 233.6 42.7858 233.713 42.4724 233.94C42.1591 234.16 41.9158 234.487 41.7424 234.92C41.5691 235.347 41.4824 235.873 41.4824 236.5C41.4824 237.127 41.5691 237.657 41.7424 238.09C41.9158 238.517 42.1591 238.843 42.4724 239.07C42.7858 239.29 43.1424 239.4 43.5424 239.4ZM47.3061 241.46L47.7461 239.61L47.8261 240.04C47.6728 240.04 47.5428 239.99 47.4361 239.89C47.3361 239.79 47.2861 239.66 47.2861 239.5C47.2861 239.34 47.3361 239.21 47.4361 239.11C47.5428 239.01 47.6694 238.96 47.8161 238.96C47.9694 238.96 48.0928 239.013 48.1861 239.12C48.2861 239.227 48.3361 239.353 48.3361 239.5C48.3361 239.553 48.3328 239.607 48.3261 239.66C48.3194 239.713 48.3061 239.773 48.2861 239.84C48.2661 239.907 48.2394 239.987 48.2061 240.08L47.7861 241.46H47.3061ZM52.0678 240.06C51.5278 240.06 51.0478 239.92 50.6278 239.64C50.2078 239.353 49.8778 238.947 49.6378 238.42C49.3978 237.887 49.2778 237.247 49.2778 236.5C49.2778 235.753 49.3978 235.117 49.6378 234.59C49.8778 234.057 50.2078 233.65 50.6278 233.37C51.0478 233.083 51.5278 232.94 52.0678 232.94C52.6078 232.94 53.0878 233.083 53.5078 233.37C53.9278 233.65 54.2578 234.057 54.4978 234.59C54.7445 235.117 54.8678 235.753 54.8678 236.5C54.8678 237.247 54.7445 237.887 54.4978 238.42C54.2578 238.947 53.9278 239.353 53.5078 239.64C53.0878 239.92 52.6078 240.06 52.0678 240.06ZM52.0678 239.4C52.4811 239.4 52.8411 239.29 53.1478 239.07C53.4545 238.843 53.6945 238.517 53.8678 238.09C54.0411 237.657 54.1278 237.127 54.1278 236.5C54.1278 235.873 54.0411 235.347 53.8678 234.92C53.6945 234.487 53.4545 234.16 53.1478 233.94C52.8411 233.713 52.4811 233.6 52.0678 233.6C51.6678 233.6 51.3111 233.713 50.9978 233.94C50.6845 234.16 50.4411 234.487 50.2678 234.92C50.0945 235.347 50.0078 235.873 50.0078 236.5C50.0078 237.127 50.0945 237.657 50.2678 238.09C50.4411 238.517 50.6845 238.843 50.9978 239.07C51.3111 239.29 51.6678 239.4 52.0678 239.4ZM58.6889 240.06C58.1489 240.06 57.6689 239.92 57.2489 239.64C56.8289 239.353 56.4989 238.947 56.2589 238.42C56.0189 237.887 55.8989 237.247 55.8989 236.5C55.8989 235.753 56.0189 235.117 56.2589 234.59C56.4989 234.057 56.8289 233.65 57.2489 233.37C57.6689 233.083 58.1489 232.94 58.6889 232.94C59.2289 232.94 59.7089 233.083 60.1289 233.37C60.5489 233.65 60.8789 234.057 61.1189 234.59C61.3656 235.117 61.4889 235.753 61.4889 236.5C61.4889 237.247 61.3656 237.887 61.1189 238.42C60.8789 238.947 60.5489 239.353 60.1289 239.64C59.7089 239.92 59.2289 240.06 58.6889 240.06ZM58.6889 239.4C59.1022 239.4 59.4622 239.29 59.7689 239.07C60.0756 238.843 60.3156 238.517 60.4889 238.09C60.6622 237.657 60.7489 237.127 60.7489 236.5C60.7489 235.873 60.6622 235.347 60.4889 234.92C60.3156 234.487 60.0756 234.16 59.7689 233.94C59.4622 233.713 59.1022 233.6 58.6889 233.6C58.2889 233.6 57.9322 233.713 57.6189 233.94C57.3056 234.16 57.0622 234.487 56.8889 234.92C56.7156 235.347 56.6289 235.873 56.6289 236.5C56.6289 237.127 56.7156 237.657 56.8889 238.09C57.0622 238.517 57.3056 238.843 57.6189 239.07C57.9322 239.29 58.2889 239.4 58.6889 239.4ZM65.31 240.06C64.77 240.06 64.29 239.92 63.87 239.64C63.45 239.353 63.12 238.947 62.88 238.42C62.64 237.887 62.52 237.247 62.52 236.5C62.52 235.753 62.64 235.117 62.88 234.59C63.12 234.057 63.45 233.65 63.87 233.37C64.29 233.083 64.77 232.94 65.31 232.94C65.85 232.94 66.33 233.083 66.75 233.37C67.17 233.65 67.5 234.057 67.74 234.59C67.9867 235.117 68.11 235.753 68.11 236.5C68.11 237.247 67.9867 237.887 67.74 238.42C67.5 238.947 67.17 239.353 66.75 239.64C66.33 239.92 65.85 240.06 65.31 240.06ZM65.31 239.4C65.7233 239.4 66.0833 239.29 66.39 239.07C66.6967 238.843 66.9367 238.517 67.11 238.09C67.2833 237.657 67.37 237.127 67.37 236.5C67.37 235.873 67.2833 235.347 67.11 234.92C66.9367 234.487 66.6967 234.16 66.39 233.94C66.0833 233.713 65.7233 233.6 65.31 233.6C64.91 233.6 64.5533 233.713 64.24 233.94C63.9267 234.16 63.6833 234.487 63.51 234.92C63.3367 235.347 63.25 235.873 63.25 236.5C63.25 237.127 63.3367 237.657 63.51 238.09C63.6833 238.517 63.9267 238.843 64.24 239.07C64.5533 239.29 64.91 239.4 65.31 239.4Z" fill="#7A7A7A"/>
<path d="M109.952 312.084L109.88 311.256L110.6 311.208C111.008 311.176 111.32 311.036 111.536 310.788C111.752 310.532 111.86 310.184 111.86 309.744V303.54H112.844V309.756C112.844 310.452 112.664 310.996 112.304 311.388C111.944 311.772 111.42 311.988 110.732 312.036L109.952 312.084ZM116.699 312.108C116.299 312.108 115.939 312.032 115.619 311.88C115.307 311.72 115.059 311.504 114.875 311.232C114.691 310.96 114.599 310.656 114.599 310.32C114.599 309.896 114.707 309.56 114.923 309.312C115.147 309.064 115.511 308.888 116.015 308.784C116.527 308.672 117.223 308.616 118.103 308.616H118.487V308.244C118.487 307.748 118.383 307.392 118.175 307.176C117.975 306.952 117.651 306.84 117.203 306.84C116.851 306.84 116.511 306.892 116.183 306.996C115.855 307.092 115.519 307.252 115.175 307.476L114.839 306.768C115.143 306.552 115.511 306.38 115.943 306.252C116.383 306.124 116.803 306.06 117.203 306.06C117.955 306.06 118.511 306.244 118.871 306.612C119.239 306.98 119.423 307.552 119.423 308.328V312H118.511V310.992C118.359 311.336 118.123 311.608 117.803 311.808C117.491 312.008 117.123 312.108 116.699 312.108ZM116.855 311.376C117.335 311.376 117.727 311.212 118.031 310.884C118.335 310.548 118.487 310.124 118.487 309.612V309.252H118.115C117.467 309.252 116.955 309.284 116.579 309.348C116.211 309.404 115.951 309.508 115.799 309.66C115.655 309.804 115.583 310.004 115.583 310.26C115.583 310.588 115.695 310.856 115.919 311.064C116.151 311.272 116.463 311.376 116.855 311.376ZM121.286 312V306.168H122.234V307.164C122.426 306.796 122.698 306.52 123.05 306.336C123.402 306.152 123.798 306.06 124.238 306.06C125.622 306.06 126.314 306.828 126.314 308.364V312H125.342V308.424C125.342 307.88 125.234 307.484 125.018 307.236C124.81 306.98 124.474 306.852 124.01 306.852C123.474 306.852 123.046 307.02 122.726 307.356C122.414 307.684 122.258 308.124 122.258 308.676V312H121.286ZM131.476 312V311.256L134.368 308.136C134.776 307.688 135.068 307.28 135.244 306.912C135.428 306.544 135.52 306.168 135.52 305.784C135.52 304.8 134.948 304.308 133.804 304.308C132.948 304.308 132.192 304.628 131.536 305.268L131.164 304.5C131.476 304.18 131.872 303.924 132.352 303.732C132.84 303.532 133.352 303.432 133.888 303.432C134.736 303.432 135.384 303.632 135.832 304.032C136.288 304.424 136.516 304.984 136.516 305.712C136.516 306.216 136.392 306.712 136.144 307.2C135.896 307.68 135.516 308.192 135.004 308.736L132.736 311.16H136.864V312H131.476ZM142.176 312V310.188H138.276V309.444L142.344 303.54H143.172V309.348H144.432V310.188H143.172V312H142.176ZM142.176 309.348V305.16L139.296 309.348H142.176Z" fill="#7A7A7A"/>
<path d="M252.044 312V303.54H257.276V304.368H253.028V307.32H257.036V308.148H253.028V312H252.044ZM260.952 312.108C260.032 312.108 259.304 311.84 258.768 311.304C258.232 310.76 257.964 310.024 257.964 309.096C257.964 308.496 258.084 307.968 258.324 307.512C258.564 307.048 258.892 306.692 259.308 306.444C259.732 306.188 260.22 306.06 260.772 306.06C261.564 306.06 262.184 306.316 262.632 306.828C263.08 307.332 263.304 308.028 263.304 308.916V309.288H258.912C258.944 309.952 259.136 310.46 259.488 310.812C259.84 311.156 260.328 311.328 260.952 311.328C261.304 311.328 261.64 311.276 261.96 311.172C262.28 311.06 262.584 310.88 262.872 310.632L263.208 311.316C262.944 311.564 262.608 311.76 262.2 311.904C261.792 312.04 261.376 312.108 260.952 312.108ZM260.796 306.78C260.244 306.78 259.808 306.952 259.488 307.296C259.168 307.64 258.98 308.092 258.924 308.652H262.464C262.44 308.06 262.284 307.6 261.996 307.272C261.716 306.944 261.316 306.78 260.796 306.78ZM267.722 312.108C267.258 312.108 266.85 312.004 266.498 311.796C266.154 311.588 265.894 311.304 265.718 310.944V312H264.77V303.54H265.742V307.176C265.91 306.832 266.17 306.56 266.522 306.36C266.874 306.16 267.274 306.06 267.722 306.06C268.242 306.06 268.694 306.184 269.078 306.432C269.47 306.672 269.77 307.02 269.978 307.476C270.194 307.924 270.302 308.46 270.302 309.084C270.302 309.7 270.194 310.236 269.978 310.692C269.77 311.14 269.47 311.488 269.078 311.736C268.694 311.984 268.242 312.108 267.722 312.108ZM267.518 311.328C268.062 311.328 268.498 311.136 268.826 310.752C269.154 310.36 269.318 309.804 269.318 309.084C269.318 308.356 269.154 307.8 268.826 307.416C268.498 307.032 268.062 306.84 267.518 306.84C266.974 306.84 266.538 307.032 266.21 307.416C265.882 307.8 265.718 308.356 265.718 309.084C265.718 309.804 265.882 310.36 266.21 310.752C266.538 311.136 266.974 311.328 267.518 311.328ZM275.136 312V311.256L278.028 308.136C278.436 307.688 278.728 307.28 278.904 306.912C279.088 306.544 279.18 306.168 279.18 305.784C279.18 304.8 278.608 304.308 277.464 304.308C276.608 304.308 275.852 304.628 275.196 305.268L274.824 304.5C275.136 304.18 275.532 303.924 276.012 303.732C276.5 303.532 277.012 303.432 277.548 303.432C278.396 303.432 279.044 303.632 279.492 304.032C279.948 304.424 280.176 304.984 280.176 305.712C280.176 306.216 280.052 306.712 279.804 307.2C279.556 307.68 279.176 308.192 278.664 308.736L276.396 311.16H280.524V312H275.136ZM285.836 312V310.188H281.936V309.444L286.004 303.54H286.832V309.348H288.092V310.188H286.832V312H285.836ZM285.836 309.348V305.16L282.956 309.348H285.836Z" fill="#7A7A7A"/>
<path d="M382.068 312V303.54H382.896L386.148 309.648L389.376 303.54H390.204V312H389.292V305.388L386.472 310.692H385.824L382.968 305.4V312H382.068ZM394.074 312.108C393.674 312.108 393.314 312.032 392.994 311.88C392.682 311.72 392.434 311.504 392.25 311.232C392.066 310.96 391.974 310.656 391.974 310.32C391.974 309.896 392.082 309.56 392.298 309.312C392.522 309.064 392.886 308.888 393.39 308.784C393.902 308.672 394.598 308.616 395.478 308.616H395.862V308.244C395.862 307.748 395.758 307.392 395.55 307.176C395.35 306.952 395.026 306.84 394.578 306.84C394.226 306.84 393.886 306.892 393.558 306.996C393.23 307.092 392.894 307.252 392.55 307.476L392.214 306.768C392.518 306.552 392.886 306.38 393.318 306.252C393.758 306.124 394.178 306.06 394.578 306.06C395.33 306.06 395.886 306.244 396.246 306.612C396.614 306.98 396.798 307.552 396.798 308.328V312H395.886V310.992C395.734 311.336 395.498 311.608 395.178 311.808C394.866 312.008 394.498 312.108 394.074 312.108ZM394.23 311.376C394.71 311.376 395.102 311.212 395.406 310.884C395.71 310.548 395.862 310.124 395.862 309.612V309.252H395.49C394.842 309.252 394.33 309.284 393.954 309.348C393.586 309.404 393.326 309.508 393.174 309.66C393.03 309.804 392.958 310.004 392.958 310.26C392.958 310.588 393.07 310.856 393.294 311.064C393.526 311.272 393.838 311.376 394.23 311.376ZM398.661 312V306.168H399.609V307.212C399.921 306.508 400.561 306.12 401.529 306.048L401.877 306.012L401.949 306.852L401.337 306.924C400.785 306.972 400.365 307.148 400.077 307.452C399.789 307.748 399.645 308.156 399.645 308.676V312H398.661ZM406.332 312V311.256L409.224 308.136C409.632 307.688 409.924 307.28 410.1 306.912C410.284 306.544 410.376 306.168 410.376 305.784C410.376 304.8 409.804 304.308 408.66 304.308C407.804 304.308 407.048 304.628 406.392 305.268L406.02 304.5C406.332 304.18 406.728 303.924 407.208 303.732C407.696 303.532 408.208 303.432 408.744 303.432C409.592 303.432 410.24 303.632 410.688 304.032C411.144 304.424 411.372 304.984 411.372 305.712C411.372 306.216 411.248 306.712 411 307.2C410.752 307.68 410.372 308.192 409.86 308.736L407.592 311.16H411.72V312H406.332ZM417.031 312V310.188H413.131V309.444L417.199 303.54H418.027V309.348H419.287V310.188H418.027V312H417.031ZM417.031 309.348V305.16L414.151 309.348H417.031Z" fill="#7A7A7A"/>
<path d="M531.228 312L534.96 303.54H535.8L539.532 312H538.512L537.576 309.84H533.172L532.248 312H531.228ZM535.368 304.692L533.532 309.012H537.228L535.392 304.692H535.368ZM540.714 314.16V306.168H541.662V307.212C541.838 306.852 542.098 306.572 542.442 306.372C542.794 306.164 543.202 306.06 543.666 306.06C544.186 306.06 544.638 306.184 545.022 306.432C545.414 306.672 545.714 307.02 545.922 307.476C546.138 307.924 546.246 308.46 546.246 309.084C546.246 309.7 546.138 310.236 545.922 310.692C545.714 311.14 545.414 311.488 545.022 311.736C544.638 311.984 544.186 312.108 543.666 312.108C543.218 312.108 542.818 312.008 542.466 311.808C542.114 311.608 541.854 311.332 541.686 310.98V314.16H540.714ZM543.462 311.328C544.006 311.328 544.442 311.136 544.77 310.752C545.098 310.36 545.262 309.804 545.262 309.084C545.262 308.356 545.098 307.8 544.77 307.416C544.442 307.032 544.006 306.84 543.462 306.84C542.918 306.84 542.482 307.032 542.154 307.416C541.826 307.8 541.662 308.356 541.662 309.084C541.662 309.804 541.826 310.36 542.154 310.752C542.482 311.136 542.918 311.328 543.462 311.328ZM547.77 312V306.168H548.718V307.212C549.03 306.508 549.67 306.12 550.638 306.048L550.986 306.012L551.058 306.852L550.446 306.924C549.894 306.972 549.474 307.148 549.186 307.452C548.898 307.748 548.754 308.156 548.754 308.676V312H547.77ZM555.441 312V311.256L558.333 308.136C558.741 307.688 559.033 307.28 559.209 306.912C559.393 306.544 559.485 306.168 559.485 305.784C559.485 304.8 558.913 304.308 557.769 304.308C556.913 304.308 556.157 304.628 555.501 305.268L555.129 304.5C555.441 304.18 555.837 303.924 556.317 303.732C556.805 303.532 557.317 303.432 557.853 303.432C558.701 303.432 559.349 303.632 559.797 304.032C560.253 304.424 560.481 304.984 560.481 305.712C560.481 306.216 560.357 306.712 560.109 307.2C559.861 307.68 559.481 308.192 558.969 308.736L556.701 311.16H560.829V312H555.441ZM566.14 312V310.188H562.24V309.444L566.308 303.54H567.136V309.348H568.396V310.188H567.136V312H566.14ZM566.14 309.348V305.16L563.26 309.348H566.14Z" fill="#7A7A7A"/>
<path d="M670.068 312V303.54H670.896L674.148 309.648L677.376 303.54H678.204V312H677.292V305.388L674.472 310.692H673.824L670.968 305.4V312H670.068ZM682.074 312.108C681.674 312.108 681.314 312.032 680.994 311.88C680.682 311.72 680.434 311.504 680.25 311.232C680.066 310.96 679.974 310.656 679.974 310.32C679.974 309.896 680.082 309.56 680.298 309.312C680.522 309.064 680.886 308.888 681.39 308.784C681.902 308.672 682.598 308.616 683.478 308.616H683.862V308.244C683.862 307.748 683.758 307.392 683.55 307.176C683.35 306.952 683.026 306.84 682.578 306.84C682.226 306.84 681.886 306.892 681.558 306.996C681.23 307.092 680.894 307.252 680.55 307.476L680.214 306.768C680.518 306.552 680.886 306.38 681.318 306.252C681.758 306.124 682.178 306.06 682.578 306.06C683.33 306.06 683.886 306.244 684.246 306.612C684.614 306.98 684.798 307.552 684.798 308.328V312H683.886V310.992C683.734 311.336 683.498 311.608 683.178 311.808C682.866 312.008 682.498 312.108 682.074 312.108ZM682.23 311.376C682.71 311.376 683.102 311.212 683.406 310.884C683.71 310.548 683.862 310.124 683.862 309.612V309.252H683.49C682.842 309.252 682.33 309.284 681.954 309.348C681.586 309.404 681.326 309.508 681.174 309.66C681.03 309.804 680.958 310.004 680.958 310.26C680.958 310.588 681.07 310.856 681.294 311.064C681.526 311.272 681.838 311.376 682.23 311.376ZM687.274 314.16L688.27 311.904L685.81 306.168H686.866L688.798 310.896L690.742 306.168H691.762L688.294 314.16H687.274ZM696.136 312V311.256L699.028 308.136C699.436 307.688 699.728 307.28 699.904 306.912C700.088 306.544 700.18 306.168 700.18 305.784C700.18 304.8 699.608 304.308 698.464 304.308C697.608 304.308 696.852 304.628 696.196 305.268L695.824 304.5C696.136 304.18 696.532 303.924 697.012 303.732C697.5 303.532 698.012 303.432 698.548 303.432C699.396 303.432 700.044 303.632 700.492 304.032C700.948 304.424 701.176 304.984 701.176 305.712C701.176 306.216 701.052 306.712 700.804 307.2C700.556 307.68 700.176 308.192 699.664 308.736L697.396 311.16H701.524V312H696.136ZM706.836 312V310.188H702.936V309.444L707.004 303.54H707.832V309.348H709.092V310.188H707.832V312H706.836ZM706.836 309.348V305.16L703.956 309.348H706.836Z" fill="#7A7A7A"/>
<path d="M30.39 185.06C29.77 185.06 29.2467 184.923 28.82 184.65C28.3933 184.37 28.07 183.97 27.85 183.45C27.63 182.923 27.52 182.293 27.52 181.56C27.52 180.767 27.6533 180.103 27.92 179.57C28.1933 179.03 28.57 178.623 29.05 178.35C29.53 178.077 30.0867 177.94 30.72 177.94C31.0333 177.94 31.3333 177.97 31.62 178.03C31.9067 178.09 32.16 178.187 32.38 178.32L32.09 178.9C31.91 178.78 31.7033 178.697 31.47 178.65C31.2367 178.597 30.99 178.57 30.73 178.57C29.9767 178.57 29.3733 178.81 28.92 179.29C28.4733 179.77 28.25 180.487 28.25 181.44C28.25 181.587 28.2567 181.77 28.27 181.99C28.29 182.203 28.33 182.417 28.39 182.63L28.14 182.44C28.2133 182.093 28.3567 181.8 28.57 181.56C28.7833 181.313 29.05 181.127 29.37 181C29.69 180.873 30.04 180.81 30.42 180.81C30.8867 180.81 31.2967 180.897 31.65 181.07C32.0033 181.243 32.28 181.487 32.48 181.8C32.68 182.113 32.78 182.483 32.78 182.91C32.78 183.343 32.6767 183.723 32.47 184.05C32.2633 184.37 31.9767 184.62 31.61 184.8C31.25 184.973 30.8433 185.06 30.39 185.06ZM30.36 184.45C30.6933 184.45 30.9867 184.39 31.24 184.27C31.5 184.143 31.7033 183.967 31.85 183.74C31.9967 183.507 32.07 183.237 32.07 182.93C32.07 182.47 31.91 182.103 31.59 181.83C31.2767 181.557 30.85 181.42 30.31 181.42C29.95 181.42 29.6367 181.487 29.37 181.62C29.1033 181.753 28.8933 181.937 28.74 182.17C28.5867 182.397 28.51 182.657 28.51 182.95C28.51 183.203 28.58 183.447 28.72 183.68C28.86 183.907 29.0667 184.093 29.34 184.24C29.62 184.38 29.96 184.45 30.36 184.45ZM36.4038 185.06C35.8638 185.06 35.3838 184.92 34.9638 184.64C34.5438 184.353 34.2138 183.947 33.9738 183.42C33.7338 182.887 33.6138 182.247 33.6138 181.5C33.6138 180.753 33.7338 180.117 33.9738 179.59C34.2138 179.057 34.5438 178.65 34.9638 178.37C35.3838 178.083 35.8638 177.94 36.4038 177.94C36.9438 177.94 37.4238 178.083 37.8438 178.37C38.2638 178.65 38.5938 179.057 38.8338 179.59C39.0804 180.117 39.2038 180.753 39.2038 181.5C39.2038 182.247 39.0804 182.887 38.8338 183.42C38.5938 183.947 38.2638 184.353 37.8438 184.64C37.4238 184.92 36.9438 185.06 36.4038 185.06ZM36.4038 184.4C36.8171 184.4 37.1771 184.29 37.4838 184.07C37.7904 183.843 38.0304 183.517 38.2038 183.09C38.3771 182.657 38.4638 182.127 38.4638 181.5C38.4638 180.873 38.3771 180.347 38.2038 179.92C38.0304 179.487 37.7904 179.16 37.4838 178.94C37.1771 178.713 36.8171 178.6 36.4038 178.6C36.0038 178.6 35.6471 178.713 35.3338 178.94C35.0204 179.16 34.7771 179.487 34.6038 179.92C34.4304 180.347 34.3438 180.873 34.3438 181.5C34.3438 182.127 34.4304 182.657 34.6038 183.09C34.7771 183.517 35.0204 183.843 35.3338 184.07C35.6471 184.29 36.0038 184.4 36.4038 184.4ZM43.0248 185.06C42.4848 185.06 42.0048 184.92 41.5848 184.64C41.1648 184.353 40.8348 183.947 40.5948 183.42C40.3548 182.887 40.2348 182.247 40.2348 181.5C40.2348 180.753 40.3548 180.117 40.5948 179.59C40.8348 179.057 41.1648 178.65 41.5848 178.37C42.0048 178.083 42.4848 177.94 43.0248 177.94C43.5648 177.94 44.0448 178.083 44.4648 178.37C44.8848 178.65 45.2148 179.057 45.4548 179.59C45.7015 180.117 45.8248 180.753 45.8248 181.5C45.8248 182.247 45.7015 182.887 45.4548 183.42C45.2148 183.947 44.8848 184.353 44.4648 184.64C44.0448 184.92 43.5648 185.06 43.0248 185.06ZM43.0248 184.4C43.4382 184.4 43.7982 184.29 44.1048 184.07C44.4115 183.843 44.6515 183.517 44.8248 183.09C44.9982 182.657 45.0848 182.127 45.0848 181.5C45.0848 180.873 44.9982 180.347 44.8248 179.92C44.6515 179.487 44.4115 179.16 44.1048 178.94C43.7982 178.713 43.4382 178.6 43.0248 178.6C42.6248 178.6 42.2682 178.713 41.9548 178.94C41.6415 179.16 41.3982 179.487 41.2248 179.92C41.0515 180.347 40.9648 180.873 40.9648 181.5C40.9648 182.127 41.0515 182.657 41.2248 183.09C41.3982 183.517 41.6415 183.843 41.9548 184.07C42.2682 184.29 42.6248 184.4 43.0248 184.4ZM46.7885 186.46L47.2285 184.61L47.3085 185.04C47.1552 185.04 47.0252 184.99 46.9185 184.89C46.8185 184.79 46.7685 184.66 46.7685 184.5C46.7685 184.34 46.8185 184.21 46.9185 184.11C47.0252 184.01 47.1518 183.96 47.2985 183.96C47.4518 183.96 47.5752 184.013 47.6685 184.12C47.7685 184.227 47.8185 184.353 47.8185 184.5C47.8185 184.553 47.8152 184.607 47.8085 184.66C47.8018 184.713 47.7885 184.773 47.7685 184.84C47.7485 184.907 47.7218 184.987 47.6885 185.08L47.2685 186.46H46.7885ZM51.5502 185.06C51.0102 185.06 50.5302 184.92 50.1102 184.64C49.6902 184.353 49.3602 183.947 49.1202 183.42C48.8802 182.887 48.7602 182.247 48.7602 181.5C48.7602 180.753 48.8802 180.117 49.1202 179.59C49.3602 179.057 49.6902 178.65 50.1102 178.37C50.5302 178.083 51.0102 177.94 51.5502 177.94C52.0902 177.94 52.5702 178.083 52.9902 178.37C53.4102 178.65 53.7402 179.057 53.9802 179.59C54.2269 180.117 54.3502 180.753 54.3502 181.5C54.3502 182.247 54.2269 182.887 53.9802 183.42C53.7402 183.947 53.4102 184.353 52.9902 184.64C52.5702 184.92 52.0902 185.06 51.5502 185.06ZM51.5502 184.4C51.9636 184.4 52.3236 184.29 52.6302 184.07C52.9369 183.843 53.1769 183.517 53.3502 183.09C53.5236 182.657 53.6102 182.127 53.6102 181.5C53.6102 180.873 53.5236 180.347 53.3502 179.92C53.1769 179.487 52.9369 179.16 52.6302 178.94C52.3236 178.713 51.9636 178.6 51.5502 178.6C51.1502 178.6 50.7936 178.713 50.4802 178.94C50.1669 179.16 49.9236 179.487 49.7502 179.92C49.5769 180.347 49.4902 180.873 49.4902 181.5C49.4902 182.127 49.5769 182.657 49.7502 183.09C49.9236 183.517 50.1669 183.843 50.4802 184.07C50.7936 184.29 51.1502 184.4 51.5502 184.4ZM58.1713 185.06C57.6313 185.06 57.1513 184.92 56.7313 184.64C56.3113 184.353 55.9813 183.947 55.7413 183.42C55.5013 182.887 55.3813 182.247 55.3813 181.5C55.3813 180.753 55.5013 180.117 55.7413 179.59C55.9813 179.057 56.3113 178.65 56.7313 178.37C57.1513 178.083 57.6313 177.94 58.1713 177.94C58.7113 177.94 59.1913 178.083 59.6113 178.37C60.0313 178.65 60.3613 179.057 60.6013 179.59C60.848 180.117 60.9713 180.753 60.9713 181.5C60.9713 182.247 60.848 182.887 60.6013 183.42C60.3613 183.947 60.0313 184.353 59.6113 184.64C59.1913 184.92 58.7113 185.06 58.1713 185.06ZM58.1713 184.4C58.5847 184.4 58.9447 184.29 59.2513 184.07C59.558 183.843 59.798 183.517 59.9713 183.09C60.1447 182.657 60.2313 182.127 60.2313 181.5C60.2313 180.873 60.1447 180.347 59.9713 179.92C59.798 179.487 59.558 179.16 59.2513 178.94C58.9447 178.713 58.5847 178.6 58.1713 178.6C57.7713 178.6 57.4147 178.713 57.1013 178.94C56.788 179.16 56.5447 179.487 56.3713 179.92C56.198 180.347 56.1113 180.873 56.1113 181.5C56.1113 182.127 56.198 182.657 56.3713 183.09C56.5447 183.517 56.788 183.843 57.1013 184.07C57.4147 184.29 57.7713 184.4 58.1713 184.4ZM64.7924 185.06C64.2524 185.06 63.7724 184.92 63.3524 184.64C62.9324 184.353 62.6024 183.947 62.3624 183.42C62.1224 182.887 62.0024 182.247 62.0024 181.5C62.0024 180.753 62.1224 180.117 62.3624 179.59C62.6024 179.057 62.9324 178.65 63.3524 178.37C63.7724 178.083 64.2524 177.94 64.7924 177.94C65.3324 177.94 65.8124 178.083 66.2324 178.37C66.6524 178.65 66.9824 179.057 67.2224 179.59C67.4691 180.117 67.5924 180.753 67.5924 181.5C67.5924 182.247 67.4691 182.887 67.2224 183.42C66.9824 183.947 66.6524 184.353 66.2324 184.64C65.8124 184.92 65.3324 185.06 64.7924 185.06ZM64.7924 184.4C65.2058 184.4 65.5658 184.29 65.8724 184.07C66.1791 183.843 66.4191 183.517 66.5924 183.09C66.7658 182.657 66.8524 182.127 66.8524 181.5C66.8524 180.873 66.7658 180.347 66.5924 179.92C66.4191 179.487 66.1791 179.16 65.8724 178.94C65.5658 178.713 65.2058 178.6 64.7924 178.6C64.3924 178.6 64.0358 178.713 63.7224 178.94C63.4091 179.16 63.1658 179.487 62.9924 179.92C62.8191 180.347 62.7324 180.873 62.7324 181.5C62.7324 182.127 62.8191 182.657 62.9924 183.09C63.1658 183.517 63.4091 183.843 63.7224 184.07C64.0358 184.29 64.3924 184.4 64.7924 184.4Z" fill="#7A7A7A"/>
<path d="M30.18 130.06C29.62 130.06 29.1367 129.98 28.73 129.82C28.33 129.66 28.02 129.43 27.8 129.13C27.5867 128.823 27.48 128.463 27.48 128.05C27.48 127.65 27.5833 127.31 27.79 127.03C28.0033 126.743 28.31 126.523 28.71 126.37C29.1167 126.217 29.6067 126.14 30.18 126.14C30.7467 126.14 31.2333 126.217 31.64 126.37C32.0467 126.523 32.3567 126.743 32.57 127.03C32.79 127.31 32.9 127.65 32.9 128.05C32.9 128.463 32.79 128.823 32.57 129.13C32.35 129.43 32.0367 129.66 31.63 129.82C31.2233 129.98 30.74 130.06 30.18 130.06ZM30.18 129.45C30.8 129.45 31.2833 129.323 31.63 129.07C31.9833 128.817 32.16 128.473 32.16 128.04C32.16 127.607 31.9833 127.267 31.63 127.02C31.2833 126.767 30.8 126.64 30.18 126.64C29.56 126.64 29.0767 126.767 28.73 127.02C28.3833 127.267 28.21 127.607 28.21 128.04C28.21 128.473 28.3833 128.817 28.73 129.07C29.0767 129.323 29.56 129.45 30.18 129.45ZM30.18 126.55C29.66 126.55 29.2167 126.48 28.85 126.34C28.49 126.2 28.2133 126 28.02 125.74C27.8267 125.473 27.73 125.157 27.73 124.79C27.73 124.403 27.83 124.073 28.03 123.8C28.2367 123.52 28.5233 123.307 28.89 123.16C29.2567 123.013 29.6867 122.94 30.18 122.94C30.6733 122.94 31.1033 123.013 31.47 123.16C31.8433 123.307 32.1333 123.52 32.34 123.8C32.5467 124.073 32.65 124.403 32.65 124.79C32.65 125.157 32.5533 125.473 32.36 125.74C32.1667 126 31.8833 126.2 31.51 126.34C31.1433 126.48 30.7 126.55 30.18 126.55ZM30.18 126.07C30.7267 126.07 31.1533 125.957 31.46 125.73C31.7667 125.503 31.92 125.2 31.92 124.82C31.92 124.42 31.76 124.11 31.44 123.89C31.1267 123.663 30.7067 123.55 30.18 123.55C29.6533 123.55 29.2333 123.663 28.92 123.89C28.6067 124.11 28.45 124.417 28.45 124.81C28.45 125.197 28.6 125.503 28.9 125.73C29.2067 125.957 29.6333 126.07 30.18 126.07ZM36.687 130.06C36.147 130.06 35.667 129.92 35.247 129.64C34.827 129.353 34.497 128.947 34.257 128.42C34.017 127.887 33.897 127.247 33.897 126.5C33.897 125.753 34.017 125.117 34.257 124.59C34.497 124.057 34.827 123.65 35.247 123.37C35.667 123.083 36.147 122.94 36.687 122.94C37.227 122.94 37.707 123.083 38.127 123.37C38.547 123.65 38.877 124.057 39.117 124.59C39.3636 125.117 39.487 125.753 39.487 126.5C39.487 127.247 39.3636 127.887 39.117 128.42C38.877 128.947 38.547 129.353 38.127 129.64C37.707 129.92 37.227 130.06 36.687 130.06ZM36.687 129.4C37.1003 129.4 37.4603 129.29 37.767 129.07C38.0736 128.843 38.3136 128.517 38.487 128.09C38.6603 127.657 38.747 127.127 38.747 126.5C38.747 125.873 38.6603 125.347 38.487 124.92C38.3136 124.487 38.0736 124.16 37.767 123.94C37.4603 123.713 37.1003 123.6 36.687 123.6C36.287 123.6 35.9303 123.713 35.617 123.94C35.3036 124.16 35.0603 124.487 34.887 124.92C34.7136 125.347 34.627 125.873 34.627 126.5C34.627 127.127 34.7136 127.657 34.887 128.09C35.0603 128.517 35.3036 128.843 35.617 129.07C35.9303 129.29 36.287 129.4 36.687 129.4ZM43.308 130.06C42.768 130.06 42.288 129.92 41.868 129.64C41.448 129.353 41.118 128.947 40.878 128.42C40.638 127.887 40.518 127.247 40.518 126.5C40.518 125.753 40.638 125.117 40.878 124.59C41.118 124.057 41.448 123.65 41.868 123.37C42.288 123.083 42.768 122.94 43.308 122.94C43.848 122.94 44.328 123.083 44.748 123.37C45.168 123.65 45.498 124.057 45.738 124.59C45.9847 125.117 46.108 125.753 46.108 126.5C46.108 127.247 45.9847 127.887 45.738 128.42C45.498 128.947 45.168 129.353 44.748 129.64C44.328 129.92 43.848 130.06 43.308 130.06ZM43.308 129.4C43.7214 129.4 44.0814 129.29 44.388 129.07C44.6947 128.843 44.9347 128.517 45.108 128.09C45.2814 127.657 45.368 127.127 45.368 126.5C45.368 125.873 45.2814 125.347 45.108 124.92C44.9347 124.487 44.6947 124.16 44.388 123.94C44.0814 123.713 43.7214 123.6 43.308 123.6C42.908 123.6 42.5514 123.713 42.238 123.94C41.9247 124.16 41.6814 124.487 41.508 124.92C41.3347 125.347 41.248 125.873 41.248 126.5C41.248 127.127 41.3347 127.657 41.508 128.09C41.6814 128.517 41.9247 128.843 42.238 129.07C42.5514 129.29 42.908 129.4 43.308 129.4ZM47.0717 131.46L47.5117 129.61L47.5917 130.04C47.4384 130.04 47.3084 129.99 47.2017 129.89C47.1017 129.79 47.0517 129.66 47.0517 129.5C47.0517 129.34 47.1017 129.21 47.2017 129.11C47.3084 129.01 47.4351 128.96 47.5817 128.96C47.7351 128.96 47.8584 129.013 47.9517 129.12C48.0517 129.227 48.1017 129.353 48.1017 129.5C48.1017 129.553 48.0984 129.607 48.0917 129.66C48.0851 129.713 48.0717 129.773 48.0517 129.84C48.0317 129.907 48.0051 129.987 47.9717 130.08L47.5517 131.46H47.0717ZM51.8334 130.06C51.2934 130.06 50.8134 129.92 50.3934 129.64C49.9734 129.353 49.6434 128.947 49.4034 128.42C49.1634 127.887 49.0434 127.247 49.0434 126.5C49.0434 125.753 49.1634 125.117 49.4034 124.59C49.6434 124.057 49.9734 123.65 50.3934 123.37C50.8134 123.083 51.2934 122.94 51.8334 122.94C52.3734 122.94 52.8534 123.083 53.2734 123.37C53.6934 123.65 54.0234 124.057 54.2634 124.59C54.5101 125.117 54.6334 125.753 54.6334 126.5C54.6334 127.247 54.5101 127.887 54.2634 128.42C54.0234 128.947 53.6934 129.353 53.2734 129.64C52.8534 129.92 52.3734 130.06 51.8334 130.06ZM51.8334 129.4C52.2468 129.4 52.6068 129.29 52.9134 129.07C53.2201 128.843 53.4601 128.517 53.6334 128.09C53.8068 127.657 53.8934 127.127 53.8934 126.5C53.8934 125.873 53.8068 125.347 53.6334 124.92C53.4601 124.487 53.2201 124.16 52.9134 123.94C52.6068 123.713 52.2468 123.6 51.8334 123.6C51.4334 123.6 51.0768 123.713 50.7634 123.94C50.4501 124.16 50.2068 124.487 50.0334 124.92C49.8601 125.347 49.7734 125.873 49.7734 126.5C49.7734 127.127 49.8601 127.657 50.0334 128.09C50.2068 128.517 50.4501 128.843 50.7634 129.07C51.0768 129.29 51.4334 129.4 51.8334 129.4ZM58.4545 130.06C57.9145 130.06 57.4345 129.92 57.0145 129.64C56.5945 129.353 56.2645 128.947 56.0245 128.42C55.7845 127.887 55.6645 127.247 55.6645 126.5C55.6645 125.753 55.7845 125.117 56.0245 124.59C56.2645 124.057 56.5945 123.65 57.0145 123.37C57.4345 123.083 57.9145 122.94 58.4545 122.94C58.9945 122.94 59.4745 123.083 59.8945 123.37C60.3145 123.65 60.6445 124.057 60.8845 124.59C61.1312 125.117 61.2545 125.753 61.2545 126.5C61.2545 127.247 61.1312 127.887 60.8845 128.42C60.6445 128.947 60.3145 129.353 59.8945 129.64C59.4745 129.92 58.9945 130.06 58.4545 130.06ZM58.4545 129.4C58.8679 129.4 59.2279 129.29 59.5345 129.07C59.8412 128.843 60.0812 128.517 60.2545 128.09C60.4279 127.657 60.5145 127.127 60.5145 126.5C60.5145 125.873 60.4279 125.347 60.2545 124.92C60.0812 124.487 59.8412 124.16 59.5345 123.94C59.2279 123.713 58.8679 123.6 58.4545 123.6C58.0545 123.6 57.6979 123.713 57.3845 123.94C57.0712 124.16 56.8279 124.487 56.6545 124.92C56.4812 125.347 56.3945 125.873 56.3945 126.5C56.3945 127.127 56.4812 127.657 56.6545 128.09C56.8279 128.517 57.0712 128.843 57.3845 129.07C57.6979 129.29 58.0545 129.4 58.4545 129.4ZM65.0756 130.06C64.5356 130.06 64.0556 129.92 63.6356 129.64C63.2156 129.353 62.8856 128.947 62.6456 128.42C62.4056 127.887 62.2856 127.247 62.2856 126.5C62.2856 125.753 62.4056 125.117 62.6456 124.59C62.8856 124.057 63.2156 123.65 63.6356 123.37C64.0556 123.083 64.5356 122.94 65.0756 122.94C65.6156 122.94 66.0956 123.083 66.5156 123.37C66.9356 123.65 67.2656 124.057 67.5056 124.59C67.7523 125.117 67.8756 125.753 67.8756 126.5C67.8756 127.247 67.7523 127.887 67.5056 128.42C67.2656 128.947 66.9356 129.353 66.5156 129.64C66.0956 129.92 65.6156 130.06 65.0756 130.06ZM65.0756 129.4C65.489 129.4 65.849 129.29 66.1556 129.07C66.4623 128.843 66.7023 128.517 66.8756 128.09C67.049 127.657 67.1356 127.127 67.1356 126.5C67.1356 125.873 67.049 125.347 66.8756 124.92C66.7023 124.487 66.4623 124.16 66.1556 123.94C65.849 123.713 65.489 123.6 65.0756 123.6C64.6756 123.6 64.319 123.713 64.0056 123.94C63.6923 124.16 63.449 124.487 63.2756 124.92C63.1023 125.347 63.0156 125.873 63.0156 126.5C63.0156 127.127 63.1023 127.657 63.2756 128.09C63.449 128.517 63.6923 128.843 64.0056 129.07C64.319 129.29 64.6756 129.4 65.0756 129.4Z" fill="#7A7A7A"/>
<path d="M22.74 74V67.3L23.06 67.64H21.09V67H23.46V74H22.74ZM25.1733 75.46L25.6133 73.61L25.6933 74.04C25.5399 74.04 25.4099 73.99 25.3033 73.89C25.2033 73.79 25.1533 73.66 25.1533 73.5C25.1533 73.34 25.2033 73.21 25.3033 73.11C25.4099 73.01 25.5366 72.96 25.6833 72.96C25.8366 72.96 25.9599 73.0133 26.0533 73.12C26.1533 73.2267 26.2033 73.3533 26.2033 73.5C26.2033 73.5533 26.1999 73.6067 26.1933 73.66C26.1866 73.7133 26.1733 73.7733 26.1533 73.84C26.1333 73.9067 26.1066 73.9867 26.0733 74.08L25.6533 75.46H25.1733ZM29.935 74.06C29.395 74.06 28.915 73.92 28.495 73.64C28.075 73.3533 27.745 72.9467 27.505 72.42C27.265 71.8867 27.145 71.2467 27.145 70.5C27.145 69.7533 27.265 69.1167 27.505 68.59C27.745 68.0567 28.075 67.65 28.495 67.37C28.915 67.0833 29.395 66.94 29.935 66.94C30.475 66.94 30.955 67.0833 31.375 67.37C31.795 67.65 32.125 68.0567 32.365 68.59C32.6117 69.1167 32.735 69.7533 32.735 70.5C32.735 71.2467 32.6117 71.8867 32.365 72.42C32.125 72.9467 31.795 73.3533 31.375 73.64C30.955 73.92 30.475 74.06 29.935 74.06ZM29.935 73.4C30.3483 73.4 30.7083 73.29 31.015 73.07C31.3217 72.8433 31.5617 72.5167 31.735 72.09C31.9083 71.6567 31.995 71.1267 31.995 70.5C31.995 69.8733 31.9083 69.3467 31.735 68.92C31.5617 68.4867 31.3217 68.16 31.015 67.94C30.7083 67.7133 30.3483 67.6 29.935 67.6C29.535 67.6 29.1783 67.7133 28.865 67.94C28.5517 68.16 28.3083 68.4867 28.135 68.92C27.9617 69.3467 27.875 69.8733 27.875 70.5C27.875 71.1267 27.9617 71.6567 28.135 72.09C28.3083 72.5167 28.5517 72.8433 28.865 73.07C29.1783 73.29 29.535 73.4 29.935 73.4ZM36.5561 74.06C36.0161 74.06 35.5361 73.92 35.1161 73.64C34.6961 73.3533 34.3661 72.9467 34.1261 72.42C33.8861 71.8867 33.7661 71.2467 33.7661 70.5C33.7661 69.7533 33.8861 69.1167 34.1261 68.59C34.3661 68.0567 34.6961 67.65 35.1161 67.37C35.5361 67.0833 36.0161 66.94 36.5561 66.94C37.0961 66.94 37.5761 67.0833 37.9961 67.37C38.4161 67.65 38.7461 68.0567 38.9861 68.59C39.2328 69.1167 39.3561 69.7533 39.3561 70.5C39.3561 71.2467 39.2328 71.8867 38.9861 72.42C38.7461 72.9467 38.4161 73.3533 37.9961 73.64C37.5761 73.92 37.0961 74.06 36.5561 74.06ZM36.5561 73.4C36.9694 73.4 37.3294 73.29 37.6361 73.07C37.9428 72.8433 38.1828 72.5167 38.3561 72.09C38.5294 71.6567 38.6161 71.1267 38.6161 70.5C38.6161 69.8733 38.5294 69.3467 38.3561 68.92C38.1828 68.4867 37.9428 68.16 37.6361 67.94C37.3294 67.7133 36.9694 67.6 36.5561 67.6C36.1561 67.6 35.7994 67.7133 35.4861 67.94C35.1728 68.16 34.9294 68.4867 34.7561 68.92C34.5828 69.3467 34.4961 69.8733 34.4961 70.5C34.4961 71.1267 34.5828 71.6567 34.7561 72.09C34.9294 72.5167 35.1728 72.8433 35.4861 73.07C35.7994 73.29 36.1561 73.4 36.5561 73.4ZM43.1772 74.06C42.6372 74.06 42.1572 73.92 41.7372 73.64C41.3172 73.3533 40.9872 72.9467 40.7472 72.42C40.5072 71.8867 40.3872 71.2467 40.3872 70.5C40.3872 69.7533 40.5072 69.1167 40.7472 68.59C40.9872 68.0567 41.3172 67.65 41.7372 67.37C42.1572 67.0833 42.6372 66.94 43.1772 66.94C43.7172 66.94 44.1972 67.0833 44.6172 67.37C45.0372 67.65 45.3672 68.0567 45.6072 68.59C45.8539 69.1167 45.9772 69.7533 45.9772 70.5C45.9772 71.2467 45.8539 71.8867 45.6072 72.42C45.3672 72.9467 45.0372 73.3533 44.6172 73.64C44.1972 73.92 43.7172 74.06 43.1772 74.06ZM43.1772 73.4C43.5905 73.4 43.9505 73.29 44.2572 73.07C44.5639 72.8433 44.8039 72.5167 44.9772 72.09C45.1505 71.6567 45.2372 71.1267 45.2372 70.5C45.2372 69.8733 45.1505 69.3467 44.9772 68.92C44.8039 68.4867 44.5639 68.16 44.2572 67.94C43.9505 67.7133 43.5905 67.6 43.1772 67.6C42.7772 67.6 42.4205 67.7133 42.1072 67.94C41.7939 68.16 41.5505 68.4867 41.3772 68.92C41.2039 69.3467 41.1172 69.8733 41.1172 70.5C41.1172 71.1267 41.2039 71.6567 41.3772 72.09C41.5505 72.5167 41.7939 72.8433 42.1072 73.07C42.4205 73.29 42.7772 73.4 43.1772 73.4ZM46.9409 75.46L47.3809 73.61L47.4609 74.04C47.3075 74.04 47.1775 73.99 47.0709 73.89C46.9709 73.79 46.9209 73.66 46.9209 73.5C46.9209 73.34 46.9709 73.21 47.0709 73.11C47.1775 73.01 47.3042 72.96 47.4509 72.96C47.6042 72.96 47.7275 73.0133 47.8209 73.12C47.9209 73.2267 47.9709 73.3533 47.9709 73.5C47.9709 73.5533 47.9675 73.6067 47.9609 73.66C47.9542 73.7133 47.9409 73.7733 47.9209 73.84C47.9009 73.9067 47.8742 73.9867 47.8409 74.08L47.4209 75.46H46.9409ZM51.7026 74.06C51.1626 74.06 50.6826 73.92 50.2626 73.64C49.8426 73.3533 49.5126 72.9467 49.2726 72.42C49.0326 71.8867 48.9126 71.2467 48.9126 70.5C48.9126 69.7533 49.0326 69.1167 49.2726 68.59C49.5126 68.0567 49.8426 67.65 50.2626 67.37C50.6826 67.0833 51.1626 66.94 51.7026 66.94C52.2426 66.94 52.7226 67.0833 53.1426 67.37C53.5626 67.65 53.8926 68.0567 54.1326 68.59C54.3792 69.1167 54.5026 69.7533 54.5026 70.5C54.5026 71.2467 54.3792 71.8867 54.1326 72.42C53.8926 72.9467 53.5626 73.3533 53.1426 73.64C52.7226 73.92 52.2426 74.06 51.7026 74.06ZM51.7026 73.4C52.1159 73.4 52.4759 73.29 52.7826 73.07C53.0892 72.8433 53.3292 72.5167 53.5026 72.09C53.6759 71.6567 53.7626 71.1267 53.7626 70.5C53.7626 69.8733 53.6759 69.3467 53.5026 68.92C53.3292 68.4867 53.0892 68.16 52.7826 67.94C52.4759 67.7133 52.1159 67.6 51.7026 67.6C51.3026 67.6 50.9459 67.7133 50.6326 67.94C50.3192 68.16 50.0759 68.4867 49.9026 68.92C49.7292 69.3467 49.6426 69.8733 49.6426 70.5C49.6426 71.1267 49.7292 71.6567 49.9026 72.09C50.0759 72.5167 50.3192 72.8433 50.6326 73.07C50.9459 73.29 51.3026 73.4 51.7026 73.4ZM58.3237 74.06C57.7837 74.06 57.3037 73.92 56.8837 73.64C56.4637 73.3533 56.1337 72.9467 55.8937 72.42C55.6537 71.8867 55.5337 71.2467 55.5337 70.5C55.5337 69.7533 55.6537 69.1167 55.8937 68.59C56.1337 68.0567 56.4637 67.65 56.8837 67.37C57.3037 67.0833 57.7837 66.94 58.3237 66.94C58.8637 66.94 59.3437 67.0833 59.7637 67.37C60.1837 67.65 60.5137 68.0567 60.7537 68.59C61.0003 69.1167 61.1237 69.7533 61.1237 70.5C61.1237 71.2467 61.0003 71.8867 60.7537 72.42C60.5137 72.9467 60.1837 73.3533 59.7637 73.64C59.3437 73.92 58.8637 74.06 58.3237 74.06ZM58.3237 73.4C58.737 73.4 59.097 73.29 59.4037 73.07C59.7103 72.8433 59.9503 72.5167 60.1237 72.09C60.297 71.6567 60.3837 71.1267 60.3837 70.5C60.3837 69.8733 60.297 69.3467 60.1237 68.92C59.9503 68.4867 59.7103 68.16 59.4037 67.94C59.097 67.7133 58.737 67.6 58.3237 67.6C57.9237 67.6 57.567 67.7133 57.2537 67.94C56.9403 68.16 56.697 68.4867 56.5237 68.92C56.3503 69.3467 56.2637 69.8733 56.2637 70.5C56.2637 71.1267 56.3503 71.6567 56.5237 72.09C56.697 72.5167 56.9403 72.8433 57.2537 73.07C57.567 73.29 57.9237 73.4 58.3237 73.4ZM64.9448 74.06C64.4048 74.06 63.9248 73.92 63.5048 73.64C63.0848 73.3533 62.7548 72.9467 62.5148 72.42C62.2748 71.8867 62.1548 71.2467 62.1548 70.5C62.1548 69.7533 62.2748 69.1167 62.5148 68.59C62.7548 68.0567 63.0848 67.65 63.5048 67.37C63.9248 67.0833 64.4048 66.94 64.9448 66.94C65.4848 66.94 65.9648 67.0833 66.3848 67.37C66.8048 67.65 67.1348 68.0567 67.3748 68.59C67.6214 69.1167 67.7448 69.7533 67.7448 70.5C67.7448 71.2467 67.6214 71.8867 67.3748 72.42C67.1348 72.9467 66.8048 73.3533 66.3848 73.64C65.9648 73.92 65.4848 74.06 64.9448 74.06ZM64.9448 73.4C65.3581 73.4 65.7181 73.29 66.0248 73.07C66.3314 72.8433 66.5714 72.5167 66.7448 72.09C66.9181 71.6567 67.0048 71.1267 67.0048 70.5C67.0048 69.8733 66.9181 69.3467 66.7448 68.92C66.5714 68.4867 66.3314 68.16 66.0248 67.94C65.7181 67.7133 65.3581 67.6 64.9448 67.6C64.5448 67.6 64.1881 67.7133 63.8748 67.94C63.5614 68.16 63.3181 68.4867 63.1448 68.92C62.9714 69.3467 62.8848 69.8733 62.8848 70.5C62.8848 71.1267 62.9714 71.6567 63.1448 72.09C63.3181 72.5167 63.5614 72.8433 63.8748 73.07C64.1881 73.29 64.5448 73.4 64.9448 73.4Z" fill="#7A7A7A"/>
<path d="M50.3002 300.375C49.6522 300.375 49.0762 300.207 48.5722 299.871C48.0682 299.527 47.6722 299.039 47.3842 298.407C47.0962 297.767 46.9522 296.999 46.9522 296.103C46.9522 295.207 47.0962 294.443 47.3842 293.811C47.6722 293.171 48.0682 292.683 48.5722 292.347C49.0762 292.003 49.6522 291.831 50.3002 291.831C50.9482 291.831 51.5242 292.003 52.0282 292.347C52.5322 292.683 52.9282 293.171 53.2162 293.811C53.5122 294.443 53.6602 295.207 53.6602 296.103C53.6602 296.999 53.5122 297.767 53.2162 298.407C52.9282 299.039 52.5322 299.527 52.0282 299.871C51.5242 300.207 50.9482 300.375 50.3002 300.375ZM50.3002 299.583C50.7962 299.583 51.2282 299.451 51.5962 299.187C51.9642 298.915 52.2522 298.523 52.4602 298.011C52.6682 297.491 52.7722 296.855 52.7722 296.103C52.7722 295.351 52.6682 294.719 52.4602 294.207C52.2522 293.687 51.9642 293.295 51.5962 293.031C51.2282 292.759 50.7962 292.623 50.3002 292.623C49.8202 292.623 49.3922 292.759 49.0162 293.031C48.6402 293.295 48.3482 293.687 48.1402 294.207C47.9322 294.719 47.8282 295.351 47.8282 296.103C47.8282 296.855 47.9322 297.491 48.1402 298.011C48.3482 298.523 48.6402 298.915 49.0162 299.187C49.3922 299.451 49.8202 299.583 50.3002 299.583Z" fill="black"/>
<path d="M12 186.632H3.6L3.6 183.488C3.6 182.776 3.716 182.164 3.948 181.652C4.172 181.14 4.5 180.748 4.932 180.476C5.356 180.196 5.872 180.056 6.48 180.056C7.072 180.056 7.584 180.196 8.016 180.476C8.44 180.748 8.768 181.14 9 181.652C9.232 182.164 9.348 182.776 9.348 183.488V186.14L8.928 185.744H12V186.632ZM9 185.744L8.568 186.14V183.512C8.568 182.672 8.388 182.036 8.028 181.604C7.66 181.164 7.144 180.944 6.48 180.944C5.808 180.944 5.288 181.164 4.92 181.604C4.552 182.036 4.368 182.672 4.368 183.512L4.368 186.14L3.948 185.744H9ZM12 178.468H5.7V177.652H7.416L7.116 177.736C6.636 177.56 6.272 177.264 6.024 176.848C5.768 176.432 5.64 175.916 5.64 175.3H6.468C6.468 175.332 6.468 175.364 6.468 175.396C6.46 175.428 6.456 175.46 6.456 175.492C6.456 176.156 6.66 176.676 7.068 177.052C7.468 177.428 8.04 177.616 8.784 177.616H12V178.468ZM12 173.746H5.7V172.894H12V173.746ZM4.308 173.314C4.308 173.49 4.248 173.638 4.128 173.758C4.008 173.878 3.864 173.938 3.696 173.938C3.528 173.938 3.388 173.878 3.276 173.758C3.156 173.638 3.096 173.49 3.096 173.314C3.096 173.138 3.152 172.99 3.264 172.87C3.376 172.75 3.516 172.69 3.684 172.69C3.86 172.69 4.008 172.75 4.128 172.87C4.248 172.982 4.308 173.13 4.308 173.314ZM12.06 167.907C12.06 168.531 11.924 169.091 11.652 169.587C11.372 170.075 10.992 170.459 10.512 170.739C10.024 171.019 9.468 171.159 8.844 171.159C8.212 171.159 7.656 171.019 7.176 170.739C6.696 170.459 6.32 170.075 6.048 169.587C5.776 169.091 5.64 168.531 5.64 167.907C5.64 167.371 5.744 166.887 5.952 166.455C6.16 166.023 6.472 165.683 6.888 165.435L7.32 166.071C7 166.287 6.764 166.555 6.612 166.875C6.46 167.195 6.384 167.543 6.384 167.919C6.384 168.367 6.488 168.771 6.696 169.131C6.896 169.491 7.18 169.775 7.548 169.983C7.916 170.191 8.348 170.295 8.844 170.295C9.34 170.295 9.772 170.191 10.14 169.983C10.508 169.775 10.796 169.491 11.004 169.131C11.204 168.771 11.304 168.367 11.304 167.919C11.304 167.543 11.228 167.195 11.076 166.875C10.924 166.555 10.692 166.287 10.38 166.071L10.812 165.435C11.22 165.683 11.532 166.023 11.748 166.455C11.956 166.887 12.06 167.371 12.06 167.907ZM12.06 161.191C12.06 161.847 11.924 162.423 11.652 162.919C11.372 163.415 10.992 163.803 10.512 164.083C10.024 164.363 9.468 164.503 8.844 164.503C8.22 164.503 7.668 164.371 7.188 164.107C6.708 163.835 6.332 163.467 6.06 163.003C5.78 162.531 5.64 162.003 5.64 161.419C5.64 160.827 5.776 160.303 6.048 159.847C6.312 159.383 6.688 159.019 7.176 158.755C7.656 158.491 8.212 158.359 8.844 158.359C8.884 158.359 8.928 158.363 8.976 158.371C9.016 158.371 9.06 158.371 9.108 158.371L9.108 163.855H8.472L8.472 158.827L8.724 159.163C8.268 159.163 7.864 159.263 7.512 159.463C7.152 159.655 6.872 159.919 6.672 160.255C6.472 160.591 6.372 160.979 6.372 161.419C6.372 161.851 6.472 162.239 6.672 162.583C6.872 162.927 7.152 163.195 7.512 163.387C7.872 163.579 8.284 163.675 8.748 163.675H8.88C9.36 163.675 9.784 163.571 10.152 163.363C10.512 163.147 10.796 162.851 11.004 162.475C11.204 162.091 11.304 161.655 11.304 161.167C11.304 160.783 11.236 160.427 11.1 160.099C10.964 159.763 10.756 159.475 10.476 159.235L11.028 158.755C11.364 159.035 11.62 159.387 11.796 159.811C11.972 160.227 12.06 160.687 12.06 161.191ZM12.06 150.232C12.06 150.776 11.936 151.268 11.688 151.708C11.432 152.148 11.068 152.5 10.596 152.764C10.116 153.02 9.532 153.148 8.844 153.148C8.156 153.148 7.576 153.02 7.104 152.764C6.624 152.508 6.26 152.16 6.012 151.72C5.764 151.28 5.64 150.784 5.64 150.232C5.64 149.632 5.776 149.096 6.048 148.624C6.312 148.144 6.688 147.768 7.176 147.496C7.656 147.224 8.212 147.088 8.844 147.088C9.484 147.088 10.044 147.224 10.524 147.496C11.004 147.768 11.38 148.144 11.652 148.624C11.924 149.096 12.06 149.632 12.06 150.232ZM14.328 153.484H5.7V152.668H7.596L8.856 152.752L10.128 152.632H14.328V153.484ZM11.304 150.292C11.304 149.844 11.204 149.444 11.004 149.092C10.796 148.74 10.508 148.46 10.14 148.252C9.764 148.044 9.332 147.94 8.844 147.94C8.356 147.94 7.928 148.044 7.56 148.252C7.192 148.46 6.904 148.74 6.696 149.092C6.488 149.444 6.384 149.844 6.384 150.292C6.384 150.74 6.488 151.144 6.696 151.504C6.904 151.856 7.192 152.136 7.56 152.344C7.928 152.544 8.356 152.644 8.844 152.644C9.332 152.644 9.764 152.544 10.14 152.344C10.508 152.136 10.796 151.856 11.004 151.504C11.204 151.144 11.304 150.74 11.304 150.292ZM12.06 142.675C12.06 143.331 11.924 143.907 11.652 144.403C11.372 144.899 10.992 145.287 10.512 145.567C10.024 145.847 9.468 145.987 8.844 145.987C8.22 145.987 7.668 145.855 7.188 145.591C6.708 145.319 6.332 144.951 6.06 144.487C5.78 144.015 5.64 143.487 5.64 142.903C5.64 142.311 5.776 141.787 6.048 141.331C6.312 140.867 6.688 140.503 7.176 140.239C7.656 139.975 8.212 139.843 8.844 139.843C8.884 139.843 8.928 139.847 8.976 139.855C9.016 139.855 9.06 139.855 9.108 139.855V145.339H8.472V140.311L8.724 140.647C8.268 140.647 7.864 140.747 7.512 140.947C7.152 141.139 6.872 141.403 6.672 141.739C6.472 142.075 6.372 142.463 6.372 142.903C6.372 143.335 6.472 143.723 6.672 144.067C6.872 144.411 7.152 144.679 7.512 144.871C7.872 145.063 8.284 145.159 8.748 145.159H8.88C9.36 145.159 9.784 145.055 10.152 144.847C10.512 144.631 10.796 144.335 11.004 143.959C11.204 143.575 11.304 143.139 11.304 142.651C11.304 142.267 11.236 141.911 11.1 141.583C10.964 141.247 10.756 140.959 10.476 140.719L11.028 140.239C11.364 140.519 11.62 140.871 11.796 141.295C11.972 141.711 12.06 142.171 12.06 142.675ZM12 138.109H5.7V137.293H7.416L7.116 137.377C6.636 137.201 6.272 136.905 6.024 136.489C5.768 136.073 5.64 135.557 5.64 134.941H6.468C6.468 134.973 6.468 135.005 6.468 135.037C6.46 135.069 6.456 135.101 6.456 135.133C6.456 135.797 6.66 136.317 7.068 136.693C7.468 137.069 8.04 137.257 8.784 137.257H12V138.109ZM14.388 130.104C14.388 130.4 14.34 130.684 14.244 130.956C14.148 131.22 14.004 131.448 13.812 131.64L13.176 131.244C13.328 131.084 13.444 130.912 13.524 130.728C13.612 130.536 13.656 130.324 13.656 130.092C13.656 129.812 13.576 129.572 13.416 129.372C13.264 129.164 12.992 128.968 12.6 128.784L11.676 128.376L11.544 128.28L5.7 125.688V124.848L12.756 128.004C13.164 128.18 13.488 128.376 13.728 128.592C13.968 128.8 14.136 129.028 14.232 129.276C14.336 129.524 14.388 129.8 14.388 130.104ZM12.18 128.424L5.7 131.328V130.44L11.484 127.872L12.18 128.424ZM12.06 121.148C12.06 121.804 11.924 122.38 11.652 122.876C11.372 123.372 10.992 123.76 10.512 124.04C10.024 124.32 9.468 124.46 8.844 124.46C8.22 124.46 7.668 124.328 7.188 124.064C6.708 123.792 6.332 123.424 6.06 122.96C5.78 122.488 5.64 121.96 5.64 121.376C5.64 120.784 5.776 120.26 6.048 119.804C6.312 119.34 6.688 118.976 7.176 118.712C7.656 118.448 8.212 118.316 8.844 118.316C8.884 118.316 8.928 118.32 8.976 118.328C9.016 118.328 9.06 118.328 9.108 118.328V123.812H8.472V118.784L8.724 119.12C8.268 119.12 7.864 119.22 7.512 119.42C7.152 119.612 6.872 119.876 6.672 120.212C6.472 120.548 6.372 120.936 6.372 121.376C6.372 121.808 6.472 122.196 6.672 122.54C6.872 122.884 7.152 123.152 7.512 123.344C7.872 123.536 8.284 123.632 8.748 123.632H8.88C9.36 123.632 9.784 123.528 10.152 123.32C10.512 123.104 10.796 122.808 11.004 122.432C11.204 122.048 11.304 121.612 11.304 121.124C11.304 120.74 11.236 120.384 11.1 120.056C10.964 119.72 10.756 119.432 10.476 119.192L11.028 118.712C11.364 118.992 11.62 119.344 11.796 119.768C11.972 120.184 12.06 120.644 12.06 121.148ZM12 112.809H10.608L10.38 112.845H8.052C7.516 112.845 7.104 112.997 6.816 113.301C6.528 113.597 6.384 114.041 6.384 114.633C6.384 115.041 6.452 115.429 6.588 115.797C6.724 116.165 6.904 116.477 7.128 116.733L6.492 117.117C6.22 116.797 6.012 116.413 5.868 115.965C5.716 115.517 5.64 115.045 5.64 114.549C5.64 113.733 5.844 113.105 6.252 112.665C6.652 112.217 7.264 111.993 8.088 111.993H12V112.809ZM12.06 114.981C12.06 115.453 11.984 115.865 11.832 116.217C11.672 116.561 11.456 116.825 11.184 117.009C10.904 117.193 10.584 117.285 10.224 117.285C9.896 117.285 9.6 117.209 9.336 117.057C9.064 116.897 8.848 116.641 8.688 116.289C8.52 115.929 8.436 115.449 8.436 114.849L8.436 112.677H9.072L9.072 114.825C9.072 115.433 9.18 115.857 9.396 116.097C9.612 116.329 9.88 116.445 10.2 116.445C10.56 116.445 10.848 116.305 11.064 116.025C11.28 115.745 11.388 115.353 11.388 114.849C11.388 114.369 11.28 113.957 11.064 113.613C10.84 113.261 10.52 113.005 10.104 112.845L10.692 112.653C11.108 112.813 11.44 113.093 11.688 113.493C11.936 113.885 12.06 114.381 12.06 114.981ZM12 109.679H5.7L5.7 108.863H7.416L7.116 108.947C6.636 108.771 6.272 108.475 6.024 108.059C5.768 107.643 5.64 107.127 5.64 106.511H6.468C6.468 106.543 6.468 106.575 6.468 106.607C6.46 106.639 6.456 106.671 6.456 106.703C6.456 107.367 6.66 107.887 7.068 108.263C7.468 108.639 8.04 108.827 8.784 108.827H12V109.679ZM14.328 100.27C13.6 100.71 12.76 101.054 11.808 101.302C10.848 101.542 9.816 101.662 8.712 101.662C7.608 101.662 6.576 101.542 5.616 101.302C4.648 101.054 3.808 100.71 3.096 100.27V99.4542C3.92 99.9262 4.796 100.274 5.724 100.498C6.644 100.714 7.64 100.822 8.712 100.822C9.784 100.822 10.784 100.714 11.712 100.498C12.632 100.274 13.504 99.9262 14.328 99.4542V100.27ZM12 98.9369L3.6 95.0969L3.6 94.2209L12 90.3809V91.3169L4.116 94.8449V94.4849L12 98.0129V98.9369ZM9.756 97.4249L9.036 97.1609L9.036 92.2769L9.756 92.0129L9.756 97.4249ZM7.356 88.1994L7.356 83.7594H8.112V88.1994H7.356ZM11.232 88.1034V83.0514H12V88.9914H3.6L3.6 83.2314H4.368L4.368 88.1034H11.232ZM12 80.964H3.6L3.6 77.544C3.6 76.648 3.78 75.864 4.14 75.192C4.492 74.512 4.984 73.984 5.616 73.608C6.248 73.232 6.976 73.044 7.8 73.044C8.624 73.044 9.352 73.232 9.984 73.608C10.616 73.984 11.112 74.512 11.472 75.192C11.824 75.864 12 76.648 12 77.544L12 80.964ZM11.232 80.076V77.592C11.232 76.848 11.088 76.204 10.8 75.66C10.504 75.108 10.1 74.68 9.588 74.376C9.068 74.072 8.472 73.92 7.8 73.92C7.12 73.92 6.524 74.072 6.012 74.376C5.5 74.68 5.1 75.108 4.812 75.66C4.516 76.204 4.368 76.848 4.368 77.592V80.076H11.232ZM14.328 70.9462V71.7622C13.504 71.2822 12.632 70.9342 11.712 70.7182C10.784 70.4942 9.784 70.3822 8.712 70.3822C7.64 70.3822 6.644 70.4942 5.724 70.7182C4.796 70.9342 3.92 71.2822 3.096 71.7622V70.9462C3.808 70.4902 4.648 70.1422 5.616 69.9022C6.576 69.6622 7.608 69.5422 8.712 69.5422C9.816 69.5422 10.848 69.6622 11.808 69.9022C12.76 70.1422 13.6 70.4902 14.328 70.9462Z" fill="black"/>
</g>
<defs>
<clipPath id="clip0_961_9470">
<rect width="752" height="333" fill="white"/>
</clipPath>
</defs>
</svg>
