<svg width="192" height="24" viewBox="0 0 192 24" fill="none" xmlns="http://www.w3.org/2000/svg">
<path d="M37.5405 11.7814C39.0589 8.13715 38.9289 5.30605 37.1482 3.28051C35.3699 1.26505 32.0102 0.250069 27.0772 0.250069H10.3682L8.85924 3.90249H20.3628C26.2313 3.90249 27.9313 6.83326 25.9064 11.6861C24.7362 14.4939 23.7011 17.0752 21.2598 18.2258C19.0261 19.2792 16.7173 19.5877 12.6088 19.5877L7.28851 19.5783L11.2614 10.1286H6.25019L0.60376 23.5801H15.7465C19.9925 23.5801 23.3447 23.1859 25.8174 22.4018C28.5224 21.5313 30.9491 20.0993 33.0907 18.1091C35.0866 16.2103 36.5691 14.1021 37.5405 11.7814ZM141.97 0.22736L141.974 0.244392H135.769L111.933 22.5973L121.249 0.249438H111.032L98.6886 9.94002L92.335 15.1707H92.0461L95.0362 7.55176L91.392 0.249438H81.1254L71.7963 22.639L66.418 0.249438H55.1687L30.3253 23.5801H36.5331L42.8835 17.4814H58.5353L59.7824 23.5801H76.4158L82.4281 9.1616C82.7302 8.43868 83.0198 7.60601 83.303 6.67492C83.3308 7.42559 83.5352 8.2261 83.9054 9.06887L89.1936 21.096H90.0868L105.217 9.11176C105.785 8.66136 106.643 7.8495 107.79 6.67492C107.203 7.76119 106.795 8.58882 106.556 9.1616L100.543 23.5801H111.524L111.526 23.5732H123.103L129.382 17.4448H145.64L146.944 23.5732H152.659L147.09 0.22736H141.97ZM46.1594 14.2775L56.0657 4.78058L57.8534 14.2775H46.1594ZM132.669 14.2422L142.841 4.31946L144.954 14.2422H132.669ZM191.494 0.206543H174.636C169.698 0.206543 165.491 1.22279 162.031 3.24392C158.567 5.26631 156.073 8.10624 154.549 11.7511C153.58 14.0693 153.305 16.1889 153.72 18.0769C154.212 20.0779 155.437 21.5123 157.423 22.3816C159.229 23.1625 162.265 23.5593 166.511 23.5593H181.622L183.132 19.8558H174.617C170.516 19.8558 167.781 19.324 166.419 18.2668C164.932 17.1219 165.099 14.4718 166.259 11.6571C168.292 6.79478 172.536 3.7675 178.404 3.7675H185.004L183.492 7.42433H188.5L191.494 0.206543Z" fill="#1D1D1B"/>
</svg>
