<svg width="162" height="32" viewBox="0 0 162 32" fill="none" xmlns="http://www.w3.org/2000/svg">
<g clip-path="url(#clip0_238_6536)">
<path d="M23.4168 28.7501L22.9383 31.9202H0.0498047C0.996845 29.7271 0.937032 28.4909 0.937032 26.9059V5.11399C0.937032 3.57879 0.996845 2.233 0.0498047 0.0996624H6.90837H22.38L22.4199 3.32957C22.0012 3.1601 21.6623 3.01057 21.3532 2.871C20.5258 2.56197 19.4791 2.27287 18.3925 2.28284C16.6579 2.28284 9.38065 2.28284 6.15074 2.28284V14.7439H20.5159L19.8081 17.1962H6.15074V29.6673C8.79248 29.6673 17.2361 29.6673 19.1003 29.6673C21.2835 29.7071 23.4567 28.471 23.4567 28.471L23.3968 28.7402C23.3968 28.7501 23.4068 28.7501 23.4168 28.7501ZM57.8691 31.9202C58.1782 30.3551 58.1782 28.142 57.9289 26.3377L55.8953 11.3445L44.79 31.9103H42.6766L31.3919 10.4174L29.1987 26.6666C28.9595 28.5408 28.8897 30.9134 29.0891 31.9202H25.1215C25.8891 30.2953 26.0785 29.5875 26.4373 26.9159L30.0261 0.0996624H31.8504L45.0193 25.1215L58.1782 0.0996624H59.5539L63.2623 26.856C63.6311 29.5177 63.9102 30.2853 64.6479 31.9202H57.8691ZM91.2947 31.9202L86.0112 20.2666H75.3844L70.1707 31.9202H69.7221H66.0436H66.0236C67.3395 30.2853 67.7881 29.5277 68.7152 27.4941L81.0367 0.0996624H82.4224L94.5445 26.7265C95.8405 29.3283 96.4486 30.1358 98.3028 31.9202H91.2947ZM124.541 31.9202L119.257 20.2666H108.63L103.417 31.9202H102.978H99.2897H99.2697C100.586 30.2853 101.034 29.5277 101.961 27.4941L114.283 0.0996624H115.669L127.801 26.7265C129.097 29.3283 129.705 30.1358 131.559 31.9202H124.541ZM154.667 31.9402C151.487 29.0392 147.369 25.1913 142.216 19.0903C140.74 17.3657 139.703 17.1464 139.035 17.1065V26.9059C139.035 28.481 139.035 29.7271 139.933 31.9202H132.935C133.882 29.7271 133.822 28.4909 133.822 26.9059V5.09405C133.822 3.55885 133.882 2.21306 132.935 0.0797247H139.793C144.478 0.0797247 155.554 -0.338967 155.554 8.81244C155.554 13.6473 151.716 16.2492 147.21 16.9071L145.874 17.0367C145.874 17.0367 160.488 31.3221 161.116 31.9402H154.667ZM146.383 15.0828L146.373 15.0928C149.323 13.9763 150.32 11.1751 150.221 8.80247C150.111 6.5196 149.084 1.55511 139.045 1.95387V15.5215C139.045 15.5215 144.668 15.8305 146.243 15.1427C146.333 15.1028 146.383 15.0828 146.383 15.0828ZM109.647 18.0436H118.23L113.904 8.54328L109.647 18.0436ZM76.4112 18.0436H84.9944L80.6679 8.54328L76.4112 18.0436Z" fill="#3C3D3F"/>
</g>
<defs>
<clipPath id="clip0_238_6536">
<rect width="161.196" height="32" fill="white"/>
</clipPath>
</defs>
</svg>
