<!-- delete later -->
<svg width="395" height="170" viewBox="0 0 395 170" fill="none" xmlns="http://www.w3.org/2000/svg">
<path d="M55.1228 136.342C54.3887 137.614 54.822 139.245 56.1238 139.924C66.1992 145.18 77.5406 147.579 88.9139 146.834C101.173 146.03 112.918 141.609 122.665 134.131C132.411 126.652 139.721 116.451 143.67 104.817C147.619 93.1842 148.03 80.6411 144.85 68.7744C141.671 56.9077 135.044 46.2504 125.807 38.1502C116.57 30.0499 105.139 24.8705 92.9591 23.267C80.7789 21.6634 68.3967 23.7077 57.3784 29.1414C47.1561 34.1824 38.5336 41.9307 32.4359 51.52C31.6481 52.7589 32.0885 54.3885 33.3601 55.1226C34.6316 55.8567 36.2523 55.4171 37.0451 54.1813C42.6136 45.5013 50.451 38.4859 59.73 33.91C69.8052 28.9415 81.1275 27.0722 92.2651 28.5385C103.403 30.0048 113.855 34.7408 122.301 42.1477C130.747 49.5546 136.807 59.2996 139.715 70.1506C142.622 81.0015 142.247 92.4709 138.636 103.108C135.025 113.746 128.34 123.074 119.428 129.912C110.516 136.751 99.7758 140.793 88.5662 141.528C78.2423 142.205 67.9472 140.048 58.7848 135.315C57.4804 134.641 55.857 135.071 55.1228 136.342Z" fill="#3CBF58"/>
<path d="M27.6976 101.24C26.2862 101.644 24.8081 100.829 24.4641 99.4017C21.1917 85.8228 22.5929 71.533 28.4404 58.8483C29.0551 57.5149 30.6634 57.0023 31.9693 57.6734C33.2752 58.3445 33.7836 59.9449 33.1743 61.2808C27.9385 72.7591 26.6737 85.6583 29.5803 97.9351C29.9186 99.3638 29.109 100.835 27.6976 101.24Z" fill="#5C727D"/>
<path d="M28.98 105.187C27.6003 105.689 26.8836 107.217 27.4443 108.574C31.7621 119.023 38.8512 128.097 47.9451 134.814C49.1261 135.686 50.7824 135.36 51.6034 134.143C52.4244 132.926 52.0989 131.279 50.9214 130.401C42.7546 124.318 36.3725 116.149 32.4457 106.754C31.8795 105.399 30.3597 104.684 28.98 105.187Z" fill="#0043C5"/>
<path d="M76.3006 72.7021L78.8526 67.0621H79.6926L82.2446 72.7021H81.2046L80.6446 71.3981H77.8926L77.3406 72.7021H76.3006ZM79.2606 68.1741L78.2446 70.5821H80.2926L79.2766 68.1741H79.2606ZM82.8617 72.7021V67.0621H86.6137V67.8781H83.8457V69.4301H86.4377V70.2461H83.8457V71.8861H86.6137V72.7021H82.8617ZM87.6352 72.7021V67.0621H89.7312C90.6752 67.0621 91.4032 67.3048 91.9152 67.7901C92.4325 68.2755 92.6912 68.9715 92.6912 69.8781C92.6912 70.7795 92.4325 71.4755 91.9152 71.9661C91.4032 72.4568 90.6752 72.7021 89.7312 72.7021H87.6352ZM88.6592 71.8541H89.6672C90.9685 71.8541 91.6192 71.1955 91.6192 69.8781C91.6192 68.5661 90.9685 67.9101 89.6672 67.9101H88.6592V71.8541ZM41.4315 94.7021V92.6121L46.4475 87.2661C47.1222 86.5328 47.6062 85.8875 47.8995 85.3301C48.1928 84.7581 48.3395 84.1788 48.3395 83.5921C48.3395 82.0961 47.4375 81.3481 45.6335 81.3481C44.2255 81.3481 42.9275 81.8761 41.7395 82.9321L40.7935 80.8201C41.4095 80.2628 42.1795 79.8155 43.1035 79.4781C44.0275 79.1408 44.9882 78.9721 45.9855 78.9721C47.6428 78.9721 48.9115 79.3461 49.7915 80.0941C50.6862 80.8421 51.1335 81.9128 51.1335 83.3061C51.1335 84.2448 50.9062 85.1468 50.4515 86.0121C50.0115 86.8775 49.3148 87.8088 48.3615 88.8061L44.9515 92.3701H51.7275V94.7021H41.4315ZM55.3929 97.6281L54.2709 96.7481C54.6376 96.3815 54.9089 96.0295 55.0849 95.6921C55.2756 95.3695 55.4076 95.0395 55.4809 94.7021H54.0509V91.6441H57.1309V93.6681C57.1309 94.4161 56.9989 95.0981 56.7349 95.7141C56.4856 96.3448 56.0382 96.9828 55.3929 97.6281ZM64.9199 94.9221C63.0866 94.9221 61.6859 94.2328 60.7179 92.8541C59.7499 91.4608 59.2659 89.4808 59.2659 86.9141C59.2659 84.3181 59.7499 82.3455 60.7179 80.9961C61.6859 79.6468 63.0866 78.9721 64.9199 78.9721C66.7679 78.9721 68.1686 79.6468 69.1219 80.9961C70.0899 82.3455 70.5739 84.3108 70.5739 86.8921C70.5739 89.4735 70.0899 91.4608 69.1219 92.8541C68.1539 94.2328 66.7533 94.9221 64.9199 94.9221ZM64.9199 92.6121C65.9173 92.6121 66.6506 92.1575 67.1199 91.2481C67.6039 90.3241 67.8459 88.8721 67.8459 86.8921C67.8459 84.9268 67.6039 83.5041 67.1199 82.6241C66.6506 81.7295 65.9173 81.2821 64.9199 81.2821C63.9373 81.2821 63.2039 81.7295 62.7199 82.6241C62.2359 83.5041 61.9939 84.9268 61.9939 86.8921C61.9939 88.8721 62.2359 90.3241 62.7199 91.2481C63.2039 92.1575 63.9373 92.6121 64.9199 92.6121ZM78.6834 94.9221C76.762 94.9221 75.2734 94.2475 74.2174 92.8981C73.176 91.5488 72.6554 89.6568 72.6554 87.2221C72.6554 84.5968 73.242 82.5655 74.4154 81.1281C75.6034 79.6908 77.2387 78.9721 79.3214 78.9721C80.1427 78.9721 80.9567 79.1261 81.7634 79.4341C82.57 79.7275 83.2594 80.1528 83.8314 80.7101L82.9074 82.8221C82.3647 82.3235 81.7854 81.9568 81.1694 81.7221C80.5534 81.4728 79.9227 81.3481 79.2774 81.3481C78.0014 81.3481 77.026 81.7955 76.3514 82.6901C75.6767 83.5848 75.3394 84.9195 75.3394 86.6941V87.3321C75.6474 86.5255 76.146 85.8948 76.8354 85.4401C77.5247 84.9855 78.3167 84.7581 79.2114 84.7581C80.106 84.7581 80.898 84.9708 81.5874 85.3961C82.2767 85.8215 82.8194 86.4081 83.2154 87.1561C83.6114 87.9041 83.8094 88.7621 83.8094 89.7301C83.8094 90.7275 83.5894 91.6221 83.1494 92.4141C82.724 93.1915 82.1227 93.8075 81.3454 94.2621C80.5827 94.7021 79.6954 94.9221 78.6834 94.9221ZM78.5294 92.6781C79.3214 92.6781 79.9594 92.4215 80.4434 91.9081C80.942 91.3801 81.1914 90.6908 81.1914 89.8401C81.1914 88.9895 80.942 88.3001 80.4434 87.7721C79.9594 87.2441 79.3214 86.9801 78.5294 86.9801C77.7374 86.9801 77.092 87.2441 76.5934 87.7721C76.1094 88.3001 75.8674 88.9895 75.8674 89.8401C75.8674 90.6908 76.1094 91.3801 76.5934 91.9081C77.092 92.4215 77.7374 92.6781 78.5294 92.6781ZM86.4628 94.7021V92.6121L91.4788 87.2661C92.1534 86.5328 92.6374 85.8875 92.9308 85.3301C93.2241 84.7581 93.3708 84.1788 93.3708 83.5921C93.3708 82.0961 92.4688 81.3481 90.6648 81.3481C89.2568 81.3481 87.9588 81.8761 86.7708 82.9321L85.8248 80.8201C86.4408 80.2628 87.2108 79.8155 88.1348 79.4781C89.0588 79.1408 90.0194 78.9721 91.0168 78.9721C92.6741 78.9721 93.9428 79.3461 94.8228 80.0941C95.7174 80.8421 96.1648 81.9128 96.1648 83.3061C96.1648 84.2448 95.9374 85.1468 95.4828 86.0121C95.0428 86.8775 94.3461 87.8088 93.3928 88.8061L89.9828 92.3701H96.7588V94.7021H86.4628ZM99.0822 94.7021V91.6441H102.162V94.7021H99.0822ZM109.951 94.9221C108.118 94.9221 106.717 94.2328 105.749 92.8541C104.781 91.4608 104.297 89.4808 104.297 86.9141C104.297 84.3181 104.781 82.3455 105.749 80.9961C106.717 79.6468 108.118 78.9721 109.951 78.9721C111.799 78.9721 113.2 79.6468 114.153 80.9961C115.121 82.3455 115.605 84.3108 115.605 86.8921C115.605 89.4735 115.121 91.4608 114.153 92.8541C113.185 94.2328 111.785 94.9221 109.951 94.9221ZM109.951 92.6121C110.949 92.6121 111.682 92.1575 112.151 91.2481C112.635 90.3241 112.877 88.8721 112.877 86.8921C112.877 84.9268 112.635 83.5041 112.151 82.6241C111.682 81.7295 110.949 81.2821 109.951 81.2821C108.969 81.2821 108.235 81.7295 107.751 82.6241C107.267 83.5041 107.025 84.9268 107.025 86.8921C107.025 88.8721 107.267 90.3241 107.751 91.2481C108.235 92.1575 108.969 92.6121 109.951 92.6121ZM123.275 94.9221C122.263 94.9221 121.28 94.7681 120.327 94.4601C119.373 94.1375 118.596 93.7048 117.995 93.1621L118.919 91.0061C120.253 92.0328 121.691 92.5461 123.231 92.5461C124.155 92.5461 124.873 92.3115 125.387 91.8421C125.915 91.3581 126.179 90.7128 126.179 89.9061C126.179 89.0848 125.929 88.4248 125.431 87.9261C124.932 87.4128 124.25 87.1561 123.385 87.1561C122.153 87.1561 121.133 87.6475 120.327 88.6301H118.435V79.1921H127.961V81.5241H121.185V85.7261C121.962 85.1395 122.915 84.8461 124.045 84.8461C125.027 84.8461 125.878 85.0588 126.597 85.4841C127.33 85.8948 127.895 86.4741 128.291 87.2221C128.701 87.9555 128.907 88.8135 128.907 89.7961C128.907 90.8081 128.679 91.7028 128.225 92.4801C127.77 93.2428 127.117 93.8441 126.267 94.2841C125.431 94.7095 124.433 94.9221 123.275 94.9221Z" fill="#3CBF58"/>
<path d="M58.6628 109.862V101.882H59.3948V102.974C59.5708 102.606 59.8348 102.314 60.1868 102.098C60.5468 101.882 60.9628 101.774 61.4348 101.774C61.9548 101.774 62.4068 101.898 62.7908 102.146C63.1828 102.394 63.4828 102.742 63.6908 103.19C63.9068 103.638 64.0148 104.17 64.0148 104.786C64.0148 105.402 63.9068 105.938 63.6908 106.394C63.4828 106.842 63.1828 107.19 62.7908 107.438C62.4068 107.678 61.9548 107.798 61.4348 107.798C60.9628 107.798 60.5468 107.694 60.1868 107.486C59.8348 107.278 59.5708 106.99 59.3948 106.622V109.862H58.6628ZM61.3268 107.186C61.9188 107.186 62.3908 106.978 62.7428 106.562C63.0948 106.138 63.2708 105.546 63.2708 104.786C63.2708 104.026 63.0948 103.438 62.7428 103.022C62.3908 102.606 61.9188 102.398 61.3268 102.398C60.7348 102.398 60.2628 102.606 59.9108 103.022C59.5588 103.438 59.3828 104.026 59.3828 104.786C59.3828 105.546 59.5588 106.138 59.9108 106.562C60.2628 106.978 60.7348 107.186 61.3268 107.186ZM68.0971 107.798C67.2011 107.798 66.4931 107.534 65.9731 107.006C65.4611 106.47 65.2051 105.738 65.2051 104.81C65.2051 104.21 65.3211 103.682 65.5531 103.226C65.7851 102.77 66.1051 102.414 66.5131 102.158C66.9291 101.902 67.4051 101.774 67.9411 101.774C68.7171 101.774 69.3211 102.026 69.7531 102.53C70.1851 103.034 70.4011 103.726 70.4011 104.606V104.942H65.9251C65.9491 105.662 66.1451 106.218 66.5131 106.61C66.8891 106.994 67.4091 107.186 68.0731 107.186C68.4331 107.186 68.7691 107.13 69.0811 107.018C69.4011 106.906 69.7131 106.718 70.0171 106.454L70.3051 107.006C70.0491 107.254 69.7211 107.45 69.3211 107.594C68.9211 107.73 68.5131 107.798 68.0971 107.798ZM67.9531 102.362C67.3451 102.362 66.8691 102.554 66.5251 102.938C66.1891 103.314 65.9931 103.802 65.9371 104.402H69.7411C69.7251 103.762 69.5651 103.262 69.2611 102.902C68.9571 102.542 68.5211 102.362 67.9531 102.362ZM71.8932 107.702V101.882H72.6132V102.938C72.7812 102.57 73.0252 102.29 73.3452 102.098C73.6652 101.906 74.0732 101.794 74.5692 101.762L74.8692 101.738L74.9412 102.374L74.4252 102.434C73.8572 102.482 73.4172 102.67 73.1052 102.998C72.7932 103.318 72.6372 103.75 72.6372 104.294V107.702H71.8932ZM79.0305 107.702V101.882H79.7505V102.902C80.1105 102.15 80.7225 101.774 81.5865 101.774C82.5145 101.774 83.1025 102.178 83.3505 102.986C83.5185 102.61 83.7745 102.314 84.1185 102.098C84.4625 101.882 84.8625 101.774 85.3185 101.774C86.6065 101.774 87.2505 102.526 87.2505 104.03V107.702H86.5185V104.09C86.5185 103.514 86.4145 103.09 86.2065 102.818C86.0065 102.546 85.6665 102.41 85.1865 102.41C84.6745 102.41 84.2665 102.59 83.9625 102.95C83.6585 103.302 83.5065 103.782 83.5065 104.39V107.702H82.7745V104.09C82.7745 103.514 82.6705 103.09 82.4625 102.818C82.2625 102.546 81.9265 102.41 81.4545 102.41C80.9345 102.41 80.5225 102.59 80.2185 102.95C79.9145 103.302 79.7625 103.782 79.7625 104.39V107.702H79.0305ZM91.4827 107.798C90.9387 107.798 90.4667 107.678 90.0667 107.438C89.6667 107.19 89.3547 106.842 89.1307 106.394C88.9147 105.938 88.8067 105.402 88.8067 104.786C88.8067 104.178 88.9147 103.65 89.1307 103.202C89.3547 102.746 89.6667 102.394 90.0667 102.146C90.4667 101.898 90.9387 101.774 91.4827 101.774C92.0347 101.774 92.5107 101.898 92.9107 102.146C93.3107 102.394 93.6187 102.746 93.8347 103.202C94.0587 103.65 94.1707 104.178 94.1707 104.786C94.1707 105.402 94.0587 105.938 93.8347 106.394C93.6187 106.842 93.3107 107.19 92.9107 107.438C92.5107 107.678 92.0347 107.798 91.4827 107.798ZM91.4827 107.186C92.0747 107.186 92.5467 106.978 92.8987 106.562C93.2507 106.138 93.4267 105.546 93.4267 104.786C93.4267 104.026 93.2507 103.438 92.8987 103.022C92.5467 102.606 92.0747 102.398 91.4827 102.398C90.8907 102.398 90.4187 102.606 90.0667 103.022C89.7227 103.438 89.5507 104.026 89.5507 104.786C89.5507 105.546 89.7227 106.138 90.0667 106.562C90.4187 106.978 90.8907 107.186 91.4827 107.186ZM95.7292 107.702V101.882H96.4492V102.926C96.6412 102.542 96.9172 102.254 97.2772 102.062C97.6372 101.87 98.0372 101.774 98.4772 101.774C99.8612 101.774 100.553 102.526 100.553 104.03V107.702H99.8212V104.09C99.8212 103.514 99.7052 103.09 99.4732 102.818C99.2412 102.546 98.8732 102.41 98.3692 102.41C97.7932 102.41 97.3292 102.59 96.9772 102.95C96.6332 103.302 96.4612 103.778 96.4612 104.378V107.702H95.7292ZM104.64 107.798C103.992 107.798 103.504 107.622 103.176 107.27C102.856 106.918 102.696 106.414 102.696 105.758V102.47H101.544V101.882H102.696V100.082H103.428V101.882H105.312V102.47H103.428V105.662C103.428 106.15 103.528 106.522 103.728 106.778C103.928 107.034 104.26 107.162 104.724 107.162C104.86 107.162 104.992 107.146 105.12 107.114C105.248 107.082 105.36 107.046 105.456 107.006L105.6 107.582C105.512 107.638 105.372 107.686 105.18 107.726C104.988 107.774 104.808 107.798 104.64 107.798ZM106.464 107.702V99.2421H107.196V102.89C107.396 102.522 107.672 102.246 108.024 102.062C108.384 101.87 108.78 101.774 109.212 101.774C110.596 101.774 111.288 102.526 111.288 104.03V107.702H110.556V104.09C110.556 103.514 110.44 103.09 110.208 102.818C109.976 102.546 109.608 102.41 109.104 102.41C108.528 102.41 108.064 102.59 107.712 102.95C107.368 103.302 107.196 103.778 107.196 104.378V107.702H106.464Z" fill="black" fill-opacity="0.25"/>
<rect x="169.703" y="35.8516" width="151" height="36" rx="12" fill="#F7F7F7"/>
<circle cx="177.203" cy="53.8516" r="3.5" fill="#3CBF58"/>
<path d="M189.747 57.8516V49.3916H193.095C194.007 49.3916 194.703 49.6116 195.183 50.0516C195.671 50.4916 195.915 51.1196 195.915 51.9356C195.915 52.7436 195.671 53.3716 195.183 53.8196C194.703 54.2596 194.007 54.4796 193.095 54.4796H190.731V57.8516H189.747ZM190.731 53.6516H192.975C194.287 53.6516 194.943 53.0796 194.943 51.9356C194.943 50.7836 194.287 50.2076 192.975 50.2076H190.731V53.6516ZM197.091 57.8516V52.0196H198.039V53.0636C198.351 52.3596 198.991 51.9716 199.959 51.8996L200.307 51.8636L200.379 52.7036L199.767 52.7756C199.215 52.8236 198.795 52.9996 198.507 53.3036C198.219 53.5996 198.075 54.0076 198.075 54.5276V57.8516H197.091ZM201.272 50.5676V49.4756H202.472V50.5676H201.272ZM201.392 57.8516V52.0196H202.364V57.8516H201.392ZM204.181 57.8516V52.0196H205.129V53.0156C205.321 52.6476 205.593 52.3716 205.945 52.1876C206.297 52.0036 206.693 51.9116 207.133 51.9116C208.517 51.9116 209.209 52.6796 209.209 54.2156V57.8516H208.237V54.2756C208.237 53.7316 208.129 53.3356 207.913 53.0876C207.705 52.8316 207.369 52.7036 206.905 52.7036C206.369 52.7036 205.941 52.8716 205.621 53.2076C205.309 53.5356 205.153 53.9756 205.153 54.5276V57.8516H204.181ZM213.473 57.9596C212.889 57.9596 212.385 57.8356 211.961 57.5876C211.537 57.3316 211.209 56.9756 210.977 56.5196C210.753 56.0556 210.641 55.5156 210.641 54.8996C210.641 53.9716 210.893 53.2436 211.397 52.7156C211.901 52.1796 212.593 51.9116 213.473 51.9116C213.833 51.9116 214.189 51.9756 214.541 52.1036C214.893 52.2316 215.185 52.4116 215.417 52.6436L215.081 53.3516C214.849 53.1276 214.593 52.9636 214.313 52.8596C214.041 52.7556 213.781 52.7036 213.533 52.7036C212.925 52.7036 212.457 52.8956 212.129 53.2796C211.801 53.6556 211.637 54.1996 211.637 54.9116C211.637 55.6076 211.801 56.1596 212.129 56.5676C212.457 56.9676 212.925 57.1676 213.533 57.1676C213.781 57.1676 214.041 57.1156 214.313 57.0116C214.593 56.9076 214.849 56.7396 215.081 56.5076L215.417 57.2156C215.185 57.4476 214.889 57.6316 214.529 57.7676C214.177 57.8956 213.825 57.9596 213.473 57.9596ZM216.436 50.5676V49.4756H217.636V50.5676H216.436ZM216.556 57.8516V52.0196H217.528V57.8516H216.556ZM219.345 60.0116V52.0196H220.293V53.0636C220.469 52.7036 220.729 52.4236 221.073 52.2236C221.425 52.0156 221.833 51.9116 222.297 51.9116C222.817 51.9116 223.269 52.0356 223.653 52.2836C224.045 52.5236 224.345 52.8716 224.553 53.3276C224.769 53.7756 224.877 54.3116 224.877 54.9356C224.877 55.5516 224.769 56.0876 224.553 56.5436C224.345 56.9916 224.045 57.3396 223.653 57.5876C223.269 57.8356 222.817 57.9596 222.297 57.9596C221.849 57.9596 221.449 57.8596 221.097 57.6596C220.745 57.4596 220.485 57.1836 220.317 56.8316V60.0116H219.345ZM222.093 57.1796C222.637 57.1796 223.073 56.9876 223.401 56.6036C223.729 56.2116 223.893 55.6556 223.893 54.9356C223.893 54.2076 223.729 53.6516 223.401 53.2676C223.073 52.8836 222.637 52.6916 222.093 52.6916C221.549 52.6916 221.113 52.8836 220.785 53.2676C220.457 53.6516 220.293 54.2076 220.293 54.9356C220.293 55.6556 220.457 56.2116 220.785 56.6036C221.113 56.9876 221.549 57.1796 222.093 57.1796ZM228.177 57.9596C227.777 57.9596 227.417 57.8836 227.097 57.7316C226.785 57.5716 226.537 57.3556 226.353 57.0836C226.169 56.8116 226.077 56.5076 226.077 56.1716C226.077 55.7476 226.185 55.4116 226.401 55.1636C226.625 54.9156 226.989 54.7396 227.493 54.6356C228.005 54.5236 228.701 54.4676 229.581 54.4676H229.965V54.0956C229.965 53.5996 229.861 53.2436 229.653 53.0276C229.453 52.8036 229.129 52.6916 228.681 52.6916C228.329 52.6916 227.989 52.7436 227.661 52.8476C227.333 52.9436 226.997 53.1036 226.653 53.3276L226.317 52.6196C226.621 52.4036 226.989 52.2316 227.421 52.1036C227.861 51.9756 228.281 51.9116 228.681 51.9116C229.433 51.9116 229.989 52.0956 230.349 52.4636C230.717 52.8316 230.901 53.4036 230.901 54.1796V57.8516H229.989V56.8436C229.837 57.1876 229.601 57.4596 229.281 57.6596C228.969 57.8596 228.601 57.9596 228.177 57.9596ZM228.333 57.2276C228.813 57.2276 229.205 57.0636 229.509 56.7356C229.813 56.3996 229.965 55.9756 229.965 55.4636V55.1036H229.593C228.945 55.1036 228.433 55.1356 228.057 55.1996C227.689 55.2556 227.429 55.3596 227.277 55.5116C227.133 55.6556 227.061 55.8556 227.061 56.1116C227.061 56.4396 227.173 56.7076 227.397 56.9156C227.629 57.1236 227.941 57.2276 228.333 57.2276ZM234.493 57.9596C233.901 57.9596 233.453 57.7876 233.149 57.4436C232.853 57.0916 232.705 56.5836 232.705 55.9196V49.3916H233.677V55.8476C233.677 56.7036 234.017 57.1316 234.697 57.1316C234.897 57.1316 235.077 57.1076 235.237 57.0596L235.213 57.8756C234.965 57.9316 234.725 57.9596 234.493 57.9596ZM241.173 57.9596C240.773 57.9596 240.413 57.8836 240.093 57.7316C239.781 57.5716 239.533 57.3556 239.349 57.0836C239.165 56.8116 239.073 56.5076 239.073 56.1716C239.073 55.7476 239.181 55.4116 239.397 55.1636C239.621 54.9156 239.985 54.7396 240.489 54.6356C241.001 54.5236 241.697 54.4676 242.577 54.4676H242.961V54.0956C242.961 53.5996 242.857 53.2436 242.649 53.0276C242.449 52.8036 242.125 52.6916 241.677 52.6916C241.325 52.6916 240.985 52.7436 240.657 52.8476C240.329 52.9436 239.993 53.1036 239.649 53.3276L239.313 52.6196C239.617 52.4036 239.985 52.2316 240.417 52.1036C240.857 51.9756 241.277 51.9116 241.677 51.9116C242.429 51.9116 242.985 52.0956 243.345 52.4636C243.713 52.8316 243.897 53.4036 243.897 54.1796V57.8516H242.985V56.8436C242.833 57.1876 242.597 57.4596 242.277 57.6596C241.965 57.8596 241.597 57.9596 241.173 57.9596ZM241.329 57.2276C241.809 57.2276 242.201 57.0636 242.505 56.7356C242.809 56.3996 242.961 55.9756 242.961 55.4636V55.1036H242.589C241.941 55.1036 241.429 55.1356 241.053 55.1996C240.685 55.2556 240.425 55.3596 240.273 55.5116C240.129 55.6556 240.057 55.8556 240.057 56.1116C240.057 56.4396 240.169 56.7076 240.393 56.9156C240.625 57.1236 240.937 57.2276 241.329 57.2276ZM245.725 57.8516V52.0196H246.673V53.0036C246.849 52.6516 247.093 52.3836 247.405 52.1996C247.717 52.0076 248.081 51.9116 248.497 51.9116C249.409 51.9116 249.993 52.3076 250.249 53.0996C250.425 52.7316 250.685 52.4436 251.029 52.2356C251.373 52.0196 251.769 51.9116 252.217 51.9116C253.513 51.9116 254.161 52.6796 254.161 54.2156V57.8516H253.189V54.2636C253.189 53.7276 253.093 53.3356 252.901 53.0876C252.717 52.8316 252.409 52.7036 251.977 52.7036C251.505 52.7036 251.129 52.8716 250.849 53.2076C250.569 53.5436 250.429 53.9916 250.429 54.5516V57.8516H249.457V54.2636C249.457 53.7276 249.361 53.3356 249.169 53.0876C248.985 52.8316 248.677 52.7036 248.245 52.7036C247.765 52.7036 247.385 52.8716 247.105 53.2076C246.833 53.5436 246.697 53.9916 246.697 54.5516V57.8516H245.725ZM258.402 57.9596C257.834 57.9596 257.342 57.8356 256.926 57.5876C256.51 57.3396 256.186 56.9916 255.954 56.5436C255.73 56.0876 255.618 55.5516 255.618 54.9356C255.618 54.3196 255.73 53.7876 255.954 53.3396C256.186 52.8836 256.51 52.5316 256.926 52.2836C257.342 52.0356 257.834 51.9116 258.402 51.9116C258.962 51.9116 259.45 52.0356 259.866 52.2836C260.29 52.5316 260.614 52.8836 260.838 53.3396C261.07 53.7876 261.186 54.3196 261.186 54.9356C261.186 55.5516 261.07 56.0876 260.838 56.5436C260.614 56.9916 260.29 57.3396 259.866 57.5876C259.45 57.8356 258.962 57.9596 258.402 57.9596ZM258.402 57.1796C258.946 57.1796 259.382 56.9876 259.71 56.6036C260.038 56.2116 260.202 55.6556 260.202 54.9356C260.202 54.2076 260.038 53.6516 259.71 53.2676C259.382 52.8836 258.946 52.6916 258.402 52.6916C257.85 52.6916 257.41 52.8836 257.082 53.2676C256.762 53.6516 256.602 54.2076 256.602 54.9356C256.602 55.6556 256.762 56.2116 257.082 56.6036C257.41 56.9876 257.85 57.1796 258.402 57.1796ZM264.71 57.9596C263.31 57.9596 262.61 57.1876 262.61 55.6436V52.0196H263.582V55.6316C263.582 56.1516 263.686 56.5356 263.894 56.7836C264.11 57.0316 264.446 57.1556 264.902 57.1556C265.398 57.1556 265.802 56.9916 266.114 56.6636C266.426 56.3276 266.582 55.8836 266.582 55.3316V52.0196H267.554V57.8516H266.606V56.8676C266.422 57.2196 266.162 57.4916 265.826 57.6836C265.498 57.8676 265.126 57.9596 264.71 57.9596ZM269.373 57.8516V52.0196H270.321V53.0156C270.513 52.6476 270.785 52.3716 271.137 52.1876C271.489 52.0036 271.885 51.9116 272.325 51.9116C273.709 51.9116 274.401 52.6796 274.401 54.2156V57.8516H273.429V54.2756C273.429 53.7316 273.321 53.3356 273.105 53.0876C272.897 52.8316 272.561 52.7036 272.097 52.7036C271.561 52.7036 271.133 52.8716 270.813 53.2076C270.501 53.5356 270.345 53.9756 270.345 54.5276V57.8516H269.373ZM278.533 57.9596C277.845 57.9596 277.329 57.7796 276.985 57.4196C276.641 57.0516 276.469 56.5236 276.469 55.8356V52.7756H275.329V52.0196H276.469V50.2316H277.441V52.0196H279.289V52.7756H277.441V55.7396C277.441 56.1956 277.537 56.5436 277.729 56.7836C277.921 57.0156 278.233 57.1316 278.665 57.1316C278.793 57.1316 278.921 57.1156 279.049 57.0836C279.177 57.0516 279.293 57.0196 279.397 56.9876L279.565 57.7316C279.461 57.7876 279.309 57.8396 279.109 57.8876C278.909 57.9356 278.717 57.9596 278.533 57.9596Z" fill="#333333"/>
<g clip-path="url(#clip0_575_8944)">
<rect x="169.703" y="77.3516" width="100" height="22" rx="11" fill="#F7F7F7"/>
<circle cx="177.203" cy="88.3516" r="3.5" fill="#0043C5"/>
<path d="M189.747 92.3516V83.8916H190.731V92.3516H189.747ZM192.685 92.3516V86.5196H193.633V87.5156C193.825 87.1476 194.097 86.8716 194.449 86.6876C194.801 86.5036 195.197 86.4116 195.637 86.4116C197.021 86.4116 197.713 87.1796 197.713 88.7156V92.3516H196.741V88.7756C196.741 88.2316 196.633 87.8356 196.417 87.5876C196.209 87.3316 195.873 87.2036 195.409 87.2036C194.873 87.2036 194.445 87.3716 194.125 87.7076C193.813 88.0356 193.657 88.4756 193.657 89.0276V92.3516H192.685ZM201.845 92.4596C201.157 92.4596 200.641 92.2796 200.297 91.9196C199.953 91.5516 199.781 91.0236 199.781 90.3356V87.2756H198.641V86.5196H199.781V84.7316H200.753V86.5196H202.601V87.2756H200.753V90.2396C200.753 90.6956 200.849 91.0436 201.041 91.2836C201.233 91.5156 201.545 91.6316 201.977 91.6316C202.105 91.6316 202.233 91.6156 202.361 91.5836C202.489 91.5516 202.605 91.5196 202.709 91.4876L202.877 92.2316C202.773 92.2876 202.621 92.3396 202.421 92.3876C202.221 92.4356 202.029 92.4596 201.845 92.4596ZM206.27 92.4596C205.35 92.4596 204.622 92.1916 204.086 91.6556C203.55 91.1116 203.282 90.3756 203.282 89.4476C203.282 88.8476 203.402 88.3196 203.642 87.8636C203.882 87.3996 204.21 87.0436 204.626 86.7956C205.05 86.5396 205.538 86.4116 206.09 86.4116C206.882 86.4116 207.502 86.6676 207.95 87.1796C208.398 87.6836 208.622 88.3796 208.622 89.2676V89.6396H204.23C204.262 90.3036 204.454 90.8116 204.806 91.1636C205.158 91.5076 205.646 91.6796 206.27 91.6796C206.622 91.6796 206.958 91.6276 207.278 91.5236C207.598 91.4116 207.902 91.2316 208.19 90.9836L208.526 91.6676C208.262 91.9156 207.926 92.1116 207.518 92.2556C207.11 92.3916 206.694 92.4596 206.27 92.4596ZM206.114 87.1316C205.562 87.1316 205.126 87.3036 204.806 87.6476C204.486 87.9916 204.298 88.4436 204.242 89.0036H207.782C207.758 88.4116 207.602 87.9516 207.314 87.6236C207.034 87.2956 206.634 87.1316 206.114 87.1316ZM210.029 92.3516V86.5196H210.977V87.5636C211.289 86.8596 211.929 86.4716 212.897 86.3996L213.245 86.3636L213.317 87.2036L212.705 87.2756C212.153 87.3236 211.733 87.4996 211.445 87.8036C211.157 88.0996 211.013 88.5076 211.013 89.0276V92.3516H210.029ZM216.887 92.4596C215.967 92.4596 215.239 92.1916 214.703 91.6556C214.167 91.1116 213.899 90.3756 213.899 89.4476C213.899 88.8476 214.019 88.3196 214.259 87.8636C214.499 87.3996 214.827 87.0436 215.243 86.7956C215.667 86.5396 216.155 86.4116 216.707 86.4116C217.499 86.4116 218.119 86.6676 218.567 87.1796C219.015 87.6836 219.239 88.3796 219.239 89.2676V89.6396H214.847C214.879 90.3036 215.071 90.8116 215.423 91.1636C215.775 91.5076 216.263 91.6796 216.887 91.6796C217.239 91.6796 217.575 91.6276 217.895 91.5236C218.215 91.4116 218.519 91.2316 218.807 90.9836L219.143 91.6676C218.879 91.9156 218.543 92.1116 218.135 92.2556C217.727 92.3916 217.311 92.4596 216.887 92.4596ZM216.731 87.1316C216.179 87.1316 215.743 87.3036 215.423 87.6476C215.103 87.9916 214.915 88.4436 214.859 89.0036H218.399C218.375 88.4116 218.219 87.9516 217.931 87.6236C217.651 87.2956 217.251 87.1316 216.731 87.1316ZM222.614 92.4596C222.158 92.4596 221.726 92.3956 221.318 92.2676C220.91 92.1396 220.574 91.9596 220.31 91.7276L220.622 91.0436C220.91 91.2756 221.226 91.4476 221.57 91.5596C221.922 91.6636 222.278 91.7156 222.638 91.7156C223.094 91.7156 223.438 91.6316 223.67 91.4636C223.902 91.2956 224.018 91.0676 224.018 90.7796C224.018 90.5556 223.942 90.3796 223.79 90.2516C223.638 90.1156 223.398 90.0116 223.07 89.9396L221.978 89.6996C220.986 89.4836 220.49 88.9716 220.49 88.1636C220.49 87.6356 220.698 87.2116 221.114 86.8916C221.538 86.5716 222.09 86.4116 222.77 86.4116C223.17 86.4116 223.55 86.4756 223.91 86.6036C224.278 86.7236 224.582 86.9036 224.822 87.1436L224.498 87.8276C224.266 87.6116 223.994 87.4476 223.682 87.3356C223.378 87.2156 223.074 87.1556 222.77 87.1556C222.322 87.1556 221.982 87.2436 221.75 87.4196C221.518 87.5956 221.402 87.8276 221.402 88.1156C221.402 88.5636 221.698 88.8516 222.29 88.9796L223.382 89.2076C223.894 89.3196 224.282 89.4996 224.546 89.7476C224.81 89.9876 224.942 90.3156 224.942 90.7316C224.942 91.2676 224.73 91.6916 224.306 92.0036C223.882 92.3076 223.318 92.4596 222.614 92.4596ZM228.705 92.4596C228.017 92.4596 227.501 92.2796 227.157 91.9196C226.813 91.5516 226.641 91.0236 226.641 90.3356V87.2756H225.501V86.5196H226.641V84.7316H227.613V86.5196H229.461V87.2756H227.613V90.2396C227.613 90.6956 227.709 91.0436 227.901 91.2836C228.093 91.5156 228.405 91.6316 228.837 91.6316C228.965 91.6316 229.093 91.6156 229.221 91.5836C229.349 91.5516 229.465 91.5196 229.569 91.4876L229.737 92.2316C229.633 92.2876 229.481 92.3396 229.281 92.3876C229.081 92.4356 228.889 92.4596 228.705 92.4596Z" fill="#333333"/>
</g>
<g clip-path="url(#clip1_575_8944)">
<rect x="169.703" y="108.352" width="100" height="22" rx="11" fill="#F7F7F7"/>
<circle cx="177.203" cy="119.352" r="3.5" fill="#5C727D"/>
<path d="M193.299 123.46C192.515 123.46 191.831 123.284 191.247 122.932C190.671 122.572 190.223 122.068 189.903 121.42C189.591 120.772 189.435 120.004 189.435 119.116C189.435 118.228 189.591 117.46 189.903 116.812C190.215 116.164 190.659 115.664 191.235 115.312C191.819 114.96 192.507 114.784 193.299 114.784C194.099 114.784 194.787 114.96 195.363 115.312C195.947 115.664 196.395 116.164 196.707 116.812C197.027 117.452 197.187 118.216 197.187 119.104C197.187 119.992 197.027 120.764 196.707 121.42C196.387 122.068 195.935 122.572 195.351 122.932C194.775 123.284 194.091 123.46 193.299 123.46ZM193.299 122.584C194.203 122.584 194.903 122.28 195.399 121.672C195.895 121.064 196.143 120.212 196.143 119.116C196.143 118.02 195.895 117.172 195.399 116.572C194.903 115.964 194.203 115.66 193.299 115.66C192.411 115.66 191.719 115.964 191.223 116.572C190.727 117.172 190.479 118.02 190.479 119.116C190.479 120.204 190.727 121.056 191.223 121.672C191.719 122.28 192.411 122.584 193.299 122.584ZM201.154 123.46C200.466 123.46 199.95 123.28 199.606 122.92C199.262 122.552 199.09 122.024 199.09 121.336V118.276H197.95V117.52H199.09V115.732H200.062V117.52H201.91V118.276H200.062V121.24C200.062 121.696 200.158 122.044 200.35 122.284C200.542 122.516 200.854 122.632 201.286 122.632C201.414 122.632 201.542 122.616 201.67 122.584C201.798 122.552 201.914 122.52 202.018 122.488L202.186 123.232C202.082 123.288 201.93 123.34 201.73 123.388C201.53 123.436 201.338 123.46 201.154 123.46ZM203.009 123.352V114.892H203.981V118.48C204.173 118.128 204.441 117.864 204.785 117.688C205.137 117.504 205.529 117.412 205.961 117.412C207.345 117.412 208.037 118.18 208.037 119.716V123.352H207.065V119.776C207.065 119.232 206.957 118.836 206.741 118.588C206.533 118.332 206.197 118.204 205.733 118.204C205.197 118.204 204.769 118.372 204.449 118.708C204.137 119.036 203.981 119.476 203.981 120.028V123.352H203.009ZM212.458 123.46C211.538 123.46 210.81 123.192 210.274 122.656C209.738 122.112 209.47 121.376 209.47 120.448C209.47 119.848 209.59 119.32 209.83 118.864C210.07 118.4 210.398 118.044 210.814 117.796C211.238 117.54 211.726 117.412 212.278 117.412C213.07 117.412 213.69 117.668 214.138 118.18C214.586 118.684 214.81 119.38 214.81 120.268V120.64H210.418C210.45 121.304 210.642 121.812 210.994 122.164C211.346 122.508 211.834 122.68 212.458 122.68C212.81 122.68 213.146 122.628 213.466 122.524C213.786 122.412 214.09 122.232 214.378 121.984L214.714 122.668C214.45 122.916 214.114 123.112 213.706 123.256C213.298 123.392 212.882 123.46 212.458 123.46ZM212.302 118.132C211.75 118.132 211.314 118.304 210.994 118.648C210.674 118.992 210.486 119.444 210.43 120.004H213.97C213.946 119.412 213.79 118.952 213.502 118.624C213.222 118.296 212.822 118.132 212.302 118.132ZM216.216 123.352V117.52H217.164V118.564C217.476 117.86 218.116 117.472 219.084 117.4L219.432 117.364L219.504 118.204L218.892 118.276C218.34 118.324 217.92 118.5 217.632 118.804C217.344 119.1 217.2 119.508 217.2 120.028V123.352H216.216ZM223.731 123.352V114.892H229.071V115.72H224.691V118.648H228.819V119.476H224.691V122.524H229.071V123.352H223.731ZM229.851 123.352L232.275 120.34L229.995 117.52H231.147L232.839 119.668L234.543 117.52H235.683L233.403 120.34L235.827 123.352H234.675L232.827 121.036L231.003 123.352H229.851ZM236.9 125.512V117.52H237.848V118.564C238.024 118.204 238.284 117.924 238.628 117.724C238.98 117.516 239.388 117.412 239.852 117.412C240.372 117.412 240.824 117.536 241.208 117.784C241.6 118.024 241.9 118.372 242.108 118.828C242.324 119.276 242.432 119.812 242.432 120.436C242.432 121.052 242.324 121.588 242.108 122.044C241.9 122.492 241.6 122.84 241.208 123.088C240.824 123.336 240.372 123.46 239.852 123.46C239.404 123.46 239.004 123.36 238.652 123.16C238.3 122.96 238.04 122.684 237.872 122.332V125.512H236.9ZM239.648 122.68C240.192 122.68 240.628 122.488 240.956 122.104C241.284 121.712 241.448 121.156 241.448 120.436C241.448 119.708 241.284 119.152 240.956 118.768C240.628 118.384 240.192 118.192 239.648 118.192C239.104 118.192 238.668 118.384 238.34 118.768C238.012 119.152 237.848 119.708 237.848 120.436C237.848 121.156 238.012 121.712 238.34 122.104C238.668 122.488 239.104 122.68 239.648 122.68ZM246.524 123.46C245.604 123.46 244.876 123.192 244.34 122.656C243.804 122.112 243.536 121.376 243.536 120.448C243.536 119.848 243.656 119.32 243.896 118.864C244.136 118.4 244.464 118.044 244.88 117.796C245.304 117.54 245.792 117.412 246.344 117.412C247.136 117.412 247.756 117.668 248.204 118.18C248.652 118.684 248.876 119.38 248.876 120.268V120.64H244.484C244.516 121.304 244.708 121.812 245.06 122.164C245.412 122.508 245.9 122.68 246.524 122.68C246.876 122.68 247.212 122.628 247.532 122.524C247.852 122.412 248.156 122.232 248.444 121.984L248.78 122.668C248.516 122.916 248.18 123.112 247.772 123.256C247.364 123.392 246.948 123.46 246.524 123.46ZM246.368 118.132C245.816 118.132 245.38 118.304 245.06 118.648C244.74 118.992 244.552 119.444 244.496 120.004H248.036C248.012 119.412 247.856 118.952 247.568 118.624C247.288 118.296 246.888 118.132 246.368 118.132ZM250.283 123.352V117.52H251.231V118.516C251.423 118.148 251.695 117.872 252.047 117.688C252.399 117.504 252.795 117.412 253.235 117.412C254.619 117.412 255.311 118.18 255.311 119.716V123.352H254.339V119.776C254.339 119.232 254.231 118.836 254.015 118.588C253.807 118.332 253.471 118.204 253.007 118.204C252.471 118.204 252.043 118.372 251.723 118.708C251.411 119.036 251.255 119.476 251.255 120.028V123.352H250.283ZM259.071 123.46C258.615 123.46 258.183 123.396 257.775 123.268C257.367 123.14 257.031 122.96 256.767 122.728L257.079 122.044C257.367 122.276 257.683 122.448 258.027 122.56C258.379 122.664 258.735 122.716 259.095 122.716C259.551 122.716 259.895 122.632 260.127 122.464C260.359 122.296 260.475 122.068 260.475 121.78C260.475 121.556 260.399 121.38 260.247 121.252C260.095 121.116 259.855 121.012 259.527 120.94L258.435 120.7C257.443 120.484 256.947 119.972 256.947 119.164C256.947 118.636 257.155 118.212 257.571 117.892C257.995 117.572 258.547 117.412 259.227 117.412C259.627 117.412 260.007 117.476 260.367 117.604C260.735 117.724 261.039 117.904 261.279 118.144L260.955 118.828C260.723 118.612 260.451 118.448 260.139 118.336C259.835 118.216 259.531 118.156 259.227 118.156C258.779 118.156 258.439 118.244 258.207 118.42C257.975 118.596 257.859 118.828 257.859 119.116C257.859 119.564 258.155 119.852 258.747 119.98L259.839 120.208C260.351 120.32 260.739 120.5 261.003 120.748C261.267 120.988 261.399 121.316 261.399 121.732C261.399 122.268 261.187 122.692 260.763 123.004C260.339 123.308 259.775 123.46 259.071 123.46ZM265.508 123.46C264.588 123.46 263.86 123.192 263.324 122.656C262.788 122.112 262.52 121.376 262.52 120.448C262.52 119.848 262.64 119.32 262.88 118.864C263.12 118.4 263.448 118.044 263.864 117.796C264.288 117.54 264.776 117.412 265.328 117.412C266.12 117.412 266.74 117.668 267.188 118.18C267.636 118.684 267.86 119.38 267.86 120.268V120.64H263.468C263.5 121.304 263.692 121.812 264.044 122.164C264.396 122.508 264.884 122.68 265.508 122.68C265.86 122.68 266.196 122.628 266.516 122.524C266.836 122.412 267.14 122.232 267.428 121.984L267.764 122.668C267.5 122.916 267.164 123.112 266.756 123.256C266.348 123.392 265.932 123.46 265.508 123.46ZM265.352 118.132C264.8 118.132 264.364 118.304 264.044 118.648C263.724 118.992 263.536 119.444 263.48 120.004H267.02C266.996 119.412 266.84 118.952 266.552 118.624C266.272 118.296 265.872 118.132 265.352 118.132ZM271.235 123.46C270.779 123.46 270.347 123.396 269.939 123.268C269.531 123.14 269.195 122.96 268.931 122.728L269.243 122.044C269.531 122.276 269.847 122.448 270.191 122.56C270.543 122.664 270.899 122.716 271.259 122.716C271.715 122.716 272.059 122.632 272.291 122.464C272.523 122.296 272.639 122.068 272.639 121.78C272.639 121.556 272.563 121.38 272.411 121.252C272.259 121.116 272.019 121.012 271.691 120.94L270.599 120.7C269.607 120.484 269.111 119.972 269.111 119.164C269.111 118.636 269.319 118.212 269.735 117.892C270.159 117.572 270.711 117.412 271.391 117.412C271.791 117.412 272.171 117.476 272.531 117.604C272.899 117.724 273.203 117.904 273.443 118.144L273.119 118.828C272.887 118.612 272.615 118.448 272.303 118.336C271.999 118.216 271.695 118.156 271.391 118.156C270.943 118.156 270.603 118.244 270.371 118.42C270.139 118.596 270.023 118.828 270.023 119.116C270.023 119.564 270.319 119.852 270.911 119.98L272.003 120.208C272.515 120.32 272.903 120.5 273.167 120.748C273.431 120.988 273.563 121.316 273.563 121.732C273.563 122.268 273.351 122.692 272.927 123.004C272.503 123.308 271.939 123.46 271.235 123.46Z" fill="#333333"/>
</g>
<defs>
<clipPath id="clip0_575_8944">
<rect x="169.703" y="77.3516" width="100" height="22" rx="11" fill="white"/>
</clipPath>
<clipPath id="clip1_575_8944">
<rect x="169.703" y="108.352" width="100" height="22" rx="11" fill="white"/>
</clipPath>
</defs>
</svg>
