<?xml version="1.0" encoding="UTF-8"?>
<svg version="1.1" xmlns="http://www.w3.org/2000/svg" width="1969" height="689">
<path d="M0 0 C1.12470703 0.57137695 2.24941406 1.14275391 3.40820312 1.73144531 C3.99851318 2.03586548 4.58882324 2.34028564 5.19702148 2.65393066 C8.35215 4.28052534 11.52081163 5.88043728 14.6875 7.484375 C15.32456879 7.80796997 15.96163757 8.13156494 16.61801147 8.46496582 C22.06818932 11.22806089 27.5705643 13.87083874 33.09765625 16.4765625 C43.97257883 21.62263503 54.7178343 27.01853159 65.46868896 32.41720581 C75.57186817 37.48866246 85.70319101 42.48064697 95.921875 47.31640625 C104.15364815 51.22260428 112.29090486 55.30910315 120.43066406 59.40283203 C127.24163347 62.82041079 134.08481075 66.15454661 140.97265625 69.4140625 C151.88546578 74.58246873 162.67200972 79.99366652 173.46109009 85.41390991 C183.61218494 90.51205867 193.77823784 95.56232924 204.08007812 100.3515625 C213.2731962 104.66715827 222.07131241 109.47585521 231.09765625 114.2265625 C231.09765625 205.3065625 231.09765625 296.3865625 231.09765625 390.2265625 C226.98914655 388.85705927 223.44988423 387.54363502 219.60546875 385.6875 C218.5690625 385.18863281 217.53265625 384.68976563 216.46484375 384.17578125 C215.39492188 383.65628906 214.325 383.13679688 213.22265625 382.6015625 C211.67578125 381.85712891 211.67578125 381.85712891 210.09765625 381.09765625 C201.38806312 376.89265613 192.74029184 372.56688389 184.09765625 368.2265625 C182.67318261 367.51138222 181.24870339 366.79621305 179.82421875 366.08105469 C179.10834595 365.72164795 178.39247314 365.36224121 177.65490723 364.99194336 C155.61980827 353.92763192 155.61980827 353.92763192 133.41577148 343.20776367 C125.31348047 339.36264596 117.30023234 335.34542454 109.28814697 331.31668091 C101.55507817 327.43025437 93.79535673 323.61658163 85.97265625 319.9140625 C75.52592988 314.96718635 65.19785283 309.79529979 54.86956787 304.60739136 C45.1002748 299.70231091 35.30870141 294.8614726 25.41235352 290.21606445 C20.25698841 287.7843592 15.17344713 285.24371114 10.125 282.59765625 C8.9331507 281.97909127 7.74109427 281.3609252 6.54882812 280.74316406 C4.25615244 279.5496728 1.97177596 278.34006114 -0.30273438 277.11230469 C-1.33720703 276.57637695 -2.37167969 276.04044922 -3.4375 275.48828125 C-4.34894775 275.00319092 -5.26039551 274.51810059 -6.19946289 274.01831055 C-12.32926405 272.22272341 -18.90146001 277.10355718 -24.3046875 279.84765625 C-25.21038986 280.30328949 -26.11609222 280.75892273 -27.04924011 281.22836304 C-28.98118924 282.20052654 -30.91228334 283.17439077 -32.84259033 284.14981079 C-37.86451959 286.68695527 -42.89304463 289.21094325 -47.921875 291.734375 C-48.89940735 292.22511002 -49.8769397 292.71584503 -50.88409424 293.22145081 C-57.56410423 296.5697696 -64.26766952 299.85410998 -71.02734375 303.0390625 C-81.14685327 307.81028619 -91.13795973 312.82653938 -101.13482666 317.84793091 C-110.90796401 322.75494604 -120.71314304 327.57464626 -130.59863281 332.25244141 C-139.08537927 336.28049305 -147.48056941 340.48578977 -155.86328125 344.72558594 C-174.71016508 354.2265625 -174.71016508 354.2265625 -177.90234375 354.2265625 C-177.90234375 385.2465625 -177.90234375 416.2665625 -177.90234375 448.2265625 C-203.40234375 460.7265625 -203.40234375 460.7265625 -211.34570312 464.61914062 C-213.4791749 465.6653478 -215.61263879 466.71157104 -217.74609375 467.7578125 C-218.88365112 468.31488892 -220.0212085 468.87196533 -221.1932373 469.44592285 C-226.17215672 471.88765308 -231.14499065 474.3376458 -236.0859375 476.85546875 C-237.20965759 477.42678528 -237.20965759 477.42678528 -238.3560791 478.00964355 C-239.69018933 478.69076957 -241.02173638 479.37695288 -242.34997559 480.06945801 C-245.10294021 481.47562896 -246.75674658 482.2265625 -249.90234375 482.2265625 C-249.99569542 458.15740906 -250.06627796 434.08828266 -250.10959244 410.01898479 C-250.13023672 398.84373112 -250.15839295 387.66858978 -250.20410156 376.4934082 C-250.24391222 366.75557963 -250.26976297 357.01783238 -250.27869773 347.27992469 C-250.28392227 342.12151354 -250.29624048 336.96333512 -250.32526398 331.8049984 C-250.35234194 326.95329612 -250.36080423 322.10192325 -250.35477448 317.25015259 C-250.35587814 315.46629359 -250.36387728 313.68242397 -250.37916565 311.89863014 C-250.39897492 309.46889135 -250.39431694 307.04040738 -250.38336182 304.61064148 C-250.39501318 303.89955457 -250.40666455 303.18846766 -250.41866899 302.45583266 C-250.3792985 299.24061469 -250.3336244 297.6563655 -248.00484848 295.33556843 C-247.31102192 294.96959647 -246.61719536 294.60362452 -245.90234375 294.2265625 C-245.20238281 293.85426514 -244.50242187 293.48196777 -243.78125 293.09838867 C-243.01683594 292.74236572 -242.25242187 292.38634277 -241.46484375 292.01953125 C-240.58441406 291.60509766 -239.70398438 291.19066406 -238.796875 290.76367188 C-237.36408203 290.09561523 -237.36408203 290.09561523 -235.90234375 289.4140625 C-226.83985036 285.13809731 -217.85287509 280.73202065 -208.90234375 276.2265625 C-200.56760999 272.03419396 -192.21029038 267.90541386 -183.77734375 263.9140625 C-174.08180334 259.32289816 -164.48800613 254.54140921 -154.90234375 249.7265625 C-145.4830471 244.99533738 -136.05806244 240.29320955 -126.52734375 235.7890625 C-115.77590797 230.70714308 -105.15626662 225.37135924 -94.52966309 220.03509521 C-84.42997122 214.96538755 -74.30242455 209.97447732 -64.08691406 205.14111328 C-56.89133291 201.72708435 -49.76865619 198.17749018 -42.65234375 194.6015625 C-40.4741271 193.51398484 -38.2957451 192.42673829 -36.1171875 191.33984375 C-32.15778434 189.36350226 -28.21471323 187.35942333 -24.28125 185.33203125 C-22.59291608 184.48344291 -20.90414313 183.63572726 -19.21484375 182.7890625 C-18.46750977 182.39315918 -17.72017578 181.99725586 -16.95019531 181.58935547 C-16.24991211 181.24404785 -15.54962891 180.89874023 -14.828125 180.54296875 C-14.23427002 180.23818604 -13.64041504 179.93340332 -13.02856445 179.61938477 C-7.28317112 178.55791527 -1.52774533 182.22111534 3.4375 184.80078125 C4.85395135 185.52272682 6.27045719 186.24456549 7.68701172 186.96630859 C8.41378113 187.33931091 9.14055054 187.71231323 9.88934326 188.09661865 C13.49068083 189.9393417 17.10923691 191.74751758 20.7265625 193.55859375 C22.19615745 194.29591774 23.66572091 195.03330449 25.13525391 195.77075195 C37.68014219 202.06097814 50.23474453 208.31222836 62.92016602 214.31567383 C71.14667317 218.2191324 79.27867734 222.3028787 87.41308594 226.39404297 C94.39675434 229.89832948 101.4145084 233.31218057 108.47265625 236.6640625 C121.76014249 243.02205323 134.92248758 249.63897817 148.09765625 256.2265625 C148.09765625 225.8665625 148.09765625 195.5065625 148.09765625 164.2265625 C119.62255856 149.92663881 119.62255856 149.92663881 90.98046875 136.05859375 C82.54480121 132.03173371 74.21085155 127.79715564 65.85821533 123.60171509 C56.27917302 118.79224033 46.67227869 114.06285268 36.97705078 109.49072266 C31.0458819 106.67819032 25.16870298 103.76938788 19.30859375 100.8125 C18.53956726 100.42503601 17.77054077 100.03757202 16.97821045 99.6383667 C13.13298378 97.69995354 9.29150609 95.75459655 5.45507812 93.79882812 C4.04177608 93.08441893 2.62836938 92.37021672 1.21484375 91.65625 C0.57002045 91.32450775 -0.07480286 90.9927655 -0.73916626 90.65097046 C-5.6079723 88.13837577 -5.6079723 88.13837577 -10.90234375 87.2265625 C-13.72341599 88.29945892 -16.26289695 89.4298494 -18.9375 90.79296875 C-19.72023788 91.17819199 -20.50297577 91.56341522 -21.30943298 91.96031189 C-23.86794724 93.22350513 -26.41620888 94.50606977 -28.96484375 95.7890625 C-30.73572325 96.66788657 -32.50721281 97.54548237 -34.27929688 98.421875 C-38.68774325 100.60624576 -43.08811123 102.8062944 -47.48516846 105.01348877 C-50.95402342 106.75435417 -54.42637202 108.48820609 -57.8984375 110.22265625 C-61.3681422 111.95693959 -64.83665195 113.69354443 -68.30249023 115.43554688 C-76.26243148 119.43165925 -84.27660883 123.29936347 -92.32421875 127.11523438 C-99.56474933 130.55902434 -106.73960122 134.12409021 -113.90234375 137.7265625 C-121.86309829 141.73030908 -129.84856019 145.66343685 -137.90234375 149.4765625 C-147.63910731 154.08944056 -157.27509208 158.89080566 -166.90234375 163.7265625 C-177.18197881 168.88993338 -187.48096697 173.98835679 -197.88671875 178.89428711 C-203.98974594 181.78896252 -210.03574455 184.78643101 -216.06640625 187.828125 C-216.87451752 188.23513138 -217.68262878 188.64213776 -218.51522827 189.06147766 C-222.56689768 191.10312097 -226.61484479 193.15168149 -230.65771484 195.21069336 C-232.15581274 195.96750638 -233.6540177 196.72410753 -235.15234375 197.48046875 C-235.83060211 197.82892853 -236.50886047 198.17738831 -237.20767212 198.53640747 C-238.17801895 199.02414139 -238.17801895 199.02414139 -239.16796875 199.52172852 C-239.72258789 199.80387711 -240.27720703 200.0860257 -240.84863281 200.37672424 C-243.77209818 201.58647225 -246.86019686 202.35737767 -249.90234375 203.2265625 C-249.90234375 173.5265625 -249.90234375 143.8265625 -249.90234375 113.2265625 C-218.12456597 97.33767361 -218.12456597 97.33767361 -202.73828125 90.03515625 C-196.0822444 86.85377685 -189.49302164 83.54062243 -182.90234375 80.2265625 C-174.56705068 76.03527772 -166.2103166 71.90542627 -157.77734375 67.9140625 C-148.08180346 63.32289821 -138.48800394 58.54141353 -128.90234375 53.7265625 C-118.56382909 48.5336014 -108.20190699 43.41446171 -97.7421875 38.46875 C-88.3167463 33.99065987 -79.00299452 29.29325916 -69.6786499 24.60958862 C-59.76723577 19.63308168 -49.83030399 14.7268245 -39.79516602 10.00292969 C-35.23800994 7.85160098 -30.73054278 5.63837405 -26.265625 3.30078125 C-24.89639893 2.5900647 -24.89639893 2.5900647 -23.49951172 1.86499023 C-21.78160187 0.96818894 -20.07038298 0.05839712 -18.36767578 -0.86694336 C-17.60438965 -1.26405518 -16.84110352 -1.66116699 -16.0546875 -2.0703125 C-15.39460693 -2.42448242 -14.73452637 -2.77865234 -14.05444336 -3.14355469 C-8.95414485 -4.63632498 -4.49242344 -2.30785389 0 0 Z " fill="#40BD5C" transform="translate(287.90234375,112.7734375)"/>
<path d="M0 0 C61.38 0 122.76 0 186 0 C190.95 8.58 195.9 17.16 201 26 C207.48822438 38.52681124 207.48822438 38.52681124 216 50 C217.11708841 48.13818598 218.23258307 46.27540563 219.34228516 44.40917969 C220.38862887 42.67916253 221.45989097 40.96403444 222.55224609 39.26269531 C225.66447817 34.32522512 228.27413156 29.53585891 230.27740479 24.06555176 C237.45472975 4.72599998 237.45472975 4.72599998 246 0 C261.61094337 -4.61000484 280.08323999 -1.80813257 296 0 C294.69219767 3.46110692 293.17755303 6.6001637 291.3046875 9.7890625 C290.76191162 10.7167041 290.21913574 11.6443457 289.65991211 12.60009766 C289.07089111 13.59831543 288.48187012 14.5965332 287.875 15.625 C287.25826416 16.67606934 286.64152832 17.72713867 286.00610352 18.81005859 C284.00890739 22.20957333 282.00590983 25.60562315 280 29 C279.33500488 30.12535156 278.67000977 31.25070313 277.98486328 32.41015625 C273.96885002 39.20063924 269.94367941 45.98566415 265.91650391 52.76953125 C262.98066268 57.71820018 260.05204822 62.67112644 257.125 67.625 C256.65054443 68.42760254 256.17608887 69.23020508 255.68725586 70.05712891 C254.70289146 71.72323501 253.73528802 73.39932033 252.78173828 75.08325195 C251.41097722 77.3272205 250.01720363 79.32441322 248.43310547 81.40698242 C238.85862438 94.67224541 239.64224374 108.22403858 239.875 124.0625 C239.87694575 126.68294328 239.87437617 129.30339398 239.8671875 131.92382812 C239.85943318 138.28357495 239.9072899 144.64096491 240 151 C237.56762005 152.21618998 236.00860217 152.12688905 233.29077148 152.12939453 C232.31313339 152.13254669 231.3354953 152.13569885 230.32823181 152.13894653 C229.26987625 152.1369223 228.21152069 152.13489807 227.12109375 152.1328125 C226.03868912 152.13376923 224.95628448 152.13472595 223.84107971 152.13571167 C221.55038393 152.13639298 219.25968623 152.13454211 216.96899414 152.13037109 C213.44868672 152.12501701 209.92850659 152.13032044 206.40820312 152.13671875 C204.18749972 152.13605806 201.96679639 152.13477709 199.74609375 152.1328125 C198.15552406 152.13584885 198.15552406 152.13584885 196.53282166 152.13894653 C195.55833572 152.13579437 194.58384979 152.13264221 193.57983398 152.12939453 C192.28649391 152.12820114 192.28649391 152.12820114 190.96702576 152.12698364 C189 152 189 152 188 151 C187.92401188 149.36548366 187.91701418 147.72770621 187.9375 146.09155273 C187.946604 145.04212997 187.95570801 143.99270721 187.96508789 142.91148376 C187.97660889 141.76378006 187.98812988 140.61607635 188 139.43359375 C188.00116015 137.00325514 187.99977122 134.57291423 187.99609375 132.14257812 C187.99170618 128.31101188 187.99939915 124.48188012 188.05126953 120.65063477 C188.25017355 104.60326811 187.65361169 93.08566536 178 80 C177.03453058 78.40788342 176.08573892 76.80536248 175.1640625 75.1875 C174.31980294 73.79039876 173.47341793 72.3945799 172.625 71 C168.78521552 64.64547727 164.97011301 58.27700195 161.18359375 51.890625 C160.76255371 51.18055298 160.34151367 50.47048096 159.90771484 49.7388916 C158.20833397 46.87215635 156.5094224 44.00514549 154.81207275 41.13720703 C150.61433289 34.04488503 146.41650269 26.95933757 142 20 C141.96241577 20.85549438 141.96241577 20.85549438 141.92407227 21.72827148 C141.80843451 24.29826157 141.68556376 26.86785527 141.5625 29.4375 C141.52318359 30.33533203 141.48386719 31.23316406 141.44335938 32.15820312 C141.40146484 33.01220703 141.35957031 33.86621094 141.31640625 34.74609375 C141.26141968 35.93223267 141.26141968 35.93223267 141.20532227 37.14233398 C141 39 141 39 140 40 C138.61839885 40.0927833 137.23211962 40.11747043 135.84741211 40.11352539 C134.96657455 40.11344986 134.085737 40.11337433 133.1782074 40.11329651 C132.22092239 40.10813522 131.26363739 40.10297394 130.27734375 40.09765625 C129.30213272 40.0962413 128.32692169 40.09482635 127.32215881 40.09336853 C124.19390857 40.08775133 121.06572877 40.07519593 117.9375 40.0625 C115.82226666 40.05748722 113.70703219 40.05292393 111.59179688 40.04882812 C106.39450704 40.03777631 101.19725855 40.02102146 96 40 C96.00092179 40.57114249 96.00184359 41.14228498 96.00279331 41.73073483 C96.02484956 55.60915177 96.04134829 69.48756566 96.05181217 83.36599636 C96.05697489 90.07741868 96.06401713 96.78882932 96.07543945 103.50024414 C96.08626565 109.97113736 96.09227626 116.44201842 96.09487724 122.91292 C96.09673198 125.38778945 96.1003535 127.8626582 96.10573006 130.33752251 C96.11293693 133.79070373 96.11399109 137.24383401 96.11352539 140.69702148 C96.11712067 141.73135818 96.12071594 142.76569489 96.12442017 143.83137512 C96.1230455 144.76672089 96.12167084 145.70206665 96.12025452 146.66575623 C96.12117631 147.4833866 96.1220981 148.30101698 96.12304783 149.14342403 C96 151 96 151 95 152 C93.47595193 152.0983867 91.94738587 152.12798534 90.42016602 152.12939453 C88.95843712 152.13412277 88.95843712 152.13412277 87.46717834 152.13894653 C86.40679855 152.1369223 85.34641876 152.13489807 84.25390625 152.1328125 C82.63173439 152.13424759 82.63173439 152.13424759 80.97679138 152.13571167 C78.68431541 152.13639371 76.39183752 152.13453777 74.09936523 152.13037109 C70.58117345 152.12502836 67.06310963 152.13031264 63.54492188 152.13671875 C61.32291638 152.13605787 59.10091097 152.13477651 56.87890625 152.1328125 C55.29137291 152.13584885 55.29137291 152.13584885 53.67176819 152.13894653 C52.6941301 152.13579437 51.716492 152.13264221 50.70922852 152.12939453 C49.41469505 152.12820114 49.41469505 152.12820114 48.0940094 152.12698364 C46 152 46 152 44 151 C44 114.7 44 78.4 44 41 C22.22 40.505 22.22 40.505 0 40 C0 26.8 0 13.6 0 0 Z " fill="#363B3B" transform="translate(1580,206)"/>
<path d="M0 0 C11.10156039 -0.06984604 22.20306757 -0.12298573 33.30480385 -0.15543652 C38.46109464 -0.17101981 43.61723389 -0.19212235 48.7734375 -0.22631836 C53.75960126 -0.25917561 58.74562025 -0.27690802 63.731884 -0.28463173 C65.62385712 -0.29012831 67.51582329 -0.30086018 69.40773392 -0.31719017 C90.73488755 -0.49377124 111.62601866 2.9604818 127.75 18.25 C138.80899923 29.97214909 142.68536498 43.62940264 142.53857422 59.4543457 C141.93898378 75.28323187 135.95643271 87.66347494 124.375 98.5625 C121.11496457 101.47714134 118.20080057 102.79031388 114 104 C119.09516679 111.71600339 124.28542214 119.36441417 129.5 127 C131.42638432 129.82456994 133.35228578 132.64946805 135.27783203 135.47460938 C136.33764338 137.0287189 137.39832353 138.58223687 138.46044922 140.13476562 C139.62388239 141.83683345 140.781062 143.54317172 141.9375 145.25 C142.84822266 146.58804688 142.84822266 146.58804688 143.77734375 147.953125 C145 150 145 150 145 152 C137.43833702 152.22863856 129.8775679 152.38598559 122.31323242 152.49438477 C119.74160455 152.53958062 117.17020713 152.60095167 114.59936523 152.67895508 C110.89769657 152.78843803 107.19908872 152.83923551 103.49609375 152.87890625 C102.35103867 152.92535782 101.20598358 152.97180939 100.02622986 153.01966858 C92.21680697 153.02458133 92.21680697 153.02458133 88.83117676 150.17379761 C87.00670099 147.86831536 85.48774146 145.53365998 84 143 C83.19672246 141.83361539 82.38709767 140.67155527 81.56884766 139.515625 C80.85776855 138.43796875 80.14668945 137.3603125 79.4140625 136.25 C79.02681 135.66581299 78.6395575 135.08162598 78.24057007 134.47973633 C77.03198774 132.65537336 75.82823685 130.82789185 74.625 129 C73.39946747 127.14413861 72.17291394 125.28896279 70.94515991 123.43457031 C69.84637239 121.77410551 68.75049795 120.11171411 67.65478516 118.44921875 C66.21639441 116.1530453 66.21639441 116.1530453 65 115 C60.71 114.67 56.42 114.34 52 114 C52 126.21 52 138.42 52 151 C49.56762005 152.21618998 48.00860217 152.12688905 45.29077148 152.12939453 C44.31313339 152.13254669 43.3354953 152.13569885 42.32823181 152.13894653 C41.26987625 152.1369223 40.21152069 152.13489807 39.12109375 152.1328125 C38.03868912 152.13376923 36.95628448 152.13472595 35.84107971 152.13571167 C33.55038393 152.13639298 31.25968623 152.13454211 28.96899414 152.13037109 C25.44868672 152.12501701 21.92850659 152.13032044 18.40820312 152.13671875 C16.18749972 152.13605806 13.96679639 152.13477709 11.74609375 152.1328125 C10.15552406 152.13584885 10.15552406 152.13584885 8.53282166 152.13894653 C7.55833572 152.13579437 6.58384979 152.13264221 5.57983398 152.12939453 C4.71760727 152.12859894 3.85538055 152.12780334 2.96702576 152.12698364 C1 152 1 152 0 151 C-0.09664967 149.05105041 -0.12187121 147.09854545 -0.12025452 145.14720154 C-0.12162918 143.87528961 -0.12300385 142.60337769 -0.12442017 141.29292297 C-0.12088055 139.87033058 -0.11724573 138.44773842 -0.11352539 137.02514648 C-0.11324353 135.53733319 -0.11340124 134.04951976 -0.1139679 132.56170654 C-0.1142559 128.51023 -0.10835867 124.4587828 -0.10139394 120.40731311 C-0.09516092 116.17788003 -0.09455664 111.94844636 -0.09336853 107.7190094 C-0.09025506 99.70440278 -0.08204146 91.68980973 -0.07201904 83.67520911 C-0.06085839 74.55323316 -0.05534758 65.43125658 -0.05032361 56.30927551 C-0.03985886 37.5395093 -0.02225912 18.76975574 0 0 Z M52 40 C52 51.22 52 62.44 52 74 C55.980625 74.061875 59.96125 74.12375 64.0625 74.1875 C65.30394775 74.21481201 66.54539551 74.24212402 67.82446289 74.27026367 C74.76734539 74.32240678 80.26944105 74.21196107 85.7421875 69.5 C89.91076883 63.98022334 90.62854565 59.74564166 90 53 C88.8016532 48.47976537 86.72791128 44.87581727 83 42 C78.84440718 40.35291692 75.40163423 39.75874604 70.9453125 39.8046875 C69.94516113 39.80968262 68.94500977 39.81467773 67.91455078 39.81982422 C66.03872314 39.84713623 66.03872314 39.84713623 64.125 39.875 C58.123125 39.936875 58.123125 39.936875 52 40 Z " fill="#363B3B" transform="translate(1434,206)"/>
<path d="M0 0 C11.10156039 -0.06984604 22.20306757 -0.12298573 33.30480385 -0.15543652 C38.46109464 -0.17101981 43.61723389 -0.19212235 48.7734375 -0.22631836 C53.75960126 -0.25917561 58.74562025 -0.27690802 63.731884 -0.28463173 C65.62385712 -0.29012831 67.51582329 -0.30086018 69.40773392 -0.31719017 C90.88208586 -0.49498999 111.44132691 3.05427947 127.8125 18.3125 C139.7860635 31.17405505 142.69322293 46.90382057 142.13183594 63.79394531 C141.33525687 77.12336842 134.65106085 88.99467016 125 98 C117.25206612 104 117.25206612 104 114 104 C121.49097784 115.29155994 129.00361178 126.56372807 136.73510742 137.69262695 C139.72401447 142.0223969 142.45897802 146.39211804 145 151 C143.35116325 152.64883675 141.40562672 152.1946375 139.13232422 152.25634766 C138.09389374 152.28532135 137.05546326 152.31429504 135.98556519 152.34414673 C131.21223286 152.44141957 126.43905643 152.51572947 121.66503906 152.56982422 C119.14876089 152.60645646 116.6326765 152.66099768 114.1171875 152.73388672 C110.49148032 152.8374102 106.8691458 152.8817756 103.2421875 152.9140625 C102.12214325 152.95737701 101.002099 153.00069153 99.84811401 153.0453186 C92.21928692 153.02693519 92.21928692 153.02693519 88.83969116 150.18049622 C87.00336506 147.87380189 85.48188727 145.54683534 84 143 C83.5953653 142.37702026 83.19073059 141.75404053 82.77383423 141.11218262 C81.68272354 139.43143936 80.64933512 137.71367686 79.6171875 135.99609375 C78.83590434 134.74773621 78.05197169 133.50103359 77.265625 132.25585938 C76.05668757 130.33965411 74.86479615 128.42019679 73.71386719 126.46850586 C72.57750264 124.5521472 71.38639969 122.68122718 70.1796875 120.80859375 C69.49632324 119.69282959 68.81295898 118.57706543 68.10888672 117.42749023 C63.94965157 113.66655745 63.94965157 113.66655745 52 115 C52 126.88 52 138.76 52 151 C49.56762005 152.21618998 48.00860217 152.12688905 45.29077148 152.12939453 C44.31313339 152.13254669 43.3354953 152.13569885 42.32823181 152.13894653 C41.26987625 152.1369223 40.21152069 152.13489807 39.12109375 152.1328125 C38.03868912 152.13376923 36.95628448 152.13472595 35.84107971 152.13571167 C33.55038393 152.13639298 31.25968623 152.13454211 28.96899414 152.13037109 C25.44868672 152.12501701 21.92850659 152.13032044 18.40820312 152.13671875 C16.18749972 152.13605806 13.96679639 152.13477709 11.74609375 152.1328125 C10.15552406 152.13584885 10.15552406 152.13584885 8.53282166 152.13894653 C7.55833572 152.13579437 6.58384979 152.13264221 5.57983398 152.12939453 C4.71760727 152.12859894 3.85538055 152.12780334 2.96702576 152.12698364 C1 152 1 152 0 151 C-0.09664967 149.05105041 -0.12187121 147.09854545 -0.12025452 145.14720154 C-0.12162918 143.87528961 -0.12300385 142.60337769 -0.12442017 141.29292297 C-0.12088055 139.87033058 -0.11724573 138.44773842 -0.11352539 137.02514648 C-0.11324353 135.53733319 -0.11340124 134.04951976 -0.1139679 132.56170654 C-0.1142559 128.51023 -0.10835867 124.4587828 -0.10139394 120.40731311 C-0.09516092 116.17788003 -0.09455664 111.94844636 -0.09336853 107.7190094 C-0.09025506 99.70440278 -0.08204146 91.68980973 -0.07201904 83.67520911 C-0.06085839 74.55323316 -0.05534758 65.43125658 -0.05032361 56.30927551 C-0.03985886 37.5395093 -0.02225912 18.76975574 0 0 Z M51 40 C51 51.22 51 62.44 51 74 C55.145625 74.061875 59.29125 74.12375 63.5625 74.1875 C64.85615479 74.21481201 66.14980957 74.24212402 67.48266602 74.27026367 C75.01800621 74.32464302 80.24383781 73.94401902 86.3125 69.1875 C89.59101711 64.93757042 90.47615661 60.42523441 90.3125 55.0859375 C89.50441039 49.69193936 87.19050877 45.96728837 83 42.5625 C78.54900053 40.24427111 75.14472984 39.8768126 70.140625 39.90234375 C69.13547852 39.90484131 68.13033203 39.90733887 67.09472656 39.90991211 C65.19158691 39.92356812 65.19158691 39.92356812 63.25 39.9375 C57.18625 39.9684375 57.18625 39.9684375 51 40 Z " fill="#363B3B" transform="translate(787,206)"/>
<path d="M0 0 C15.05028029 12.87251767 25.00943246 29.7271158 27.25 49.625 C28.62603579 72.62955687 24.61300531 93.66668462 9.16015625 111.53125 C8.52980469 112.2221875 7.89945313 112.913125 7.25 113.625 C6.73308594 114.2334375 6.21617187 114.841875 5.68359375 115.46875 C-7.54587565 130.05763856 -29.82850091 138.72020995 -49.1105957 139.7512207 C-75.94518247 140.55327923 -100.2713243 135.12522737 -120.75 116.625 C-135.32985159 102.50245002 -143.65567453 83.22099628 -143.99145508 62.96508789 C-144.06626011 41.93205075 -137.83136323 21.43521772 -123.08203125 5.83984375 C-89.9497562 -25.62749286 -35.98763604 -28.37486688 0 0 Z M-83.359375 33.48828125 C-90.50037653 43.15691451 -93.09701717 54.77958099 -91.75 66.625 C-89.78703608 77.3690333 -86.05561974 85.60956936 -77.4375 92.5 C-69.19950961 97.80240361 -59.6193656 98.84622055 -50.11328125 97.15625 C-41.55776215 94.95513636 -35.07816258 90.19126866 -30.0703125 82.92578125 C-23.91855642 72.20570927 -23.1121732 60.15332888 -25.41015625 48.1875 C-28.420395 37.97093212 -33.92029028 30.88335886 -43.26953125 25.77734375 C-56.46367609 19.6477804 -73.64586347 22.24229824 -83.359375 33.48828125 Z " fill="#363B3B" transform="translate(1084.75,221.375)"/>
<path d="M0 0 C19.614375 -0.061875 19.614375 -0.061875 39.625 -0.125 C43.72631348 -0.14320801 47.82762695 -0.16141602 52.05322266 -0.18017578 C57.1315918 -0.18920898 57.1315918 -0.18920898 59.52255249 -0.19088745 C61.16278169 -0.19392239 62.80300694 -0.20087946 64.44320679 -0.21115112 C87.4194332 -0.34761855 109.3465138 2.21542193 126.77734375 18.70703125 C138.00237615 30.28716133 142.51106117 43.69208469 142.35327148 59.70507812 C141.91216184 73.78264185 137.11701789 85.40339255 127.4921875 95.66015625 C123.65163752 99.26593907 119.44847859 102.19532247 115 105 C116.49598388 109.39753502 118.88680162 112.8658294 121.625 116.5625 C122.5353263 117.8140347 123.44416025 119.06665615 124.3515625 120.3203125 C124.80176758 120.94196289 125.25197266 121.56361328 125.71582031 122.20410156 C128.20437465 125.68429277 130.55122086 129.25697425 132.90625 132.828125 C134.49973171 135.24213087 136.10396044 137.64718076 137.71875 140.046875 C138.18023438 140.73402588 138.64171875 141.42117676 139.1171875 142.12915039 C140.02708429 143.48355362 140.93850223 144.83693637 141.8515625 146.18920898 C145 150.88773216 145 150.88773216 145 152 C137.31451251 152.27966199 129.63034186 152.4718378 121.94091797 152.60424805 C119.32746357 152.65945731 116.71434729 152.73444573 114.10205078 152.82983398 C110.33801937 152.96380313 106.5784859 153.02575476 102.8125 153.07421875 C101.06984863 153.15937996 101.06984863 153.15937996 99.29199219 153.2462616 C94.35064835 153.24999202 91.26623711 153.1900757 87.56814575 149.7144165 C85.4828942 146.89809378 83.70749538 144.05796331 82 141 C81.25158133 139.7931828 80.50281288 138.58658232 79.75341797 137.38037109 C79.17221191 136.35508301 78.59100586 135.32979492 77.9921875 134.2734375 C77.31000475 133.12728708 76.62502807 131.98279574 75.9375 130.83984375 C74.89169037 129.09896536 73.86443669 127.35594146 72.87988281 125.57958984 C71.90116681 123.8258573 70.8532958 122.11129579 69.8046875 120.3984375 C69.21671387 119.38442871 68.62874023 118.37041992 68.02294922 117.32568359 C63.77999285 113.61887674 63.77999285 113.61887674 51 114 C51 126.54 51 139.08 51 152 C34.17 152 17.34 152 0 152 C0 101.84 0 51.68 0 0 Z M51 40 C51 51.55 51 63.1 51 75 C56.6925 75.0928125 56.6925 75.0928125 62.5 75.1875 C63.68013672 75.21481201 64.86027344 75.24212402 66.07617188 75.27026367 C73.81107293 75.33097821 79.66319086 74.68395518 85.875 69.6875 C89.45607586 65.1584923 90.20791828 61.60796644 89.8125 55.9375 C89.11524161 50.59185233 87.63489024 47.58947662 83.75 43.8125 C76.96031814 39.33748241 69.92246366 39.74913365 62.0625 39.875 C58.411875 39.91625 54.76125 39.9575 51 40 Z " fill="#363B3B" transform="translate(964,384)"/>
<path d="M0 0 C7.24486551 -0.02526739 14.48971974 -0.0428318 21.73461914 -0.05493164 C24.20142033 -0.05997356 26.66821852 -0.06680691 29.13500977 -0.07543945 C32.67204529 -0.08751125 36.20904145 -0.09322956 39.74609375 -0.09765625 C40.85649521 -0.10281754 41.96689667 -0.10797882 43.11094666 -0.11329651 C44.64242088 -0.11340981 44.64242088 -0.11340981 46.20483398 -0.11352539 C47.10862289 -0.115746 48.0124118 -0.11796661 48.94358826 -0.12025452 C51 0 51 0 52 1 C52.1039954 3.83300139 52.14361091 6.64242031 52.1418457 9.47607422 C52.14532013 10.36563309 52.14879456 11.25519196 52.15237427 12.17170715 C52.159748 14.11204269 52.16508472 16.05238676 52.16866493 17.992733 C52.1758186 21.07075606 52.19148054 24.14861858 52.21000671 27.22659302 C52.2625019 35.98144212 52.31038027 44.73620814 52.32592773 53.49121094 C52.33605357 58.8417793 52.36550423 64.19195106 52.40724754 69.54236221 C52.41950733 71.57631544 52.42468804 73.61032487 52.42244911 75.64431381 C51.82525532 92.39838698 51.82525532 92.39838698 58.80830383 107.00241089 C64.63778118 112.39453672 70.54524644 112.51967915 78.25390625 112.328125 C83.34855239 111.88187862 86.54866817 110.81776953 90 107 C95.5008441 98.79722996 96.13752795 90.56007584 96.20532227 80.94360352 C96.21522186 80.06475998 96.22512146 79.18591644 96.23532104 78.28044128 C96.26672473 75.39662299 96.29160928 72.51278827 96.31640625 69.62890625 C96.33699406 67.62108449 96.35799099 65.61326688 96.37937927 63.60545349 C96.43441133 58.3365924 96.48390336 53.06769342 96.53222656 47.79876709 C96.59144245 41.46851738 96.65756603 35.13833648 96.72252655 28.80814362 C96.82029849 19.20547132 96.90931697 9.60275364 97 0 C113.83 0 130.66 0 148 0 C148.08021762 22.10886701 148.08021762 22.10886701 148.09765625 31.61523438 C148.10955947 38.07319472 148.12356074 44.53109774 148.15087891 50.98901367 C148.1727904 56.20210837 148.18460679 61.4151415 148.18975449 66.62827873 C148.19341767 68.60593572 148.20056973 70.58358977 148.21146011 72.56122017 C148.34228558 97.3289337 145.91901591 118.39782622 128.3125 137.1875 C113.01692158 151.95005069 92.60288549 156.05936209 72 156 C50.78545037 155.33952732 31.00779417 149.85438769 16 134 C4.31062954 119.91806833 -0.18874182 103.35382597 -0.11352539 85.37109375 C-0.11367142 84.44333633 -0.11381744 83.51557892 -0.1139679 82.55970764 C-0.11327593 79.51894727 -0.1055173 76.47824956 -0.09765625 73.4375 C-0.09578952 71.31901076 -0.09436682 69.20052108 -0.09336853 67.08203125 C-0.08956341 61.52543939 -0.07975035 55.96887395 -0.06866455 50.41229248 C-0.05840721 44.73450071 -0.05386167 39.05670463 -0.04882812 33.37890625 C-0.03812619 22.2525926 -0.02107398 11.1262985 0 0 Z " fill="#373C3C" transform="translate(793,384)"/>
<path d="M0 0 C16.83 0 33.66 0 51 0 C51.04898437 6.14109375 51.09796875 12.2821875 51.1484375 18.609375 C51.18385821 22.51954688 51.21983784 26.42969787 51.2578125 30.33984375 C51.31792259 36.53463617 51.3760577 42.72939963 51.421875 48.92431641 C51.45897909 53.92352481 51.50540434 58.9225706 51.55806351 63.92163849 C51.57647488 65.8207944 51.59163072 67.71998499 51.60334396 69.61919403 C51.23059187 87.96370707 51.23059187 87.96370707 57 105 C57.33 105.99 57.66 106.98 58 108 C59.78228936 109.14209817 59.78228936 109.14209817 62 110 C63.09634766 110.51240234 63.09634766 110.51240234 64.21484375 111.03515625 C70.75401463 113.30047912 79.27220474 113.24631989 85.625 110.375 C90.31383759 107.51961813 92.39030367 103.73282115 94.1875 98.625 C95.72347764 91.77217668 96.15403491 85.09845196 96.20532227 78.10546875 C96.21522186 77.2557399 96.22512146 76.40601105 96.23532104 75.53053284 C96.26665877 72.74954927 96.29158263 69.96854868 96.31640625 67.1875 C96.33699979 65.24836813 96.35799686 63.30924052 96.37937927 61.37011719 C96.43435225 56.28704282 96.48386993 51.20392962 96.53222656 46.12078857 C96.58262342 40.92554299 96.63821421 35.73035322 96.69335938 30.53515625 C96.80063755 20.35681861 96.90214884 10.17843233 97 0 C104.10244999 -0.02526787 111.20488848 -0.04283201 118.30737305 -0.05493164 C120.72567172 -0.05997349 123.14396733 -0.06680678 125.56225586 -0.07543945 C129.02979283 -0.08751157 132.49728966 -0.09322963 135.96484375 -0.09765625 C137.05337143 -0.10281754 138.14189911 -0.10797882 139.26341248 -0.11329651 C140.76485558 -0.11340981 140.76485558 -0.11340981 142.29663086 -0.11352539 C143.62566689 -0.11685631 143.62566689 -0.11685631 144.98155212 -0.12025452 C147 0 147 0 148 1 C148.11115068 3.59733209 148.15739434 6.16831173 148.16113281 8.76660156 C148.16609772 9.58157608 148.17106262 10.3965506 148.17617798 11.23622131 C148.19086918 13.95436437 148.19762132 16.67244861 148.203125 19.390625 C148.20888105 21.28944906 148.21463872 23.18827312 148.22039795 25.08709717 C148.23093455 29.08882925 148.2367564 33.09054114 148.24023438 37.09228516 C148.24565407 42.16060419 148.26952748 47.22864561 148.29820633 52.29687881 C148.31708546 56.2334869 148.32205202 60.17003235 148.32357025 64.10668182 C148.3265527 65.97053252 148.33442703 67.83438335 148.34775543 69.69818878 C148.41375397 79.65768228 148.04327043 89.39218624 146.68261719 99.26855469 C146.56827961 100.11566639 146.45394203 100.96277809 146.33613968 101.83555984 C144.48991634 113.95867196 139.32881648 124.95513143 131 134 C130.49210937 134.598125 129.98421875 135.19625 129.4609375 135.8125 C116.89201971 149.68165067 98.38298631 154.6217231 80.359375 155.84375 C65.46569751 156.48505163 50.73271586 154.97364797 37 149 C35.54787109 148.36964844 35.54787109 148.36964844 34.06640625 147.7265625 C19.49038188 140.57293919 9.11835487 128.26165684 3.72436523 113.03808594 C0.90991621 104.63730338 -0.14886236 97.11750215 -0.11352539 88.32275391 C-0.11367142 87.36602783 -0.11381744 86.40930176 -0.1139679 85.42358398 C-0.11327357 82.27455342 -0.10550369 79.12558268 -0.09765625 75.9765625 C-0.09579036 73.78795402 -0.09436727 71.59934513 -0.09336853 69.41073608 C-0.08955679 63.6601241 -0.07973798 57.90953752 -0.06866455 52.15893555 C-0.05661951 45.2539065 -0.05204179 38.34886895 -0.04621124 31.4438324 C-0.03652551 20.96253729 -0.01735953 10.48129786 0 0 Z " fill="#373C3C" transform="translate(1123,384)"/>
<path d="M0 0 C40.92 0 81.84 0 124 0 C124 12.87 124 25.74 124 39 C99.91 39 75.82 39 51 39 C51 44.61 51 50.22 51 56 C72.12 56 93.24 56 115 56 C115 68.21 115 80.42 115 93 C94.21 93.33 73.42 93.66 52 94 C51.67 99.94 51.34 105.88 51 112 C54.40010376 111.99214478 54.40010376 111.99214478 57.86889648 111.98413086 C65.34077457 111.96759432 72.81265344 111.95652852 80.28454494 111.94818783 C84.81674094 111.94295922 89.34891827 111.93586199 93.88110352 111.92456055 C98.2512283 111.91373086 102.62133508 111.90772299 106.99147224 111.90512276 C108.66250963 111.90326865 110.33354597 111.89964832 112.00457573 111.89426994 C114.33697551 111.88705841 116.66929993 111.8860091 119.00170898 111.88647461 C119.6994191 111.88287933 120.39712921 111.87928406 121.11598206 111.87557983 C125.88594784 111.88594784 125.88594784 111.88594784 127 113 C127.10103255 115.79993597 127.13970088 118.57468644 127.1328125 121.375 C127.13376923 122.21466309 127.13472595 123.05432617 127.13571167 123.91943359 C127.13639348 125.69824295 127.13453917 127.47705477 127.13037109 129.25585938 C127.12502283 131.98833776 127.13031605 134.72065176 127.13671875 137.453125 C127.13605797 139.1770837 127.13477681 140.90104229 127.1328125 142.625 C127.13483673 143.44790527 127.13686096 144.27081055 127.13894653 145.11865234 C127.11495054 150.88504946 127.11495054 150.88504946 126 152 C124.38275615 152.09820173 122.76121367 152.12631935 121.14099121 152.12698364 C120.08929245 152.12980347 119.03759369 152.13262329 117.95402527 152.13552856 C116.79034927 152.13350433 115.62667328 152.1314801 114.42773438 152.12939453 C113.20999832 152.13114685 111.99226227 152.13289917 110.73762512 152.13470459 C107.38852884 152.13836281 104.03949398 152.13748966 100.69040108 152.1343255 C97.19281046 152.13180154 93.69522255 152.13413954 90.19763184 152.13571167 C84.32299323 152.13753326 78.44836717 152.13512734 72.57373047 152.13037109 C65.77260949 152.12492849 58.97151849 152.12669116 52.17039824 152.1321975 C46.34110872 152.13672893 40.51182826 152.13737903 34.68253756 152.13475883 C31.19657175 152.13319622 27.71062006 152.13300185 24.22465515 152.13629532 C20.34051337 152.13970835 16.45640542 152.1349838 12.57226562 152.12939453 C10.82675163 152.13243088 10.82675163 152.13243088 9.04597473 152.13552856 C7.46842659 152.13129883 7.46842659 152.13129883 5.85900879 152.12698364 C4.93943642 152.12660662 4.01986404 152.12622959 3.07242584 152.12584114 C1 152 1 152 0 151 C-0.09664967 149.05105041 -0.12187121 147.09854545 -0.12025452 145.14720154 C-0.12162918 143.87528961 -0.12300385 142.60337769 -0.12442017 141.29292297 C-0.12088055 139.87033058 -0.11724573 138.44773842 -0.11352539 137.02514648 C-0.11324353 135.53733319 -0.11340124 134.04951976 -0.1139679 132.56170654 C-0.1142559 128.51023 -0.10835867 124.4587828 -0.10139394 120.40731311 C-0.09516092 116.17788003 -0.09455664 111.94844636 -0.09336853 107.7190094 C-0.09025506 99.70440278 -0.08204146 91.68980973 -0.07201904 83.67520911 C-0.05877329 72.84900899 -0.05335812 62.02280518 -0.04751682 51.19659901 C-0.03810158 34.13105583 -0.01818277 17.0655413 0 0 Z " fill="#383D3D" transform="translate(1288,206)"/>
<path d="M0 0 C1.61841797 0.73863281 1.61841797 0.73863281 3.26953125 1.4921875 C11.81284961 5.7283762 23.25777608 12.65538236 27 22 C16.58149965 31.67205291 6.04807472 41.04374825 -5 50 C-8.07734984 48.62400437 -10.20053841 47.01395144 -12.625 44.6875 C-21.83704696 36.43970468 -31.13907264 34.57518511 -43.20703125 34.7890625 C-52.62308726 35.31271546 -60.95634201 38.75509879 -67.56640625 45.62890625 C-74.46891495 54.50944729 -75.73221044 66.12334668 -75 77 C-73.38601184 86.46788332 -69.80628688 95.75366634 -61.96875 101.71484375 C-52.34335317 107.9980889 -41.23513048 108.3204746 -30 107 C-26.535 106.01 -26.535 106.01 -23 105 C-22.67 92.46 -22.34 79.92 -22 67 C-7.15 67 7.7 67 23 67 C23.36097928 82.73156633 23.36097928 82.73156633 23.43945312 89.45703125 C23.49318423 94.04018352 23.55661266 98.62171213 23.67895508 103.20361328 C23.7770211 106.89961823 23.83061017 110.59388233 23.85389519 114.2910881 C23.87047844 115.69869782 23.90286737 117.10621595 23.95157051 118.5130806 C24.31743286 129.5232593 24.31743286 129.5232593 21.06695557 133.16679382 C18.76267827 134.7320835 16.55496695 135.90114507 14 137 C12.76121076 137.64366366 11.52383745 138.29007489 10.2890625 138.94140625 C-17.56225589 151.64227173 -49.4668439 155.28992801 -78.625 144.75 C-98.64972717 136.53161923 -113.29157565 122.84646901 -122.375 103.125 C-130.88027772 81.67279952 -130.14958676 58.46433403 -121.51171875 37.16796875 C-118.90416943 31.70356953 -115.61491924 26.84315435 -112 22 C-111.45601562 21.27039063 -110.91203125 20.54078125 -110.3515625 19.7890625 C-97.44561891 3.86123944 -76.28651756 -5.51969736 -56.24560547 -7.81469727 C-36.85875363 -9.41446032 -17.83886128 -8.19199903 0 0 Z " fill="#373C3C" transform="translate(750,389)"/>
<path d="M0 0 C11.10156039 -0.06984604 22.20306757 -0.12298573 33.30480385 -0.15543652 C38.46109464 -0.17101981 43.61723389 -0.19212235 48.7734375 -0.22631836 C53.75960126 -0.25917561 58.74562025 -0.27690802 63.731884 -0.28463173 C65.62385712 -0.29012831 67.51582329 -0.30086018 69.40773392 -0.31719017 C91.50424516 -0.50014124 111.3992857 3.18573891 128.1875 18.6875 C139.42783167 30.49667437 142.48000921 43.84576446 142.35400391 59.63012695 C141.92497803 75.68816998 136.36099798 86.7920121 125 98 C112.29735199 109.31870192 95.42371817 114.21626772 78.66015625 114.09765625 C77.89319931 114.0962413 77.12624237 114.09482635 76.33604431 114.09336853 C73.9114881 114.08781766 71.48702781 114.07527463 69.0625 114.0625 C67.40820447 114.05747864 65.75390747 114.05291685 64.09960938 114.04882812 C60.06636988 114.03786438 56.03320114 114.02063424 52 114 C52.00523682 115.11560303 52.01047363 116.23120605 52.01586914 117.38061523 C52.03391775 121.50479333 52.04543149 125.62896791 52.05493164 129.75317383 C52.05997218 131.54094021 52.06680454 133.32870245 52.07543945 135.11645508 C52.0875173 137.68051168 52.09323094 140.24451397 52.09765625 142.80859375 C52.10281754 143.6127623 52.10797882 144.41693085 52.11329651 145.24546814 C52.11349215 147.16401715 52.06201983 149.08245368 52 151 C50.37245356 152.62754644 48.55861677 152.12737077 46.3125 152.12939453 C45.31476562 152.13254669 44.31703125 152.13569885 43.2890625 152.13894653 C42.20367188 152.1369223 41.11828125 152.13489807 40 152.1328125 C38.89398437 152.13376923 37.78796875 152.13472595 36.6484375 152.13571167 C34.30468692 152.13639367 31.96093447 152.13453804 29.6171875 152.13037109 C26.01558212 152.12502314 22.41410147 152.13031547 18.8125 152.13671875 C16.54166639 152.13605797 14.27083286 152.13477682 12 152.1328125 C10.91460938 152.13483673 9.82921875 152.13686096 8.7109375 152.13894653 C7.71320312 152.13579437 6.71546875 152.13264221 5.6875 152.12939453 C4.80449219 152.12859894 3.92148437 152.12780334 3.01171875 152.12698364 C1 152 1 152 0 151 C-0.09664967 149.05105041 -0.12187121 147.09854545 -0.12025452 145.14720154 C-0.12162918 143.87528961 -0.12300385 142.60337769 -0.12442017 141.29292297 C-0.12088055 139.87033058 -0.11724573 138.44773842 -0.11352539 137.02514648 C-0.11324353 135.53733319 -0.11340124 134.04951976 -0.1139679 132.56170654 C-0.1142559 128.51023 -0.10835867 124.4587828 -0.10139394 120.40731311 C-0.09516092 116.17788003 -0.09455664 111.94844636 -0.09336853 107.7190094 C-0.09025506 99.70440278 -0.08204146 91.68980973 -0.07201904 83.67520911 C-0.06085839 74.55323316 -0.05534758 65.43125658 -0.05032361 56.30927551 C-0.03985886 37.5395093 -0.02225912 18.76975574 0 0 Z M52 40 C52 51.22 52 62.44 52 74 C55.980625 74.061875 59.96125 74.12375 64.0625 74.1875 C65.30394775 74.21481201 66.54539551 74.24212402 67.82446289 74.27026367 C74.754662 74.32231152 80.32024194 74.24247739 85.7421875 69.46484375 C90.23193793 63.41142161 90.57156834 59.47272685 90 52 C88.23835398 46.71506195 85.42208724 44.15863374 81 41 C77.71227074 39.86407107 74.59929232 39.88469749 71.140625 39.90234375 C70.13547852 39.90484131 69.13033203 39.90733887 68.09472656 39.90991211 C66.19158691 39.92356812 66.19158691 39.92356812 64.25 39.9375 C58.18625 39.9684375 58.18625 39.9684375 52 40 Z " fill="#373C3C" transform="translate(628,206)"/>
<path d="M0 0 C14.004375 -0.0825 28.00875 -0.165 42.4375 -0.25 C46.82474365 -0.28641602 51.2119873 -0.32283203 55.73217773 -0.36035156 C61.17785645 -0.37841797 61.17785645 -0.37841797 63.74427795 -0.3817749 C65.49940575 -0.38783229 67.25451919 -0.40171902 69.00953674 -0.42230225 C83.95282972 -0.5884735 98.99432799 0.43768956 112.4375 7.6875 C113.09161865 8.02998779 113.7457373 8.37247559 114.41967773 8.7253418 C127.79769738 16.02259348 135.79653982 26.83057629 140.2734375 41.2734375 C144.38637223 56.70799901 142.24804733 72.08597983 134.78515625 86.11328125 C126.38817432 99.69177064 113.11980978 107.58239584 97.97924805 111.85180664 C88.15379029 114.12942812 78.67227703 114.54334522 68.625 114.6875 C67.00257843 114.72077295 65.38018151 114.75527128 63.7578125 114.79101562 C59.83868113 114.87475425 55.91959452 114.94208599 52 115 C51.96241577 116.62796509 51.96241577 116.62796509 51.92407227 118.28881836 C51.83016245 122.301316 51.72990233 126.31363382 51.62768555 130.32592773 C51.58427427 132.06514288 51.54260388 133.80440235 51.50268555 135.54370117 C51.44513232 138.03838488 51.3813958 140.5328441 51.31640625 143.02734375 C51.29969376 143.80963852 51.28298126 144.59193329 51.26576233 145.39793396 C51.11387171 150.88612829 51.11387171 150.88612829 50 152 C33.5 152 17 152 0 152 C0 101.84 0 51.68 0 0 Z M51 40 C51 51.22 51 62.44 51 74 C57.1875 74.12375 57.1875 74.12375 63.5 74.25 C64.78455078 74.28641602 66.06910156 74.32283203 67.39257812 74.36035156 C74.43731985 74.42830022 79.05011447 73.86356204 85 70 C88.81766838 65.88866482 89.76088774 61.98525702 90.09765625 56.53125 C89.89283985 51.22240883 88.38729552 47.42478999 84.6875 43.625 C79.87531611 40.71530742 75.53425432 39.74706954 69.9453125 39.8046875 C68.94516113 39.80968262 67.94500977 39.81467773 66.91455078 39.81982422 C65.03872314 39.84713623 65.03872314 39.84713623 63.125 39.875 C57.123125 39.936875 57.123125 39.936875 51 40 Z " fill="#363B3B" transform="translate(1131,206)"/>
<path d="M0 0 C10.16261136 9.39786636 15.14397651 22.35981546 15.78656006 36.09457397 C15.90477654 40.63376892 15.86200438 45.17097699 15.81640625 49.7109375 C15.81079622 51.373872 15.80653279 53.03681153 15.80354309 54.69975281 C15.79220487 59.03162847 15.76283568 63.36319211 15.72943115 67.69494629 C15.69302912 72.91641545 15.6795165 78.13799018 15.66207123 83.35955048 C15.63318925 91.25163466 15.57562638 99.14303711 15.5234375 107.03515625 C0.3434375 107.03515625 -14.8365625 107.03515625 -30.4765625 107.03515625 C-30.8065625 103.40515625 -31.1365625 99.77515625 -31.4765625 96.03515625 C-32.4665625 97.10765625 -33.4565625 98.18015625 -34.4765625 99.28515625 C-41.74479415 106.53873421 -50.74841175 109.24149728 -60.89916992 109.41577148 C-74.92932727 109.38661857 -86.59425268 107.67320923 -97.4765625 98.03515625 C-104.5285294 90.84611008 -107.64936746 82.00369856 -107.9765625 72.03515625 C-107.68737751 63.23429317 -105.51502462 55.05969636 -99.27734375 48.58984375 C-85.20723481 36.44254797 -66.6595928 35.86260451 -48.9765625 35.97265625 C-47.56770992 35.97768092 -46.15885561 35.98224212 -44.75 35.98632812 C-41.32547612 35.99805595 -37.90104203 36.01446934 -34.4765625 36.03515625 C-37.23179308 30.23967125 -39.48553199 27.25598503 -45.5390625 24.78515625 C-53.7291736 22.85186822 -61.72535269 23.82889931 -69.7890625 25.78515625 C-70.77507446 26.02032959 -70.77507446 26.02032959 -71.78100586 26.26025391 C-75.26903736 27.17882905 -78.21129444 28.37430476 -81.26953125 30.23828125 C-82.32785156 30.83125 -83.38617187 31.42421875 -84.4765625 32.03515625 C-87.4765625 31.03515625 -87.4765625 31.03515625 -89.11816406 28.32299805 C-89.6953418 27.13875244 -90.27251953 25.95450684 -90.8671875 24.734375 C-91.17605896 24.10159134 -91.48493042 23.46880768 -91.80316162 22.81684875 C-92.45361266 21.47679134 -93.09885099 20.13419308 -93.73925781 18.78930664 C-94.72143052 16.73339864 -95.72656943 14.68992592 -96.734375 12.64648438 C-97.36340255 11.34313392 -97.99105316 10.03911783 -98.6171875 8.734375 C-99.18985352 7.54674561 -99.76251953 6.35911621 -100.35253906 5.13549805 C-101.4765625 2.03515625 -101.4765625 2.03515625 -101.29296875 -0.28808594 C-99.32549114 -4.32894606 -93.65360829 -5.69225314 -89.69140625 -7.20800781 C-61.68216275 -16.77906765 -24.48309751 -19.42428714 0 0 Z M-58.4765625 64.03515625 C-60.31059938 68.08532103 -60.78139787 70.08478714 -59.4140625 74.34765625 C-57.16486566 77.46750993 -56.20087735 78.20753073 -52.4765625 79.03515625 C-46.84196044 79.48234689 -43.32750206 79.23236641 -38.4765625 76.03515625 C-33.91187347 71.1003573 -33.35158108 67.65917176 -33.4765625 61.03515625 C-36.70555676 60.94764355 -39.93424366 60.89459479 -43.1640625 60.84765625 C-44.07607422 60.82251953 -44.98808594 60.79738281 -45.92773438 60.77148438 C-52.71633858 60.67103598 -52.71633858 60.67103598 -58.4765625 64.03515625 Z " fill="#373C3C" transform="translate(1461.4765625,428.96484375)"/>
<path d="M0 0 C0.64710937 0.52078125 1.29421875 1.0415625 1.9609375 1.578125 C11.90837639 10.49031007 17.76077131 24.52913106 18.875 37.64453125 C19.27208795 45.12715729 19.09752654 50.65865711 17 58 C-9.07 58 -35.14 58 -62 58 C-60.07491526 63.12211171 -60.07491526 63.12211171 -56.0625 65.75 C-55.37285156 66.15734375 -54.68320313 66.5646875 -53.97265625 66.984375 C-47.32867898 70.40503657 -38.29141282 70.09951071 -31 69 C-26.9444904 67.63434101 -23.45273799 65.57722131 -19.8203125 63.3359375 C-17 62 -17 62 -15.16259766 62.58984375 C-12.28499425 64.46623089 -9.96874792 66.78478965 -7.578125 69.2265625 C-7.07327576 69.73424164 -6.56842651 70.24192078 -6.04827881 70.76498413 C-4.44407904 72.38033842 -2.84699144 74.00252209 -1.25 75.625 C-0.16061893 76.72441698 0.9292199 77.82338059 2.01953125 78.921875 C4.68501885 81.6093602 7.34415143 84.30299021 10 87 C0.9853032 98.34894874 -10.9918151 103.9316273 -25.09765625 106.58203125 C-50.39368464 109.29141567 -74.67261417 106.22527862 -95.0625 89.9375 C-106.51740662 79.43523267 -113.37791693 64.87141864 -114.1875 49.421875 C-114.45820372 32.70592038 -110.73908978 18.40014706 -99.6875 5.5 C-73.3635979 -21.36573198 -29.00453091 -23.75609198 0 0 Z M-60.875 23.8125 C-63.38279928 27.27133982 -63.38279928 27.27133982 -65 33 C-52.79 33 -40.58 33 -28 33 C-29.14313686 27.28431571 -30.78995805 24.84024097 -35 21 C-43.28519937 16.24368184 -54.18003806 16.33220528 -60.875 23.8125 Z " fill="#383D3D" transform="translate(1607,431)"/>
<path d="M0 0 C5.38601696 4.16761566 7.85632609 9.33069703 9.97265625 15.6796875 C10.82013193 25.58542779 9.37782249 32.91709847 4.34765625 41.4296875 C-3.57936019 48.93949254 -11.54464734 51.169919 -22.2265625 50.953125 C-30.05222579 50.39012764 -35.60911674 46.94050888 -41.30078125 41.6796875 C-46.2174458 35.98436567 -48.38643672 28.39032559 -48.234375 20.953125 C-47.46258596 12.47800766 -44.36504347 6.33834797 -38.02734375 0.6796875 C-26.60058042 -7.890385 -11.96696489 -7.79351471 0 0 Z " fill="#383D3D" transform="translate(1333.02734375,487.3203125)"/>
<path d="M0 0 C0.33 0 0.66 0 1 0 C1 36.3 1 72.6 1 110 C16.84 110 32.68 110 49 110 C49 73.7 49 37.4 49 0 C49.66 0 50.32 0 51 0 C51.02333012 14.45532811 51.04091332 28.91065331 51.05181217 43.36599636 C51.05697489 50.07741868 51.06401713 56.78882932 51.07543945 63.50024414 C51.08626565 69.97113736 51.09227626 76.44201842 51.09487724 82.91292 C51.09673198 85.38778945 51.1003535 87.8626582 51.10573006 90.33752251 C51.11293693 93.79070373 51.11399109 97.24383401 51.11352539 100.69702148 C51.11712067 101.73135818 51.12071594 102.76569489 51.12442017 103.83137512 C51.1230455 104.76672089 51.12167084 105.70206665 51.12025452 106.66575623 C51.12117631 107.4833866 51.1220981 108.30101698 51.12304783 109.14342403 C51 111 51 111 50 112 C48.47595193 112.0983867 46.94738587 112.12798534 45.42016602 112.12939453 C43.95843712 112.13412277 43.95843712 112.13412277 42.46717834 112.13894653 C41.40679855 112.1369223 40.34641876 112.13489807 39.25390625 112.1328125 C37.63173439 112.13424759 37.63173439 112.13424759 35.97679138 112.13571167 C33.68431541 112.13639371 31.39183752 112.13453777 29.09936523 112.13037109 C25.58117345 112.12502836 22.06310963 112.13031264 18.54492188 112.13671875 C16.32291638 112.13605787 14.10091097 112.13477651 11.87890625 112.1328125 C10.29137291 112.13584885 10.29137291 112.13584885 8.67176819 112.13894653 C7.6941301 112.13579437 6.716492 112.13264221 5.70922852 112.12939453 C4.41469505 112.12820114 4.41469505 112.12820114 3.0940094 112.12698364 C1 112 1 112 -1 111 C-1.0233302 96.67505574 -1.04091336 82.35011441 -1.05181217 68.02515507 C-1.05704174 61.3742647 -1.06414072 54.72339214 -1.07543945 48.07250977 C-1.08626571 41.65997123 -1.09227628 35.24744496 -1.09487724 28.83489799 C-1.09673197 26.38235722 -1.10035347 23.92981715 -1.10573006 21.47728157 C-1.11293702 18.05523323 -1.11399109 14.63323629 -1.11352539 11.21118164 C-1.11712067 10.18619568 -1.12071594 9.16120972 -1.12442017 8.10516357 C-1.1230455 7.17823196 -1.12167084 6.25130035 -1.12025452 5.29627991 C-1.12117631 4.48602387 -1.1220981 3.67576784 -1.12304783 2.8409586 C-1 1 -1 1 0 0 Z " fill="#6B6E6E" transform="translate(1625,246)"/>
<path d="M0 0 C28.71 0 57.42 0 87 0 C87 0.33 87 0.66 87 1 C58.95 1 30.9 1 2 1 C2 50.17 2 99.34 2 150 C17.84 150 33.68 150 50 150 C50 150.66 50 151.32 50 152 C43.03996553 152.02526838 36.0799428 152.04283222 29.11987305 152.05493164 C26.75007688 152.05997341 24.38028385 152.06680665 22.01049805 152.07543945 C18.61245961 152.0875119 15.21446215 152.09322971 11.81640625 152.09765625 C10.74975235 152.10281754 9.68309845 152.10797882 8.5841217 152.11329651 C7.60318039 152.11337204 6.62223907 152.11344757 5.61157227 152.11352539 C4.30918358 152.11685631 4.30918358 152.11685631 2.98048401 152.12025452 C1 152 1 152 0 151 C-0.09664967 149.05105041 -0.12187121 147.09854545 -0.12025452 145.14720154 C-0.12162918 143.87528961 -0.12300385 142.60337769 -0.12442017 141.29292297 C-0.12088055 139.87033058 -0.11724573 138.44773842 -0.11352539 137.02514648 C-0.11324353 135.53733319 -0.11340124 134.04951976 -0.1139679 132.56170654 C-0.1142559 128.51023 -0.10835867 124.4587828 -0.10139394 120.40731311 C-0.09516092 116.17788003 -0.09455664 111.94844636 -0.09336853 107.7190094 C-0.09025506 99.70440278 -0.08204146 91.68980973 -0.07201904 83.67520911 C-0.05877329 72.84900899 -0.05335812 62.02280518 -0.04751682 51.19659901 C-0.03810158 34.13105583 -0.01818277 17.0655413 0 0 Z " fill="#565B5B" transform="translate(1434,206)"/>
<path d="M0 0 C28.71 0 57.42 0 87 0 C87 0.33 87 0.66 87 1 C58.95 1 30.9 1 2 1 C2.33 50.17 2.66 99.34 3 150 C18.51 150.33 34.02 150.66 50 151 C50 151.33 50 151.66 50 152 C43.03996553 152.02526838 36.0799428 152.04283222 29.11987305 152.05493164 C26.75007688 152.05997341 24.38028385 152.06680665 22.01049805 152.07543945 C18.61245961 152.0875119 15.21446215 152.09322971 11.81640625 152.09765625 C10.74975235 152.10281754 9.68309845 152.10797882 8.5841217 152.11329651 C7.60318039 152.11337204 6.62223907 152.11344757 5.61157227 152.11352539 C4.30918358 152.11685631 4.30918358 152.11685631 2.98048401 152.12025452 C1 152 1 152 0 151 C-0.09664967 149.05105041 -0.12187121 147.09854545 -0.12025452 145.14720154 C-0.12162918 143.87528961 -0.12300385 142.60337769 -0.12442017 141.29292297 C-0.12088055 139.87033058 -0.11724573 138.44773842 -0.11352539 137.02514648 C-0.11324353 135.53733319 -0.11340124 134.04951976 -0.1139679 132.56170654 C-0.1142559 128.51023 -0.10835867 124.4587828 -0.10139394 120.40731311 C-0.09516092 116.17788003 -0.09455664 111.94844636 -0.09336853 107.7190094 C-0.09025506 99.70440278 -0.08204146 91.68980973 -0.07201904 83.67520911 C-0.05877329 72.84900899 -0.05335812 62.02280518 -0.04751682 51.19659901 C-0.03810158 34.13105583 -0.01818277 17.0655413 0 0 Z " fill="#545959" transform="translate(787,206)"/>
<path d="M0 0 C0.66 0 1.32 0 2 0 C2 0.66 2 1.32 2 2 C2.66 2 3.32 2 4 2 C4 20.15 4 38.3 4 57 C19.84 57 35.68 57 52 57 C52 57.66 52 58.32 52 59 C45.03996553 59.02526838 38.0799428 59.04283222 31.11987305 59.05493164 C28.75007688 59.05997341 26.38028385 59.06680665 24.01049805 59.07543945 C20.61245961 59.0875119 17.21446215 59.09322971 13.81640625 59.09765625 C12.74975235 59.10281754 11.68309845 59.10797882 10.5841217 59.11329651 C9.60318039 59.11337204 8.62223907 59.11344757 7.61157227 59.11352539 C6.30918358 59.11685631 6.30918358 59.11685631 4.98048401 59.12025452 C3 59 3 59 2 58 C1.88216322 56.29798973 1.83267585 54.59119493 1.81054688 52.88525391 C1.79382935 51.79387115 1.77711182 50.7024884 1.7598877 49.57803345 C1.74631226 48.38954803 1.73273682 47.20106262 1.71875 45.9765625 C1.70034058 44.76431 1.68193115 43.5520575 1.66296387 42.30307007 C1.6039935 38.41043115 1.55128342 34.51774734 1.5 30.625 C1.43247012 25.51292514 1.35875812 20.40099467 1.28125 15.2890625 C1.26088684 13.51240707 1.26088684 13.51240707 1.2401123 11.69985962 C1.22339478 10.60217255 1.20667725 9.50448547 1.18945312 8.37353516 C1.17692505 7.4061441 1.16439697 6.43875305 1.15148926 5.44204712 C1.09632268 2.86082866 1.09632268 2.86082866 0 0 Z " fill="#5E6262" transform="translate(1766,299)"/>
<path d="M0 0 C16.5 0 33 0 50 0 C49.34 1.65 48.68 3.3 48 5 C47.505 3.02 47.505 3.02 47 1 C31.49 1 15.98 1 0 1 C0 0.67 0 0.34 0 0 Z " fill="#545959" transform="translate(1826,206)"/>
<path d="M0 0 C-1.29299694 2.88437779 -2.65941363 4.87219421 -5 7 C-5.99 6.67 -6.98 6.34 -8 6 C-7.0479279 4.99403703 -6.08812654 3.99538437 -5.125 3 C-4.59132813 2.443125 -4.05765625 1.88625 -3.5078125 1.3125 C-2 0 -2 0 0 0 Z " fill="#4B4F4F" transform="translate(1298,487)"/>
</svg>
