<svg width="159" height="57" viewBox="0 0 159 57" fill="none" xmlns="http://www.w3.org/2000/svg">
<path d="M79.4 14.9C82.2 13.9 84.2 11.9 84.2 8.69995C84.2 3.79995 79.7 1.69995 74 1.69995H67.5V32.4H76C82.4 32.4 88 29.7999 88 23.9C88 19.0999 84.5 15.8 79.4 14.9ZM75.6 30.5H72V15.7V14V3.29995H74.4C78.6 3.29995 80 5.39995 80 8.49995C80 8.99995 80.3 14.1 76.2 15C77.3 15.3 79.2 15.9 80.8 17.4C82.5 18.8 83.2 20.9 83.2 23.4C83.3 27.5999 80.9 30.5 75.6 30.5Z" fill="#1D1D1D"/>
<path d="M2.89995 31.2C4.99995 32.3 7.69995 32.8 9.89995 32.8C13.9 32.8 20.9 31.4 20.9 24.4C20.9 19.5 17.4 16.8 11.6 12.8C8.89995 10.9 5.29995 9 5.29995 5.8C5.29995 3.2 7.69995 1.6 11.1 1.6C14.5 1.6 17.1 3.2 17.7 3.6L16 0.7C14.8 0.2 12.3 0 11 0C6.59995 0 1.39995 1.9 1.39995 7.2C1.39995 11.4 4.69995 13.7 10.1 17.6C12.6 19.4 16.6 22.3 16.6 25.8C16.6 29.1 14 31.1 9.89995 31.1C5.09995 31.1 1.49995 28.2 0.699951 27.5L2.89995 31.2Z" fill="#1D1D1D"/>
<path d="M42.7999 32.8C34.5999 32.8 28.2 26.3 28.2 16.9C28.2 7.8 34.5999 1 42.7999 1C51 1 57.4 7.8 57.4 16.9C57.4 26.2 51 32.8 42.7999 32.8ZM52.9 16.9C52.9 8.6 48.9 2.7 42.7999 2.7C36.7999 2.7 32.7 8.6 32.7 16.9C32.7 25.3 36.6999 31.1 42.7999 31.1C48.7999 31.1 52.9 25.3 52.9 16.9Z" fill="#1D1D1D"/>
<path d="M149.8 23.3H138L134.3 32.3H132.5L145.4 0.900024L158.3 32.3H153.6L149.8 23.3ZM138.7 21.5H149.1L143.9 8.70002L138.7 21.5Z" fill="#1D1D1D"/>
<path d="M119.4 1.59998V14.2H102.9V1.59998H98.3999V32.3H102.9V15.9H119.4V32.3H123.9V1.59998H119.4Z" fill="#1D1D1D"/>
<path d="M49.5 57H47.7V47.7H52.2C54.3 47.7 55.4 48.6999 55.4 50.2999V50.7999C55.4 51.9999 54.6 52.9999 53.4 53.2999L55.7999 57H53.7999L51.5 53.5H49.5999V57H49.5ZM49.5 52.0999H51.7C52.9 52.0999 53.5 51.5999 53.5 50.7999V50.4C53.5 49.6 52.9999 49.0999 51.7999 49.0999H49.5V52.0999Z" fill="#1D1D1D"/>
<path d="M66.8999 47.7V49.2H61.6999V51.5999H65.7999V53H61.6999V55.5H66.8999V57H59.8999V47.7H66.8999Z" fill="#1D1D1D"/>
<path d="M76.3999 55.1H72.2999L71.5999 57H69.7999L73.4999 47.6H75.4999L79.1999 57H77.2999L76.3999 55.1ZM72.7999 53.7H75.8999L74.3999 49.6L72.7999 53.7Z" fill="#1D1D1D"/>
<path d="M84.8 47.7V55.4H89.4V57H83V47.7H84.8Z" fill="#1D1D1D"/>
<path d="M99.4999 47.7V49.2H96.2999V57H94.4999V49.2H91.2999V47.7H99.4999Z" fill="#1D1D1D"/>
<path d="M104.4 47.7L106.9 51.9L109.3 47.7H111.3L107.7 53.4V57H105.9V53.4L102.4 47.7H104.4Z" fill="#1D1D1D"/>
</svg>
